NamdhinggoSILUCSource-Regular.ufo
<glyph name="exclam" format="2">
  <advance width="556"/>
  <unicode hex="0021"/>
  <outline>
    <contour>
      <point x="380" y="1405" type="line"/>
      <point x="337" y="1431" type="line"/>
      <point x="291" y="1413"/>
      <point x="220" y="1378"/>
      <point x="169" y="1346" type="curve"/>
      <point x="220" y="363" type="line"/>
      <point x="248" y="342" type="line"/>
      <point x="280" y="352"/>
      <point x="302" y="363"/>
      <point x="326" y="380" type="curve"/>
    </contour>
    <contour>
      <point x="395" y="120" type="curve" smooth="yes"/>
      <point x="395" y="194"/>
      <point x="356" y="234"/>
      <point x="291" y="234" type="curve" smooth="yes"/>
      <point x="213" y="234"/>
      <point x="147" y="164"/>
      <point x="147" y="74" type="curve" smooth="yes"/>
      <point x="147" y="0"/>
      <point x="182" y="-39"/>
      <point x="253" y="-39" type="curve" smooth="yes"/>
      <point x="332" y="-39"/>
      <point x="395" y="28"/>
    </contour>
  </outline>
</glyph>
<glyph name="quotedbl" format="2">
  <advance width="863"/>
  <unicode hex="0022"/>
  <outline>
    <contour>
      <point x="712" y="1409" type="line"/>
      <point x="670" y="1431" type="line"/>
      <point x="641" y="1425"/>
      <point x="536" y="1389"/>
      <point x="508" y="1373" type="curve"/>
      <point x="566" y="786" type="line"/>
      <point x="596" y="786"/>
      <point x="645" y="796"/>
      <point x="665" y="806" type="curve"/>
    </contour>
    <contour>
      <point x="355" y="1409" type="curve"/>
      <point x="312" y="1431" type="line"/>
      <point x="284" y="1425"/>
      <point x="180" y="1389"/>
      <point x="151" y="1373" type="curve"/>
      <point x="209" y="786" type="line"/>
      <point x="239" y="786"/>
      <point x="288" y="796"/>
      <point x="307" y="806" type="curve"/>
      <point x="323" y="1007"/>
      <point x="340" y="1208"/>
    </contour>
  </outline>
</glyph>
<glyph name="numbersign" format="2">
  <advance width="949"/>
  <unicode hex="0023"/>
  <outline>
    <contour>
      <point x="879" y="1228" type="curve"/>
      <point x="853" y="1249" type="line"/>
      <point x="823" y="1238"/>
      <point x="788" y="1230"/>
      <point x="759" y="1210" type="curve"/>
      <point x="680" y="932" type="line"/>
      <point x="500" y="932" type="line"/>
      <point x="586" y="1228" type="line"/>
      <point x="558" y="1249" type="line"/>
      <point x="529" y="1238"/>
      <point x="494" y="1230"/>
      <point x="466" y="1210" type="curve"/>
      <point x="386" y="932" type="line"/>
      <point x="218" y="932" type="line"/>
      <point x="208" y="906"/>
      <point x="190" y="866"/>
      <point x="184" y="838" type="curve"/>
      <point x="209" y="815" type="line"/>
      <point x="353" y="815" type="line"/>
      <point x="329" y="734"/>
      <point x="306" y="653"/>
      <point x="283" y="573" type="curve"/>
      <point x="113" y="573" type="line"/>
      <point x="102" y="547"/>
      <point x="87" y="506"/>
      <point x="81" y="480" type="curve"/>
      <point x="103" y="456" type="line"/>
      <point x="249" y="456" type="line"/>
      <point x="220" y="351"/>
      <point x="190" y="246"/>
      <point x="160" y="142" type="curve"/>
      <point x="185" y="123" type="line"/>
      <point x="220" y="134"/>
      <point x="255" y="147"/>
      <point x="278" y="164" type="curve"/>
      <point x="363" y="456" type="line"/>
      <point x="543" y="456" type="line"/>
      <point x="453" y="142" type="line"/>
      <point x="479" y="123" type="line"/>
      <point x="513" y="134"/>
      <point x="551" y="147"/>
      <point x="574" y="164" type="curve"/>
      <point x="601" y="261"/>
      <point x="629" y="358"/>
      <point x="657" y="456" type="curve"/>
      <point x="830" y="456" type="line"/>
      <point x="839" y="479"/>
      <point x="854" y="522"/>
      <point x="860" y="547" type="curve"/>
      <point x="838" y="573" type="line"/>
      <point x="691" y="573" type="line"/>
      <point x="714" y="653"/>
      <point x="737" y="734"/>
      <point x="761" y="815" type="curve"/>
      <point x="933" y="815" type="line"/>
      <point x="943" y="836"/>
      <point x="960" y="880"/>
      <point x="966" y="908" type="curve"/>
      <point x="942" y="932" type="line"/>
      <point x="794" y="932" type="line"/>
      <point x="823" y="1030"/>
      <point x="851" y="1129"/>
    </contour>
    <contour>
      <point x="466" y="815" type="line"/>
      <point x="646" y="815" type="line"/>
      <point x="623" y="734"/>
      <point x="600" y="653"/>
      <point x="576" y="573" type="curve"/>
      <point x="396" y="573" type="line"/>
    </contour>
  </outline>
</glyph>
<glyph name="dollar" format="2">
  <advance width="949"/>
  <unicode hex="0024"/>
  <outline>
    <contour>
      <point x="518" y="-135" type="curve"/>
      <point x="518" y="-3" type="line"/>
      <point x="744" y="31"/>
      <point x="855" y="208"/>
      <point x="855" y="363" type="curve" smooth="yes"/>
      <point x="855" y="569"/>
      <point x="681" y="644"/>
      <point x="518" y="705" type="curve"/>
      <point x="518" y="1064" type="line"/>
      <point x="575" y="1046"/>
      <point x="631" y="1006"/>
      <point x="682" y="940" type="curve"/>
      <point x="725" y="933" type="line"/>
      <point x="756" y="960"/>
      <point x="809" y="1045"/>
      <point x="809" y="1075" type="curve" smooth="yes"/>
      <point x="809" y="1079"/>
      <point x="809" y="1082"/>
      <point x="807" y="1084" type="curve" smooth="yes"/>
      <point x="757" y="1133"/>
      <point x="640" y="1170"/>
      <point x="518" y="1174" type="curve"/>
      <point x="518" y="1315" type="line"/>
      <point x="490" y="1338" type="line"/>
      <point x="452" y="1329"/>
      <point x="460" y="1330"/>
      <point x="424" y="1308" type="curve"/>
      <point x="424" y="1170" type="line"/>
      <point x="173" y="1143"/>
      <point x="92" y="989"/>
      <point x="92" y="879" type="curve" smooth="yes"/>
      <point x="92" y="687"/>
      <point x="262" y="628"/>
      <point x="424" y="568" type="curve"/>
      <point x="424" y="116" type="line"/>
      <point x="305" y="133"/>
      <point x="207" y="206"/>
      <point x="145" y="338" type="curve"/>
      <point x="98" y="342" type="line"/>
      <point x="88" y="305"/>
      <point x="83" y="244"/>
      <point x="83" y="192" type="curve" smooth="yes"/>
      <point x="83" y="143"/>
      <point x="87" y="102"/>
      <point x="96" y="96" type="curve" smooth="yes"/>
      <point x="210" y="24"/>
      <point x="304" y="-8"/>
      <point x="424" y="-10" type="curve"/>
      <point x="424" y="-145" type="line"/>
      <point x="452" y="-168" type="line"/>
      <point x="483" y="-161"/>
      <point x="494" y="-156"/>
    </contour>
    <contour>
      <point x="709" y="311" type="curve" smooth="yes"/>
      <point x="709" y="202"/>
      <point x="617" y="128"/>
      <point x="518" y="114" type="curve"/>
      <point x="518" y="532" type="line"/>
      <point x="624" y="487"/>
      <point x="709" y="429"/>
    </contour>
    <contour>
      <point x="230" y="924" type="curve" smooth="yes"/>
      <point x="230" y="995"/>
      <point x="282" y="1067"/>
      <point x="424" y="1073" type="curve"/>
      <point x="424" y="741" type="line"/>
      <point x="316" y="784"/>
      <point x="230" y="831"/>
    </contour>
  </outline>
</glyph>
<glyph name="percent" format="2">
  <advance width="1389"/>
  <unicode hex="0025"/>
  <outline>
    <contour>
      <point x="1319" y="299" type="curve" smooth="yes"/>
      <point x="1319" y="480"/>
      <point x="1214" y="626"/>
      <point x="1052" y="626" type="curve" smooth="yes"/>
      <point x="894" y="626"/>
      <point x="760" y="478"/>
      <point x="760" y="299" type="curve" smooth="yes"/>
      <point x="760" y="121"/>
      <point x="869" y="-29"/>
      <point x="1027" y="-29" type="curve" smooth="yes"/>
      <point x="1186" y="-29"/>
      <point x="1319" y="121"/>
    </contour>
    <contour>
      <point x="1196" y="1164" type="line"/>
      <point x="1168" y="1196" type="line"/>
      <point x="1130" y="1187"/>
      <point x="1071" y="1170"/>
      <point x="1037" y="1151" type="curve"/>
      <point x="756" y="767"/>
      <point x="475" y="384"/>
      <point x="193" y="1" type="curve"/>
      <point x="217" y="-32" type="line"/>
      <point x="249" y="-22"/>
      <point x="327" y="-2"/>
      <point x="351" y="14" type="curve"/>
    </contour>
    <contour>
      <point x="630" y="867" type="curve" smooth="yes"/>
      <point x="630" y="1047"/>
      <point x="523" y="1193"/>
      <point x="361" y="1193" type="curve" smooth="yes"/>
      <point x="202" y="1193"/>
      <point x="69" y="1045"/>
      <point x="69" y="867" type="curve" smooth="yes"/>
      <point x="69" y="689"/>
      <point x="178" y="540"/>
      <point x="336" y="540" type="curve" smooth="yes"/>
      <point x="497" y="540"/>
      <point x="630" y="689"/>
    </contour>
    <contour>
      <point x="1168" y="279" type="curve" smooth="yes"/>
      <point x="1168" y="125"/>
      <point x="1117" y="47"/>
      <point x="1052" y="47" type="curve" smooth="yes"/>
      <point x="969" y="47"/>
      <point x="914" y="133"/>
      <point x="914" y="321" type="curve" smooth="yes"/>
      <point x="914" y="476"/>
      <point x="969" y="548"/>
      <point x="1027" y="548" type="curve" smooth="yes"/>
      <point x="1102" y="548"/>
      <point x="1168" y="462"/>
    </contour>
    <contour>
      <point x="477" y="848" type="curve" smooth="yes"/>
      <point x="477" y="693"/>
      <point x="425" y="616"/>
      <point x="361" y="616" type="curve" smooth="yes"/>
      <point x="278" y="616"/>
      <point x="222" y="702"/>
      <point x="222" y="890" type="curve" smooth="yes"/>
      <point x="222" y="1044"/>
      <point x="277" y="1116"/>
      <point x="336" y="1116" type="curve" smooth="yes"/>
      <point x="411" y="1116"/>
      <point x="477" y="1033"/>
    </contour>
  </outline>
</glyph>
<glyph name="ampersand" format="2">
  <advance width="1338"/>
  <unicode hex="0026"/>
  <outline>
    <contour>
      <point x="1322" y="723" type="curve"/>
      <point x="1314" y="735"/>
      <point x="1305" y="747"/>
      <point x="1298" y="759" type="curve"/>
      <point x="859" y="759" type="line"/>
      <point x="833" y="749"/>
      <point x="798" y="722"/>
      <point x="784" y="706" type="curve"/>
      <point x="791" y="696"/>
      <point x="799" y="687"/>
      <point x="807" y="677" type="curve"/>
      <point x="882" y="677"/>
      <point x="961" y="594"/>
      <point x="961" y="485" type="curve" smooth="yes"/>
      <point x="961" y="429"/>
      <point x="940" y="365"/>
      <point x="902" y="304" type="curve"/>
      <point x="773" y="437"/>
      <point x="636" y="605"/>
      <point x="545" y="769" type="curve"/>
      <point x="564" y="782"/>
      <point x="584" y="795"/>
      <point x="605" y="808" type="curve" smooth="yes"/>
      <point x="758" y="903"/>
      <point x="860" y="1030"/>
      <point x="860" y="1164" type="curve" smooth="yes"/>
      <point x="860" y="1289"/>
      <point x="799" y="1402"/>
      <point x="628" y="1402" type="curve" smooth="yes"/>
      <point x="455" y="1402"/>
      <point x="299" y="1245"/>
      <point x="299" y="1038" type="curve" smooth="yes"/>
      <point x="299" y="951"/>
      <point x="323" y="861"/>
      <point x="362" y="768" type="curve"/>
      <point x="175" y="634"/>
      <point x="75" y="483"/>
      <point x="75" y="340" type="curve" smooth="yes"/>
      <point x="75" y="99"/>
      <point x="239" y="-29"/>
      <point x="486" y="-29" type="curve" smooth="yes"/>
      <point x="625" y="-29"/>
      <point x="752" y="26"/>
      <point x="853" y="107" type="curve"/>
      <point x="945" y="23"/>
      <point x="1020" y="-29"/>
      <point x="1049" y="-29" type="curve" smooth="yes"/>
      <point x="1077" y="-29"/>
      <point x="1172" y="-3"/>
      <point x="1284" y="46" type="curve"/>
      <point x="1274" y="94" type="line"/>
      <point x="1254" y="89"/>
      <point x="1235" y="87"/>
      <point x="1218" y="87" type="curve" smooth="yes"/>
      <point x="1121" y="87"/>
      <point x="1054" y="159"/>
      <point x="975" y="234" type="curve"/>
      <point x="1047" y="329"/>
      <point x="1090" y="435"/>
      <point x="1090" y="525" type="curve" smooth="yes"/>
      <point x="1090" y="595"/>
      <point x="1086" y="627"/>
      <point x="1058" y="671" type="curve"/>
      <point x="1102" y="669"/>
      <point x="1175" y="652"/>
      <point x="1222" y="630" type="curve"/>
      <point x="1254" y="652"/>
      <point x="1290" y="684"/>
    </contour>
    <contour>
      <point x="521" y="87" type="curve" smooth="yes"/>
      <point x="385" y="87"/>
      <point x="251" y="180"/>
      <point x="251" y="361" type="curve" smooth="yes"/>
      <point x="251" y="466"/>
      <point x="291" y="560"/>
      <point x="411" y="667" type="curve"/>
      <point x="509" y="484"/>
      <point x="655" y="305"/>
      <point x="784" y="175" type="curve"/>
      <point x="713" y="122"/>
      <point x="624" y="87"/>
    </contour>
    <contour>
      <point x="442" y="1093" type="curve" smooth="yes"/>
      <point x="442" y="1194"/>
      <point x="485" y="1294"/>
      <point x="574" y="1294" type="curve" smooth="yes"/>
      <point x="659" y="1294"/>
      <point x="705" y="1222"/>
      <point x="705" y="1132" type="curve" smooth="yes"/>
      <point x="705" y="1048"/>
      <point x="667" y="949"/>
      <point x="502" y="855" type="curve"/>
      <point x="465" y="938"/>
      <point x="442" y="1019"/>
    </contour>
  </outline>
</glyph>
<glyph name="quotesingle" format="2">
  <advance width="507"/>
  <unicode hex="0027"/>
  <outline>
    <contour>
      <point x="355" y="1409" type="curve"/>
      <point x="312" y="1431" type="line"/>
      <point x="284" y="1425"/>
      <point x="180" y="1389"/>
      <point x="151" y="1373" type="curve"/>
      <point x="209" y="786" type="line"/>
      <point x="239" y="786"/>
      <point x="288" y="796"/>
      <point x="307" y="806" type="curve"/>
      <point x="323" y="1007"/>
      <point x="340" y="1208"/>
    </contour>
  </outline>
</glyph>
<glyph name="parenleft" format="2">
  <advance width="637"/>
  <unicode hex="0028"/>
  <outline>
    <contour>
      <point x="601" y="-255" type="line"/>
      <point x="406" y="-90"/>
      <point x="297" y="253"/>
      <point x="297" y="630" type="curve" smooth="yes"/>
      <point x="297" y="1043"/>
      <point x="435" y="1354"/>
      <point x="601" y="1498" type="curve"/>
      <point x="566" y="1547" type="line"/>
      <point x="293" y="1401"/>
      <point x="114" y="1026"/>
      <point x="114" y="602" type="curve" smooth="yes"/>
      <point x="114" y="192"/>
      <point x="267" y="-163"/>
      <point x="566" y="-305" type="curve"/>
    </contour>
  </outline>
</glyph>
<glyph name="parenright" format="2">
  <advance width="637"/>
  <unicode hex="0029"/>
  <outline>
    <contour>
      <point x="523" y="641" type="curve" smooth="yes"/>
      <point x="523" y="1051"/>
      <point x="370" y="1407"/>
      <point x="72" y="1547" type="curve"/>
      <point x="37" y="1498" type="line"/>
      <point x="233" y="1335"/>
      <point x="341" y="988"/>
      <point x="341" y="614" type="curve" smooth="yes"/>
      <point x="341" y="200"/>
      <point x="201" y="-112"/>
      <point x="37" y="-255" type="curve"/>
      <point x="72" y="-305" type="line"/>
      <point x="343" y="-159"/>
      <point x="523" y="218"/>
    </contour>
  </outline>
</glyph>
<glyph name="asterisk" format="2">
  <advance width="888"/>
  <unicode hex="002A"/>
  <outline>
    <contour>
      <point x="519" y="1486" type="curve"/>
      <point x="507" y="1493"/>
      <point x="495" y="1501"/>
      <point x="483" y="1509" type="curve"/>
      <point x="455" y="1503"/>
      <point x="397" y="1475"/>
      <point x="369" y="1460" type="curve"/>
      <point x="383" y="1358"/>
      <point x="395" y="1256"/>
      <point x="409" y="1154" type="curve"/>
      <point x="319" y="1221"/>
      <point x="231" y="1289"/>
      <point x="141" y="1356" type="curve"/>
      <point x="104" y="1334" type="line"/>
      <point x="95" y="1308"/>
      <point x="92" y="1245"/>
      <point x="90" y="1214" type="curve"/>
      <point x="377" y="1096" type="line"/>
      <point x="274" y="1052"/>
      <point x="170" y="1009"/>
      <point x="67" y="966" type="curve"/>
      <point x="67" y="922" type="line"/>
      <point x="84" y="902"/>
      <point x="137" y="867"/>
      <point x="166" y="850" type="curve"/>
      <point x="410" y="1037" type="line"/>
      <point x="368" y="706" type="line"/>
      <point x="381" y="699"/>
      <point x="394" y="692"/>
      <point x="407" y="686" type="curve"/>
      <point x="435" y="691"/>
      <point x="491" y="717"/>
      <point x="518" y="734" type="curve"/>
      <point x="479" y="1037" type="line"/>
      <point x="745" y="836" type="line"/>
      <point x="783" y="857" type="line"/>
      <point x="793" y="885"/>
      <point x="796" y="947"/>
      <point x="798" y="979" type="curve"/>
      <point x="702" y="1018"/>
      <point x="607" y="1058"/>
      <point x="511" y="1098" type="curve"/>
      <point x="821" y="1227" type="line"/>
      <point x="822" y="1241"/>
      <point x="822" y="1256"/>
      <point x="822" y="1270" type="curve"/>
      <point x="802" y="1291"/>
      <point x="750" y="1325"/>
      <point x="723" y="1342" type="curve"/>
      <point x="641" y="1279"/>
      <point x="559" y="1217"/>
      <point x="477" y="1155" type="curve"/>
      <point x="491" y="1265"/>
      <point x="506" y="1376"/>
    </contour>
  </outline>
</glyph>
<glyph name="plus" format="2">
  <advance width="821"/>
  <unicode hex="002B"/>
  <outline>
    <contour>
      <point x="469" y="225" type="curve"/>
      <point x="469" y="487" type="line"/>
      <point x="730" y="487" type="line"/>
      <point x="740" y="509"/>
      <point x="756" y="548"/>
      <point x="762" y="574" type="curve"/>
      <point x="737" y="600" type="line"/>
      <point x="469" y="600" type="line"/>
      <point x="469" y="869" type="line"/>
      <point x="444" y="893" type="line"/>
      <point x="416" y="886"/>
      <point x="376" y="871"/>
      <point x="352" y="863" type="curve"/>
      <point x="352" y="600" type="line"/>
      <point x="90" y="600" type="line"/>
      <point x="78" y="574"/>
      <point x="64" y="538"/>
      <point x="57" y="511" type="curve"/>
      <point x="83" y="487" type="line"/>
      <point x="352" y="487" type="line"/>
      <point x="352" y="217" type="line"/>
      <point x="377" y="194" type="line"/>
      <point x="405" y="200"/>
      <point x="444" y="213"/>
    </contour>
  </outline>
</glyph>
<glyph name="comma" format="2">
  <advance width="473"/>
  <unicode hex="002C"/>
  <outline>
    <contour>
      <point x="396" y="68" type="curve" smooth="yes"/>
      <point x="396" y="146"/>
      <point x="377" y="198"/>
      <point x="315" y="227" type="curve"/>
      <point x="264" y="227"/>
      <point x="108" y="168"/>
      <point x="85" y="137" type="curve"/>
      <point x="101" y="86" type="line"/>
      <point x="106" y="86"/>
      <point x="111" y="86"/>
      <point x="116" y="86" type="curve" smooth="yes"/>
      <point x="188" y="86"/>
      <point x="222" y="45"/>
      <point x="222" y="-7" type="curve" smooth="yes"/>
      <point x="222" y="-118"/>
      <point x="189" y="-189"/>
      <point x="117" y="-272" type="curve"/>
      <point x="134" y="-284"/>
      <point x="149" y="-297"/>
      <point x="166" y="-309" type="curve"/>
      <point x="305" y="-209"/>
      <point x="396" y="-41"/>
    </contour>
  </outline>
</glyph>
<glyph name="hyphen" format="2">
  <advance width="678"/>
  <unicode hex="002D"/>
  <outline>
    <contour>
      <point x="620" y="529" type="curve"/>
      <point x="611" y="537"/>
      <point x="603" y="546"/>
      <point x="595" y="554" type="curve"/>
      <point x="90" y="554" type="line"/>
      <point x="78" y="529"/>
      <point x="64" y="489"/>
      <point x="57" y="461" type="curve"/>
      <point x="83" y="437" type="line"/>
      <point x="587" y="437" type="line"/>
      <point x="597" y="458"/>
      <point x="612" y="501"/>
    </contour>
  </outline>
</glyph>
<glyph name="period" format="2">
  <advance width="473"/>
  <unicode hex="002E"/>
  <outline>
    <contour>
      <point x="376" y="120" type="curve" smooth="yes"/>
      <point x="376" y="194"/>
      <point x="336" y="234"/>
      <point x="271" y="234" type="curve" smooth="yes"/>
      <point x="194" y="234"/>
      <point x="127" y="164"/>
      <point x="127" y="74" type="curve" smooth="yes"/>
      <point x="127" y="0"/>
      <point x="163" y="-39"/>
      <point x="233" y="-39" type="curve" smooth="yes"/>
      <point x="313" y="-39"/>
      <point x="376" y="28"/>
    </contour>
  </outline>
</glyph>
<glyph name="slash" format="2">
  <advance width="937"/>
  <unicode hex="002F"/>
  <outline>
    <contour>
      <point x="889" y="1524" type="line"/>
      <point x="852" y="1547" type="line"/>
      <point x="815" y="1538"/>
      <point x="761" y="1520"/>
      <point x="726" y="1498" type="curve"/>
      <point x="498" y="899"/>
      <point x="272" y="300"/>
      <point x="45" y="-298" type="curve"/>
      <point x="82" y="-324" type="line"/>
      <point x="114" y="-314"/>
      <point x="184" y="-290"/>
      <point x="211" y="-273" type="curve"/>
    </contour>
  </outline>
</glyph>
<glyph name="zero" format="2">
  <advance width="949"/>
  <unicode hex="0030"/>
  <outline>
    <contour>
      <point x="877" y="582" type="curve" smooth="yes"/>
      <point x="877" y="919"/>
      <point x="744" y="1194"/>
      <point x="491" y="1194" type="curve" smooth="yes"/>
      <point x="240" y="1194"/>
      <point x="71" y="915"/>
      <point x="71" y="582" type="curve" smooth="yes"/>
      <point x="71" y="249"/>
      <point x="206" y="-29"/>
      <point x="456" y="-29" type="curve" smooth="yes"/>
      <point x="708" y="-29"/>
      <point x="877" y="249"/>
    </contour>
    <contour>
      <point x="699" y="546" type="curve" smooth="yes"/>
      <point x="699" y="220"/>
      <point x="624" y="85"/>
      <point x="491" y="85" type="curve" smooth="yes"/>
      <point x="351" y="85"/>
      <point x="249" y="270"/>
      <point x="249" y="624" type="curve" smooth="yes"/>
      <point x="249" y="947"/>
      <point x="327" y="1080"/>
      <point x="456" y="1080" type="curve" smooth="yes"/>
      <point x="585" y="1080"/>
      <point x="699" y="899"/>
    </contour>
  </outline>
</glyph>
<glyph name="one" format="2">
  <advance width="949"/>
  <unicode hex="0031"/>
  <outline>
    <contour>
      <point x="830" y="0" type="line"/>
      <point x="830" y="57" type="line"/>
      <point x="635" y="81"/>
      <point x="588" y="119"/>
      <point x="588" y="144" type="curve" smooth="yes"/>
      <point x="588" y="1168" type="line"/>
      <point x="551" y="1204" type="line"/>
      <point x="463" y="1157"/>
      <point x="240" y="1068"/>
      <point x="132" y="1040" type="curve"/>
      <point x="154" y="984" type="line"/>
      <point x="246" y="1003"/>
      <point x="308" y="1010"/>
      <point x="348" y="1010" type="curve" smooth="yes"/>
      <point x="430" y="1010"/>
      <point x="425" y="978"/>
      <point x="425" y="903" type="curve" smooth="yes"/>
      <point x="425" y="144" type="line" smooth="yes"/>
      <point x="425" y="117"/>
      <point x="365" y="81"/>
      <point x="162" y="57" type="curve"/>
      <point x="162" y="0" type="line"/>
    </contour>
  </outline>
</glyph>
<glyph name="two" format="2">
  <advance width="949"/>
  <unicode hex="0032"/>
  <outline>
    <contour>
      <point x="829" y="291" type="line"/>
      <point x="775" y="303" type="line"/>
      <point x="775" y="303"/>
      <point x="764" y="127"/>
      <point x="676" y="127" type="curve" smooth="yes"/>
      <point x="273" y="127" type="line"/>
      <point x="675" y="591"/>
      <point x="817" y="753"/>
      <point x="817" y="926" type="curve" smooth="yes"/>
      <point x="817" y="1109"/>
      <point x="692" y="1194"/>
      <point x="527" y="1194" type="curve" smooth="yes"/>
      <point x="319" y="1194"/>
      <point x="118" y="1019"/>
      <point x="118" y="886" type="curve"/>
      <point x="128" y="874"/>
      <point x="137" y="862"/>
      <point x="146" y="850" type="curve"/>
      <point x="206" y="856"/>
      <point x="244" y="876"/>
      <point x="288" y="900" type="curve"/>
      <point x="288" y="902"/>
      <point x="288" y="905"/>
      <point x="288" y="907" type="curve"/>
      <point x="288" y="998"/>
      <point x="358" y="1102"/>
      <point x="461" y="1102" type="curve" smooth="yes"/>
      <point x="595" y="1102"/>
      <point x="648" y="1010"/>
      <point x="648" y="894" type="curve" smooth="yes"/>
      <point x="648" y="748"/>
      <point x="553" y="603"/>
      <point x="92" y="72" type="curve"/>
      <point x="120" y="0" type="line"/>
      <point x="815" y="0" type="line"/>
    </contour>
  </outline>
</glyph>
<glyph name="three" format="2">
  <advance width="949"/>
  <unicode hex="0033"/>
  <outline>
    <contour>
      <point x="819" y="368" type="curve" smooth="yes"/>
      <point x="819" y="525"/>
      <point x="707" y="658"/>
      <point x="557" y="675" type="curve"/>
      <point x="683" y="728"/>
      <point x="764" y="830"/>
      <point x="764" y="926" type="curve" smooth="yes"/>
      <point x="764" y="1058"/>
      <point x="679" y="1194"/>
      <point x="477" y="1194" type="curve" smooth="yes"/>
      <point x="272" y="1194"/>
      <point x="101" y="1038"/>
      <point x="101" y="930" type="curve"/>
      <point x="111" y="918"/>
      <point x="119" y="906"/>
      <point x="129" y="894" type="curve"/>
      <point x="187" y="899"/>
      <point x="234" y="914"/>
      <point x="280" y="938" type="curve"/>
      <point x="278" y="948"/>
      <point x="277" y="958"/>
      <point x="277" y="967" type="curve" smooth="yes"/>
      <point x="277" y="1042"/>
      <point x="336" y="1102"/>
      <point x="421" y="1102" type="curve" smooth="yes"/>
      <point x="540" y="1102"/>
      <point x="590" y="998"/>
      <point x="590" y="909" type="curve" smooth="yes"/>
      <point x="590" y="830"/>
      <point x="556" y="718"/>
      <point x="321" y="655" type="curve"/>
      <point x="335" y="591" type="line"/>
      <point x="375" y="598"/>
      <point x="368" y="598"/>
      <point x="404" y="598" type="curve" smooth="yes"/>
      <point x="513" y="598"/>
      <point x="645" y="529"/>
      <point x="645" y="338" type="curve" smooth="yes"/>
      <point x="645" y="173"/>
      <point x="540" y="75"/>
      <point x="389" y="75" type="curve" smooth="yes"/>
      <point x="292" y="75"/>
      <point x="219" y="101"/>
      <point x="101" y="188" type="curve"/>
      <point x="68" y="118" type="line"/>
      <point x="184" y="7"/>
      <point x="302" y="-29"/>
      <point x="405" y="-29" type="curve" smooth="yes"/>
      <point x="671" y="-29"/>
      <point x="819" y="151"/>
    </contour>
  </outline>
</glyph>
<glyph name="four" format="2">
  <advance width="949"/>
  <unicode hex="0034"/>
  <outline>
    <contour>
      <point x="866" y="419" type="curve"/>
      <point x="840" y="448" type="line"/>
      <point x="719" y="448" type="line"/>
      <point x="719" y="1168" type="line"/>
      <point x="682" y="1204" type="line"/>
      <point x="640" y="1184"/>
      <point x="588" y="1156"/>
      <point x="532" y="1133" type="curve"/>
      <point x="373" y="878"/>
      <point x="213" y="623"/>
      <point x="53" y="368" type="curve"/>
      <point x="87" y="335" type="line"/>
      <point x="565" y="335" type="line"/>
      <point x="565" y="117" type="line" smooth="yes"/>
      <point x="565" y="95"/>
      <point x="530" y="75"/>
      <point x="361" y="47" type="curve"/>
      <point x="361" y="0" type="line"/>
      <point x="854" y="0" type="line"/>
      <point x="854" y="47" type="line"/>
      <point x="747" y="71"/>
      <point x="719" y="87"/>
      <point x="719" y="106" type="curve" smooth="yes"/>
      <point x="719" y="335" type="line"/>
      <point x="784" y="335" type="line"/>
      <point x="813" y="358"/>
      <point x="838" y="377"/>
    </contour>
    <contour>
      <point x="565" y="448" type="line"/>
      <point x="215" y="448" type="line"/>
      <point x="331" y="630"/>
      <point x="449" y="811"/>
      <point x="565" y="994" type="curve"/>
    </contour>
  </outline>
</glyph>
<glyph name="five" format="2">
  <advance width="949"/>
  <unicode hex="0035"/>
  <outline>
    <contour>
      <point x="828" y="396" type="curve" smooth="yes"/>
      <point x="828" y="586"/>
      <point x="700" y="757"/>
      <point x="460" y="757" type="curve" smooth="yes"/>
      <point x="391" y="757"/>
      <point x="315" y="746"/>
      <point x="263" y="729" type="curve"/>
      <point x="274" y="786"/>
      <point x="300" y="954"/>
      <point x="304" y="1029" type="curve"/>
      <point x="688" y="1029" type="line"/>
      <point x="718" y="1051"/>
      <point x="773" y="1111"/>
      <point x="801" y="1153" type="curve"/>
      <point x="771" y="1183" type="line"/>
      <point x="771" y="1183"/>
      <point x="728" y="1165"/>
      <point x="654" y="1165" type="curve" smooth="yes"/>
      <point x="213" y="1165" type="line"/>
      <point x="205" y="1029"/>
      <point x="157" y="737"/>
      <point x="132" y="596" type="curve"/>
      <point x="178" y="565" type="line"/>
      <point x="247" y="616"/>
      <point x="333" y="643"/>
      <point x="397" y="643" type="curve" smooth="yes"/>
      <point x="571" y="643"/>
      <point x="657" y="531"/>
      <point x="657" y="355" type="curve" smooth="yes"/>
      <point x="657" y="208"/>
      <point x="574" y="73"/>
      <point x="412" y="73" type="curve" smooth="yes"/>
      <point x="338" y="73"/>
      <point x="249" y="91"/>
      <point x="112" y="186" type="curve"/>
      <point x="100" y="162"/>
      <point x="88" y="140"/>
      <point x="75" y="117" type="curve"/>
      <point x="187" y="13"/>
      <point x="314" y="-29"/>
      <point x="433" y="-29" type="curve" smooth="yes"/>
      <point x="689" y="-29"/>
      <point x="828" y="172"/>
    </contour>
  </outline>
</glyph>
<glyph name="six" format="2">
  <advance width="949"/>
  <unicode hex="0036"/>
  <outline>
    <contour>
      <point x="873" y="398" type="curve" smooth="yes"/>
      <point x="873" y="610"/>
      <point x="750" y="747"/>
      <point x="539" y="747" type="curve" smooth="yes"/>
      <point x="477" y="747"/>
      <point x="378" y="717"/>
      <point x="288" y="635" type="curve"/>
      <point x="328" y="862"/>
      <point x="489" y="1074"/>
      <point x="798" y="1145" type="curve"/>
      <point x="777" y="1208" type="line"/>
      <point x="320" y="1142"/>
      <point x="104" y="822"/>
      <point x="104" y="457" type="curve" smooth="yes"/>
      <point x="104" y="166"/>
      <point x="281" y="-29"/>
      <point x="500" y="-29" type="curve" smooth="yes"/>
      <point x="745" y="-29"/>
      <point x="873" y="218"/>
    </contour>
    <contour>
      <point x="494" y="635" type="curve" smooth="yes"/>
      <point x="587" y="635"/>
      <point x="709" y="578"/>
      <point x="709" y="337" type="curve" smooth="yes"/>
      <point x="709" y="218"/>
      <point x="669" y="77"/>
      <point x="535" y="77" type="curve" smooth="yes"/>
      <point x="381" y="77"/>
      <point x="278" y="213"/>
      <point x="278" y="518" type="curve"/>
      <point x="349" y="599"/>
      <point x="430" y="635"/>
    </contour>
  </outline>
</glyph>
<glyph name="seven" format="2">
  <advance width="949"/>
  <unicode hex="0037"/>
  <outline>
    <contour>
      <point x="874" y="1128" type="curve"/>
      <point x="842" y="1165" type="line"/>
      <point x="142" y="1165" type="line"/>
      <point x="127" y="1108"/>
      <point x="108" y="965"/>
      <point x="100" y="905" type="curve"/>
      <point x="148" y="886" type="line"/>
      <point x="204" y="1036"/>
      <point x="239" y="1029"/>
      <point x="276" y="1029" type="curve" smooth="yes"/>
      <point x="717" y="1029" type="line"/>
      <point x="574" y="700"/>
      <point x="453" y="398"/>
      <point x="228" y="4" type="curve"/>
      <point x="242" y="-6"/>
      <point x="256" y="-17"/>
      <point x="270" y="-29" type="curve"/>
      <point x="333" y="-13"/>
      <point x="393" y="12"/>
      <point x="439" y="44" type="curve"/>
      <point x="507" y="250"/>
      <point x="695" y="713"/>
    </contour>
  </outline>
</glyph>
<glyph name="eight" format="2">
  <advance width="949"/>
  <unicode hex="0038"/>
  <outline>
    <contour>
      <point x="860" y="340" type="curve" smooth="yes"/>
      <point x="860" y="520"/>
      <point x="740" y="605"/>
      <point x="611" y="668" type="curve"/>
      <point x="726" y="747"/>
      <point x="811" y="831"/>
      <point x="811" y="937" type="curve" smooth="yes"/>
      <point x="811" y="1087"/>
      <point x="698" y="1194"/>
      <point x="493" y="1194" type="curve" smooth="yes"/>
      <point x="294" y="1194"/>
      <point x="137" y="1064"/>
      <point x="137" y="885" type="curve" smooth="yes"/>
      <point x="137" y="738"/>
      <point x="235" y="673"/>
      <point x="347" y="620" type="curve"/>
      <point x="191" y="535"/>
      <point x="88" y="414"/>
      <point x="88" y="276" type="curve" smooth="yes"/>
      <point x="88" y="117"/>
      <point x="217" y="-29"/>
      <point x="447" y="-29" type="curve" smooth="yes"/>
      <point x="674" y="-29"/>
      <point x="860" y="140"/>
    </contour>
    <contour>
      <point x="686" y="299" type="curve" smooth="yes"/>
      <point x="686" y="187"/>
      <point x="628" y="72"/>
      <point x="491" y="72" type="curve" smooth="yes"/>
      <point x="354" y="72"/>
      <point x="263" y="170"/>
      <point x="263" y="305" type="curve" smooth="yes"/>
      <point x="263" y="419"/>
      <point x="313" y="497"/>
      <point x="427" y="584" type="curve"/>
      <point x="559" y="527"/>
      <point x="686" y="465"/>
    </contour>
    <contour>
      <point x="283" y="919" type="curve" smooth="yes"/>
      <point x="283" y="1006"/>
      <point x="337" y="1099"/>
      <point x="447" y="1099" type="curve" smooth="yes"/>
      <point x="564" y="1099"/>
      <point x="647" y="1041"/>
      <point x="647" y="907" type="curve" smooth="yes"/>
      <point x="647" y="839"/>
      <point x="612" y="772"/>
      <point x="526" y="705" type="curve"/>
      <point x="399" y="760"/>
      <point x="283" y="808"/>
    </contour>
  </outline>
</glyph>
<glyph name="nine" format="2">
  <advance width="949"/>
  <unicode hex="0039"/>
  <outline>
    <contour>
      <point x="863" y="707" type="curve" smooth="yes"/>
      <point x="863" y="1049"/>
      <point x="690" y="1194"/>
      <point x="497" y="1194" type="curve" smooth="yes"/>
      <point x="262" y="1194"/>
      <point x="94" y="964"/>
      <point x="94" y="769" type="curve" smooth="yes"/>
      <point x="94" y="576"/>
      <point x="215" y="426"/>
      <point x="427" y="426" type="curve" smooth="yes"/>
      <point x="517" y="426"/>
      <point x="614" y="475"/>
      <point x="684" y="549" type="curve"/>
      <point x="658" y="297"/>
      <point x="517" y="108"/>
      <point x="169" y="21" type="curve"/>
      <point x="187" y="-42" type="line"/>
      <point x="647" y="22"/>
      <point x="863" y="315"/>
    </contour>
    <contour>
      <point x="473" y="540" type="curve" smooth="yes"/>
      <point x="384" y="540"/>
      <point x="259" y="594"/>
      <point x="259" y="828" type="curve" smooth="yes"/>
      <point x="259" y="981"/>
      <point x="332" y="1088"/>
      <point x="460" y="1088" type="curve" smooth="yes"/>
      <point x="562" y="1088"/>
      <point x="683" y="995"/>
      <point x="689" y="666" type="curve"/>
      <point x="635" y="592"/>
      <point x="559" y="540"/>
    </contour>
  </outline>
</glyph>
<glyph name="semicolon" format="2">
  <advance width="473"/>
  <unicode hex="003B"/>
  <outline>
    <contour>
      <point x="396" y="68" type="curve" smooth="yes"/>
      <point x="396" y="146"/>
      <point x="377" y="198"/>
      <point x="315" y="227" type="curve"/>
      <point x="264" y="227"/>
      <point x="108" y="168"/>
      <point x="85" y="137" type="curve"/>
      <point x="101" y="86" type="line"/>
      <point x="106" y="86"/>
      <point x="111" y="86"/>
      <point x="116" y="86" type="curve" smooth="yes"/>
      <point x="188" y="86"/>
      <point x="222" y="45"/>
      <point x="222" y="-7" type="curve" smooth="yes"/>
      <point x="222" y="-118"/>
      <point x="189" y="-189"/>
      <point x="117" y="-272" type="curve"/>
      <point x="134" y="-284"/>
      <point x="149" y="-297"/>
      <point x="166" y="-309" type="curve"/>
      <point x="305" y="-209"/>
      <point x="396" y="-41"/>
    </contour>
    <contour>
      <point x="376" y="814" type="curve" smooth="yes"/>
      <point x="376" y="888"/>
      <point x="336" y="928"/>
      <point x="271" y="928" type="curve" smooth="yes"/>
      <point x="194" y="928"/>
      <point x="127" y="858"/>
      <point x="127" y="768" type="curve" smooth="yes"/>
      <point x="127" y="694"/>
      <point x="163" y="655"/>
      <point x="233" y="655" type="curve" smooth="yes"/>
      <point x="313" y="655"/>
      <point x="376" y="722"/>
    </contour>
  </outline>
</glyph>
<glyph name="less" format="2">
  <advance width="880"/>
  <unicode hex="003C"/>
  <outline>
    <contour>
      <point x="822" y="313" type="curve"/>
      <point x="816" y="325"/>
      <point x="810" y="337"/>
      <point x="805" y="349" type="curve"/>
      <point x="258" y="549" type="line"/>
      <point x="793" y="745" type="line"/>
      <point x="801" y="770"/>
      <point x="815" y="821"/>
      <point x="822" y="848" type="curve"/>
      <point x="813" y="856"/>
      <point x="805" y="864"/>
      <point x="797" y="873" type="curve"/>
      <point x="89" y="611" type="line"/>
      <point x="88" y="609"/>
      <point x="87" y="608"/>
      <point x="87" y="607" type="curve"/>
      <point x="79" y="588" type="line" smooth="yes"/>
      <point x="77" y="583"/>
      <point x="76" y="580"/>
      <point x="76" y="578" type="curve"/>
      <point x="66" y="542" type="line"/>
      <point x="63" y="533" type="line" smooth="yes"/>
      <point x="62" y="530"/>
      <point x="61" y="527"/>
      <point x="61" y="525" type="curve"/>
      <point x="58" y="518" type="line"/>
      <point x="58" y="514"/>
      <point x="56" y="511"/>
      <point x="57" y="512" type="curve"/>
      <point x="83" y="485" type="line"/>
      <point x="736" y="245" type="line"/>
      <point x="776" y="269"/>
      <point x="794" y="287"/>
    </contour>
  </outline>
</glyph>
<glyph name="equal" format="2">
  <advance width="880"/>
  <unicode hex="003D"/>
  <outline>
    <contour>
      <point x="822" y="717" type="curve"/>
      <point x="797" y="743" type="line"/>
      <point x="90" y="743" type="line"/>
      <point x="78" y="719"/>
      <point x="64" y="682"/>
      <point x="57" y="656" type="curve"/>
      <point x="83" y="630" type="line"/>
      <point x="791" y="630" type="line"/>
      <point x="799" y="653"/>
      <point x="815" y="691"/>
    </contour>
    <contour>
      <point x="822" y="427" type="curve"/>
      <point x="797" y="453" type="line"/>
      <point x="90" y="453" type="line"/>
      <point x="78" y="427"/>
      <point x="64" y="394"/>
      <point x="57" y="367" type="curve"/>
      <point x="83" y="340" type="line"/>
      <point x="791" y="340" type="line"/>
      <point x="799" y="364"/>
      <point x="815" y="400"/>
    </contour>
  </outline>
</glyph>
<glyph name="greater" format="2">
  <advance width="880"/>
  <unicode hex="003E"/>
  <outline>
    <contour>
      <point x="798" y="632" type="curve"/>
      <point x="580" y="712"/>
      <point x="362" y="793"/>
      <point x="143" y="873" type="curve"/>
      <point x="57" y="805" type="line"/>
      <point x="75" y="767" type="line"/>
      <point x="619" y="567" type="line"/>
      <point x="88" y="370" type="line"/>
      <point x="79" y="348"/>
      <point x="66" y="295"/>
      <point x="57" y="270" type="curve"/>
      <point x="83" y="245" type="line"/>
      <point x="791" y="504" type="line"/>
      <point x="803" y="534"/>
      <point x="815" y="580"/>
      <point x="822" y="605" type="curve"/>
      <point x="814" y="615"/>
      <point x="806" y="623"/>
    </contour>
  </outline>
</glyph>
<glyph name="question" format="2">
  <advance width="871"/>
  <unicode hex="003F"/>
  <outline>
    <contour>
      <point x="795" y="1127" type="curve"/>
      <point x="795" y="1307"/>
      <point x="687" y="1431"/>
      <point x="492" y="1431" type="curve" smooth="yes"/>
      <point x="271" y="1431"/>
      <point x="75" y="1295"/>
      <point x="75" y="1113" type="curve" smooth="yes"/>
      <point x="75" y="1103"/>
      <point x="75" y="1088"/>
      <point x="76" y="1078" type="curve"/>
      <point x="104" y="1048" type="line"/>
      <point x="162" y="1054"/>
      <point x="223" y="1068"/>
      <point x="265" y="1089" type="curve"/>
      <point x="259" y="1107"/>
      <point x="253" y="1128"/>
      <point x="253" y="1147" type="curve" smooth="yes"/>
      <point x="253" y="1247"/>
      <point x="330" y="1334"/>
      <point x="418" y="1334" type="curve" smooth="yes"/>
      <point x="544" y="1334"/>
      <point x="617" y="1242"/>
      <point x="617" y="1083" type="curve" smooth="yes"/>
      <point x="617" y="902"/>
      <point x="345" y="703"/>
      <point x="345" y="486" type="curve" smooth="yes"/>
      <point x="345" y="481"/>
      <point x="345" y="477"/>
      <point x="345" y="473" type="curve"/>
      <point x="353" y="362" type="line"/>
      <point x="379" y="341" type="line"/>
      <point x="415" y="350"/>
      <point x="433" y="363"/>
      <point x="457" y="380" type="curve"/>
      <point x="463" y="473" type="line" smooth="yes"/>
      <point x="480" y="738"/>
      <point x="796" y="835"/>
    </contour>
    <contour>
      <point x="537" y="120" type="curve" smooth="yes"/>
      <point x="537" y="194"/>
      <point x="498" y="234"/>
      <point x="432" y="234" type="curve" smooth="yes"/>
      <point x="355" y="234"/>
      <point x="288" y="164"/>
      <point x="288" y="74" type="curve" smooth="yes"/>
      <point x="288" y="0"/>
      <point x="324" y="-39"/>
      <point x="394" y="-39" type="curve" smooth="yes"/>
      <point x="475" y="-39"/>
      <point x="537" y="28"/>
    </contour>
  </outline>
</glyph>
<glyph name="at" format="2">
  <advance width="1635"/>
  <unicode hex="0040"/>
  <outline>
    <contour>
      <point x="1563" y="535" type="curve" smooth="yes"/>
      <point x="1563" y="1034"/>
      <point x="1301" y="1295"/>
      <point x="909" y="1295" type="curve" smooth="yes"/>
      <point x="447" y="1295"/>
      <point x="71" y="893"/>
      <point x="71" y="450" type="curve" smooth="yes"/>
      <point x="71" y="-52"/>
      <point x="391" y="-370"/>
      <point x="844" y="-370" type="curve" smooth="yes"/>
      <point x="1131" y="-370"/>
      <point x="1337" y="-234"/>
      <point x="1431" y="-135" type="curve"/>
      <point x="1401" y="-76" type="line"/>
      <point x="1323" y="-142"/>
      <point x="1117" y="-244"/>
      <point x="892" y="-244" type="curve" smooth="yes"/>
      <point x="539" y="-244"/>
      <point x="231" y="35"/>
      <point x="231" y="507" type="curve" smooth="yes"/>
      <point x="231" y="856"/>
      <point x="474" y="1168"/>
      <point x="870" y="1168" type="curve" smooth="yes"/>
      <point x="1200" y="1168"/>
      <point x="1432" y="930"/>
      <point x="1432" y="495" type="curve" smooth="yes"/>
      <point x="1432" y="278"/>
      <point x="1318" y="115"/>
      <point x="1253" y="115" type="curve" smooth="yes"/>
      <point x="1191" y="115"/>
      <point x="1154" y="168"/>
      <point x="1154" y="276" type="curve" smooth="yes"/>
      <point x="1154" y="694" type="line" smooth="yes"/>
      <point x="1154" y="802"/>
      <point x="1183" y="899"/>
      <point x="1183" y="899" type="curve"/>
      <point x="1153" y="928" type="line"/>
      <point x="1113" y="889"/>
      <point x="1076" y="861"/>
      <point x="1035" y="839" type="curve"/>
      <point x="968" y="915"/>
      <point x="932" y="928"/>
      <point x="872" y="928" type="curve" smooth="yes"/>
      <point x="617" y="928"/>
      <point x="454" y="655"/>
      <point x="454" y="427" type="curve" smooth="yes"/>
      <point x="454" y="136"/>
      <point x="608" y="-29"/>
      <point x="740" y="-29" type="curve" smooth="yes"/>
      <point x="843" y="-29"/>
      <point x="891" y="8"/>
      <point x="997" y="151" type="curve"/>
      <point x="1016" y="19"/>
      <point x="1070" y="-29"/>
      <point x="1136" y="-29" type="curve" smooth="yes"/>
      <point x="1315" y="-29"/>
      <point x="1563" y="202"/>
    </contour>
    <contour>
      <point x="991" y="247" type="line"/>
      <point x="899" y="137"/>
      <point x="865" y="108"/>
      <point x="815" y="108" type="curve" smooth="yes"/>
      <point x="728" y="108"/>
      <point x="617" y="238"/>
      <point x="617" y="457" type="curve" smooth="yes"/>
      <point x="617" y="699"/>
      <point x="709" y="817"/>
      <point x="845" y="817" type="curve" smooth="yes"/>
      <point x="920" y="817"/>
      <point x="957" y="775"/>
      <point x="991" y="707" type="curve"/>
    </contour>
  </outline>
</glyph>
<glyph name="H" format="2">
  <advance width="1313"/>
  <unicode hex="0048"/>
  <outline>
    <contour>
      <point x="499" y="0" type="line"/>
      <point x="499" y="47" type="line"/>
      <point x="405" y="65"/>
      <point x="359" y="91"/>
      <point x="359" y="106" type="curve" smooth="yes"/>
      <point x="359" y="592" type="line"/>
      <point x="935" y="592" type="line"/>
      <point x="935" y="106" type="line" smooth="yes"/>
      <point x="935" y="89"/>
      <point x="883" y="65"/>
      <point x="796" y="47" type="curve"/>
      <point x="796" y="0" type="line"/>
      <point x="1248" y="0" type="line"/>
      <point x="1248" y="47" type="line"/>
      <point x="1154" y="65"/>
      <point x="1108" y="91"/>
      <point x="1108" y="106" type="curve" smooth="yes"/>
      <point x="1108" y="1111" type="line" smooth="yes"/>
      <point x="1108" y="1129"/>
      <point x="1160" y="1152"/>
      <point x="1248" y="1171" type="curve"/>
      <point x="1248" y="1218" type="line"/>
      <point x="796" y="1218" type="line"/>
      <point x="796" y="1171" type="line"/>
      <point x="889" y="1152"/>
      <point x="935" y="1126"/>
      <point x="935" y="1111" type="curve" smooth="yes"/>
      <point x="935" y="685" type="line"/>
      <point x="359" y="685" type="line"/>
      <point x="359" y="1111" type="line" smooth="yes"/>
      <point x="359" y="1129"/>
      <point x="412" y="1152"/>
      <point x="499" y="1171" type="curve"/>
      <point x="499" y="1218" type="line"/>
      <point x="47" y="1218" type="line"/>
      <point x="47" y="1171" type="line"/>
      <point x="140" y="1152"/>
      <point x="186" y="1126"/>
      <point x="186" y="1111" type="curve" smooth="yes"/>
      <point x="186" y="106" type="line" smooth="yes"/>
      <point x="186" y="89"/>
      <point x="134" y="65"/>
      <point x="47" y="47" type="curve"/>
      <point x="47" y="0" type="line"/>
    </contour>
  </outline>
</glyph>
<glyph name="I" format="2">
  <advance width="605"/>
  <unicode hex="0049"/>
  <outline>
    <contour>
      <point x="519" y="0" type="line"/>
      <point x="519" y="47" type="line"/>
      <point x="425" y="65"/>
      <point x="379" y="91"/>
      <point x="379" y="106" type="curve" smooth="yes"/>
      <point x="379" y="1111" type="line" smooth="yes"/>
      <point x="379" y="1129"/>
      <point x="431" y="1152"/>
      <point x="519" y="1171" type="curve"/>
      <point x="519" y="1218" type="line"/>
      <point x="67" y="1218" type="line"/>
      <point x="67" y="1171" type="line"/>
      <point x="160" y="1152"/>
      <point x="206" y="1126"/>
      <point x="206" y="1111" type="curve" smooth="yes"/>
      <point x="206" y="106" type="line" smooth="yes"/>
      <point x="206" y="89"/>
      <point x="154" y="65"/>
      <point x="67" y="47" type="curve"/>
      <point x="67" y="0" type="line"/>
    </contour>
  </outline>
</glyph>
<glyph name="J" format="2">
  <advance width="619"/>
  <unicode hex="004A"/>
  <outline>
    <contour>
      <point x="553" y="1171" type="curve"/>
      <point x="553" y="1218" type="line"/>
      <point x="52" y="1218" type="line"/>
      <point x="52" y="1171" type="line"/>
      <point x="208" y="1149"/>
      <point x="240" y="1126"/>
      <point x="240" y="1111" type="curve" smooth="yes"/>
      <point x="240" y="124" type="line" smooth="yes"/>
      <point x="240" y="-178"/>
      <point x="151" y="-247"/>
      <point x="83" y="-247" type="curve" smooth="yes"/>
      <point x="33" y="-247"/>
      <point x="-4" y="-236"/>
      <point x="-76" y="-186" type="curve"/>
      <point x="-112" y="-199"/>
      <point x="-199" y="-272"/>
      <point x="-199" y="-294" type="curve" smooth="yes"/>
      <point x="-199" y="-318"/>
      <point x="-110" y="-374"/>
      <point x="-24" y="-374" type="curve" smooth="yes"/>
      <point x="33" y="-374"/>
      <point x="143" y="-339"/>
      <point x="213" y="-282" type="curve" smooth="yes"/>
      <point x="314" y="-200"/>
      <point x="413" y="-107"/>
      <point x="413" y="193" type="curve" smooth="yes"/>
      <point x="413" y="1111" type="line" smooth="yes"/>
      <point x="413" y="1129"/>
      <point x="465" y="1152"/>
    </contour>
  </outline>
</glyph>
<glyph name="L" format="2">
  <advance width="961"/>
  <unicode hex="004C"/>
  <outline>
    <contour>
      <point x="932" y="247" type="curve"/>
      <point x="916" y="254"/>
      <point x="900" y="260"/>
      <point x="884" y="266" type="curve"/>
      <point x="829" y="116"/>
      <point x="793" y="93"/>
      <point x="673" y="93" type="curve" smooth="yes"/>
      <point x="540" y="93" type="line" smooth="yes"/>
      <point x="398" y="93"/>
      <point x="359" y="119"/>
      <point x="359" y="164" type="curve" smooth="yes"/>
      <point x="359" y="1111" type="line" smooth="yes"/>
      <point x="359" y="1129"/>
      <point x="412" y="1152"/>
      <point x="499" y="1171" type="curve"/>
      <point x="499" y="1218" type="line"/>
      <point x="47" y="1218" type="line"/>
      <point x="47" y="1171" type="line"/>
      <point x="140" y="1152"/>
      <point x="186" y="1126"/>
      <point x="186" y="1111" type="curve" smooth="yes"/>
      <point x="186" y="106" type="line" smooth="yes"/>
      <point x="186" y="89"/>
      <point x="134" y="65"/>
      <point x="47" y="47" type="curve"/>
      <point x="47" y="0" type="line"/>
      <point x="892" y="0" type="line"/>
      <point x="902" y="38"/>
      <point x="922" y="136"/>
    </contour>
  </outline>
</glyph>
<glyph name="O" format="2">
  <advance width="1203"/>
  <unicode hex="004F"/>
  <outline>
    <contour>
      <point x="1118" y="626" type="curve" smooth="yes"/>
      <point x="1118" y="941"/>
      <point x="946" y="1247"/>
      <point x="620" y="1247" type="curve" smooth="yes"/>
      <point x="308" y="1247"/>
      <point x="66" y="943"/>
      <point x="66" y="592" type="curve" smooth="yes"/>
      <point x="66" y="267"/>
      <point x="249" y="-29"/>
      <point x="564" y="-29" type="curve" smooth="yes"/>
      <point x="863" y="-29"/>
      <point x="1118" y="276"/>
    </contour>
    <contour>
      <point x="949" y="608" type="curve" smooth="yes"/>
      <point x="949" y="267"/>
      <point x="801" y="90"/>
      <point x="595" y="90" type="curve" smooth="yes"/>
      <point x="400" y="90"/>
      <point x="235" y="331"/>
      <point x="235" y="620" type="curve" smooth="yes"/>
      <point x="235" y="935"/>
      <point x="366" y="1133"/>
      <point x="588" y="1133" type="curve" smooth="yes"/>
      <point x="804" y="1133"/>
      <point x="949" y="875"/>
    </contour>
  </outline>
</glyph>
<glyph name="Q" format="2">
  <advance width="1203"/>
  <unicode hex="0051"/>
  <outline>
    <contour>
      <point x="1272" y="-114" type="curve"/>
      <point x="1262" y="-102"/>
      <point x="1252" y="-88"/>
      <point x="1242" y="-75" type="curve"/>
      <point x="1165" y="-132"/>
      <point x="1132" y="-149"/>
      <point x="1100" y="-149" type="curve" smooth="yes"/>
      <point x="1001" y="-149"/>
      <point x="881" y="-45"/>
      <point x="757" y="14" type="curve"/>
      <point x="964" y="110"/>
      <point x="1118" y="354"/>
      <point x="1118" y="626" type="curve" smooth="yes"/>
      <point x="1118" y="941"/>
      <point x="945" y="1247"/>
      <point x="620" y="1247" type="curve" smooth="yes"/>
      <point x="307" y="1247"/>
      <point x="65" y="943"/>
      <point x="65" y="592" type="curve" smooth="yes"/>
      <point x="65" y="253"/>
      <point x="270" y="-29"/>
      <point x="563" y="-29" type="curve" smooth="yes"/>
      <point x="578" y="-29"/>
      <point x="594" y="-28"/>
      <point x="609" y="-26" type="curve"/>
      <point x="771" y="-116"/>
      <point x="929" y="-299"/>
      <point x="1094" y="-299" type="curve" smooth="yes"/>
      <point x="1134" y="-299"/>
      <point x="1211" y="-226"/>
    </contour>
    <contour>
      <point x="948" y="608" type="curve" smooth="yes"/>
      <point x="948" y="267"/>
      <point x="800" y="90"/>
      <point x="595" y="90" type="curve" smooth="yes"/>
      <point x="399" y="90"/>
      <point x="235" y="331"/>
      <point x="235" y="620" type="curve" smooth="yes"/>
      <point x="235" y="935"/>
      <point x="365" y="1133"/>
      <point x="587" y="1133" type="curve" smooth="yes"/>
      <point x="803" y="1133"/>
      <point x="948" y="875"/>
    </contour>
  </outline>
</glyph>
<glyph name="V" format="2">
  <advance width="1300"/>
  <unicode hex="0056"/>
  <outline>
    <contour>
      <point x="1261" y="1171" type="curve"/>
      <point x="1261" y="1218" type="line"/>
      <point x="854" y="1218" type="line"/>
      <point x="854" y="1171" type="line"/>
      <point x="947" y="1159"/>
      <point x="991" y="1148"/>
      <point x="991" y="1120" type="curve" smooth="yes"/>
      <point x="991" y="1116"/>
      <point x="991" y="1112"/>
      <point x="989" y="1107" type="curve" smooth="yes"/>
      <point x="883" y="808"/>
      <point x="776" y="510"/>
      <point x="670" y="212" type="curve"/>
      <point x="557" y="511"/>
      <point x="444" y="810"/>
      <point x="332" y="1109" type="curve" smooth="yes"/>
      <point x="330" y="1114"/>
      <point x="329" y="1119"/>
      <point x="329" y="1123" type="curve" smooth="yes"/>
      <point x="329" y="1150"/>
      <point x="366" y="1164"/>
      <point x="455" y="1171" type="curve"/>
      <point x="455" y="1218" type="line"/>
      <point x="18" y="1218" type="line"/>
      <point x="18" y="1171" type="line"/>
      <point x="100" y="1160"/>
      <point x="141" y="1141"/>
      <point x="154" y="1107" type="curve" smooth="yes"/>
      <point x="298" y="728"/>
      <point x="441" y="349"/>
      <point x="585" y="-29" type="curve"/>
      <point x="624" y="-19"/>
      <point x="720" y="4"/>
      <point x="740" y="61" type="curve" smooth="yes"/>
      <point x="1110" y="1107" type="line" smooth="yes"/>
      <point x="1123" y="1143"/>
      <point x="1174" y="1154"/>
    </contour>
  </outline>
</glyph>
<glyph name="bracketleft" format="2">
  <advance width="625"/>
  <unicode hex="005B"/>
  <outline>
    <contour>
      <point x="588" y="-236" type="curve"/>
      <point x="576" y="-227"/>
      <point x="564" y="-216"/>
      <point x="553" y="-207" type="curve"/>
      <point x="286" y="-207" type="line"/>
      <point x="286" y="1430" type="line"/>
      <point x="559" y="1430" type="line"/>
      <point x="566" y="1445"/>
      <point x="580" y="1488"/>
      <point x="586" y="1520" type="curve"/>
      <point x="553" y="1547" type="line"/>
      <point x="133" y="1547" type="line"/>
      <point x="133" y="-324" type="line"/>
      <point x="559" y="-324" type="line"/>
      <point x="568" y="-302"/>
      <point x="582" y="-261"/>
    </contour>
  </outline>
</glyph>
<glyph name="backslash" format="2">
  <advance width="934"/>
  <unicode hex="005C"/>
  <outline>
    <contour>
      <point x="882" y="-298" type="curve"/>
      <point x="656" y="300"/>
      <point x="431" y="899"/>
      <point x="205" y="1498" type="curve"/>
      <point x="169" y="1520"/>
      <point x="126" y="1538"/>
      <point x="88" y="1547" type="curve"/>
      <point x="50" y="1524" type="line"/>
      <point x="729" y="-273" type="line"/>
      <point x="752" y="-290"/>
      <point x="816" y="-314"/>
      <point x="847" y="-324" type="curve"/>
      <point x="859" y="-315"/>
      <point x="871" y="-307"/>
    </contour>
  </outline>
</glyph>
<glyph name="bracketright" format="2">
  <advance width="625"/>
  <unicode hex="005D"/>
  <outline>
    <contour>
      <point x="490" y="-324" type="line"/>
      <point x="490" y="1547" type="line"/>
      <point x="64" y="1547" type="line"/>
      <point x="55" y="1526"/>
      <point x="40" y="1484"/>
      <point x="36" y="1456" type="curve"/>
      <point x="48" y="1448"/>
      <point x="60" y="1438"/>
      <point x="71" y="1430" type="curve"/>
      <point x="337" y="1430" type="line"/>
      <point x="337" y="-207" type="line"/>
      <point x="64" y="-207" type="line"/>
      <point x="55" y="-223"/>
      <point x="42" y="-264"/>
      <point x="38" y="-294" type="curve"/>
      <point x="71" y="-324" type="line"/>
    </contour>
  </outline>
</glyph>
<glyph name="asciicircum" format="2">
  <advance width="980"/>
  <unicode hex="005E"/>
  <outline>
    <contour>
      <point x="881" y="614" type="curve"/>
      <point x="768" y="909"/>
      <point x="653" y="1204"/>
      <point x="539" y="1499" type="curve"/>
      <point x="503" y="1481"/>
      <point x="442" y="1444"/>
      <point x="410" y="1414" type="curve"/>
      <point x="97" y="572" type="line"/>
      <point x="119" y="546" type="line"/>
      <point x="145" y="559"/>
      <point x="197" y="588"/>
      <point x="224" y="614" type="curve"/>
      <point x="467" y="1272" type="line"/>
      <point x="743" y="572" type="line"/>
      <point x="779" y="546" type="line"/>
      <point x="822" y="567"/>
      <point x="849" y="584"/>
    </contour>
  </outline>
</glyph>
<glyph name="underscore" format="2">
  <advance width="878"/>
  <unicode hex="005F"/>
  <outline>
    <contour>
      <point x="853" y="-152" type="curve"/>
      <point x="846" y="-143"/>
      <point x="837" y="-135"/>
      <point x="829" y="-127" type="curve"/>
      <point x="57" y="-127" type="line"/>
      <point x="45" y="-153"/>
      <point x="30" y="-190"/>
      <point x="23" y="-216" type="curve"/>
      <point x="49" y="-244" type="line"/>
      <point x="822" y="-244" type="line"/>
      <point x="833" y="-220"/>
      <point x="847" y="-179"/>
    </contour>
  </outline>
</glyph>
<glyph name="grave" format="2">
  <advance width="635"/>
  <unicode hex="0060"/>
  <outline>
    <contour>
      <point x="428" y="1043" type="curve"/>
      <point x="199" y="1444" type="line"/>
      <point x="167" y="1441"/>
      <point x="68" y="1423"/>
      <point x="43" y="1418" type="curve"/>
      <point x="20" y="1375" type="line"/>
      <point x="368" y="1011" type="line"/>
      <point x="391" y="1017"/>
      <point x="415" y="1033"/>
    </contour>
  </outline>
</glyph>
<glyph name="b" format="2">
  <advance width="1023"/>
  <unicode hex="0062"/>
  <outline>
    <contour>
      <point x="938" y="479" type="curve" smooth="yes"/>
      <point x="938" y="758"/>
      <point x="812" y="928"/>
      <point x="632" y="928" type="curve" smooth="yes"/>
      <point x="559" y="928"/>
      <point x="425" y="863"/>
      <point x="296" y="717" type="curve"/>
      <point x="296" y="1464" type="line"/>
      <point x="296" y="1464"/>
      <point x="269" y="1489"/>
      <point x="259" y="1499" type="curve"/>
      <point x="180" y="1459"/>
      <point x="100" y="1442"/>
      <point x="8" y="1421" type="curve"/>
      <point x="8" y="1377" type="line"/>
      <point x="114" y="1364"/>
      <point x="133" y="1366"/>
      <point x="133" y="1247" type="curve" smooth="yes"/>
      <point x="133" y="93" type="line"/>
      <point x="273" y="16"/>
      <point x="408" y="-29"/>
      <point x="461" y="-29" type="curve" smooth="yes"/>
      <point x="741" y="-29"/>
      <point x="938" y="254"/>
    </contour>
    <contour>
      <point x="790" y="396" type="curve" smooth="yes"/>
      <point x="790" y="247"/>
      <point x="710" y="104"/>
      <point x="557" y="104" type="curve" smooth="yes"/>
      <point x="513" y="104"/>
      <point x="399" y="126"/>
      <point x="296" y="199" type="curve"/>
      <point x="296" y="603" type="line"/>
      <point x="402" y="747"/>
      <point x="508" y="790"/>
      <point x="554" y="790" type="curve" smooth="yes"/>
      <point x="678" y="790"/>
      <point x="790" y="653"/>
    </contour>
  </outline>
</glyph>
<glyph name="d" format="2">
  <advance width="1052"/>
  <unicode hex="0064"/>
  <outline>
    <contour>
      <point x="1039" y="87" type="curve"/>
      <point x="1033" y="102"/>
      <point x="1028" y="118"/>
      <point x="1023" y="134" type="curve"/>
      <point x="974" y="115"/>
      <point x="946" y="107"/>
      <point x="929" y="107" type="curve" smooth="yes"/>
      <point x="901" y="107"/>
      <point x="887" y="133"/>
      <point x="887" y="254" type="curve" smooth="yes"/>
      <point x="887" y="1468" type="line"/>
      <point x="856" y="1499" type="line"/>
      <point x="789" y="1478"/>
      <point x="698" y="1450"/>
      <point x="585" y="1436" type="curve"/>
      <point x="585" y="1392" type="line"/>
      <point x="721" y="1383"/>
      <point x="724" y="1368"/>
      <point x="724" y="1226" type="curve" smooth="yes"/>
      <point x="724" y="868" type="line"/>
      <point x="654" y="919"/>
      <point x="596" y="928"/>
      <point x="535" y="928" type="curve" smooth="yes"/>
      <point x="263" y="928"/>
      <point x="75" y="659"/>
      <point x="75" y="429" type="curve" smooth="yes"/>
      <point x="75" y="142"/>
      <point x="257" y="-29"/>
      <point x="407" y="-29" type="curve" smooth="yes"/>
      <point x="538" y="-29"/>
      <point x="624" y="39"/>
      <point x="726" y="158" type="curve"/>
      <point x="736" y="24"/>
      <point x="764" y="-29"/>
      <point x="808" y="-29" type="curve" smooth="yes"/>
      <point x="844" y="-29"/>
      <point x="919" y="8"/>
    </contour>
    <contour>
      <point x="724" y="253" type="line"/>
      <point x="644" y="177"/>
      <point x="567" y="108"/>
      <point x="481" y="108" type="curve" smooth="yes"/>
      <point x="375" y="108"/>
      <point x="238" y="247"/>
      <point x="238" y="463" type="curve" smooth="yes"/>
      <point x="238" y="701"/>
      <point x="350" y="817"/>
      <point x="508" y="817" type="curve" smooth="yes"/>
      <point x="600" y="817"/>
      <point x="681" y="775"/>
      <point x="724" y="701" type="curve"/>
      <point x="724" y="269" type="line"/>
    </contour>
  </outline>
</glyph>
<glyph name="f" format="2">
  <advance width="631"/>
  <unicode hex="0066"/>
  <outline>
    <contour>
      <point x="808" y="1406" type="curve" smooth="yes"/>
      <point x="808" y="1428"/>
      <point x="703" y="1499"/>
      <point x="615" y="1499" type="curve" smooth="yes"/>
      <point x="560" y="1499"/>
      <point x="454" y="1464"/>
      <point x="379" y="1401" type="curve" smooth="yes"/>
      <point x="276" y="1315"/>
      <point x="191" y="1215"/>
      <point x="191" y="929" type="curve" smooth="yes"/>
      <point x="191" y="899" type="line"/>
      <point x="118" y="899" type="line"/>
      <point x="42" y="830" type="line"/>
      <point x="64" y="801" type="line"/>
      <point x="191" y="801" type="line"/>
      <point x="191" y="104" type="line" smooth="yes"/>
      <point x="191" y="89"/>
      <point x="145" y="63"/>
      <point x="57" y="47" type="curve"/>
      <point x="57" y="0" type="line"/>
      <point x="557" y="0" type="line"/>
      <point x="557" y="47" type="line"/>
      <point x="405" y="75"/>
      <point x="355" y="89"/>
      <point x="355" y="104" type="curve" smooth="yes"/>
      <point x="355" y="801" type="line"/>
      <point x="458" y="801"/>
      <point x="508" y="783"/>
      <point x="538" y="768" type="curve"/>
      <point x="562" y="780"/>
      <point x="609" y="832"/>
      <point x="633" y="869" type="curve"/>
      <point x="624" y="879"/>
      <point x="613" y="889"/>
      <point x="603" y="899" type="curve"/>
      <point x="355" y="899" type="line"/>
      <point x="355" y="982" type="line" smooth="yes"/>
      <point x="355" y="1297"/>
      <point x="445" y="1372"/>
      <point x="512" y="1372" type="curve" smooth="yes"/>
      <point x="548" y="1372"/>
      <point x="616" y="1345"/>
      <point x="677" y="1287" type="curve"/>
      <point x="715" y="1305"/>
      <point x="808" y="1380"/>
    </contour>
  </outline>
</glyph>
<glyph name="i" format="2">
  <advance width="551"/>
  <unicode hex="0069"/>
  <outline>
    <contour>
      <point x="395" y="1219" type="curve" smooth="yes"/>
      <point x="395" y="1282"/>
      <point x="361" y="1314"/>
      <point x="302" y="1314" type="curve" smooth="yes"/>
      <point x="235" y="1314"/>
      <point x="180" y="1256"/>
      <point x="180" y="1180" type="curve" smooth="yes"/>
      <point x="180" y="1118"/>
      <point x="212" y="1084"/>
      <point x="272" y="1084" type="curve" smooth="yes"/>
      <point x="342" y="1084"/>
      <point x="395" y="1144"/>
    </contour>
    <contour>
      <point x="499" y="0" type="line"/>
      <point x="499" y="47" type="line"/>
      <point x="405" y="65"/>
      <point x="364" y="91"/>
      <point x="364" y="106" type="curve" smooth="yes"/>
      <point x="364" y="928" type="line"/>
      <point x="325" y="928" type="line"/>
      <point x="255" y="896"/>
      <point x="154" y="867"/>
      <point x="67" y="852" type="curve"/>
      <point x="67" y="808" type="line"/>
      <point x="204" y="795"/>
      <point x="201" y="776"/>
      <point x="201" y="643" type="curve" smooth="yes"/>
      <point x="201" y="106" type="line" smooth="yes"/>
      <point x="201" y="89"/>
      <point x="154" y="65"/>
      <point x="67" y="47" type="curve"/>
      <point x="67" y="0" type="line"/>
    </contour>
  </outline>
</glyph>
<glyph name="j" format="2">
  <advance width="527"/>
  <unicode hex="006A"/>
  <outline>
    <contour>
      <point x="390" y="1219" type="curve" smooth="yes"/>
      <point x="390" y="1282"/>
      <point x="356" y="1314"/>
      <point x="298" y="1314" type="curve" smooth="yes"/>
      <point x="230" y="1314"/>
      <point x="176" y="1256"/>
      <point x="176" y="1180" type="curve" smooth="yes"/>
      <point x="176" y="1118"/>
      <point x="208" y="1084"/>
      <point x="269" y="1084" type="curve" smooth="yes"/>
      <point x="338" y="1084"/>
      <point x="390" y="1144"/>
    </contour>
    <contour>
      <point x="359" y="928" type="line"/>
      <point x="318" y="928" type="line"/>
      <point x="232" y="894"/>
      <point x="175" y="871"/>
      <point x="62" y="852" type="curve"/>
      <point x="62" y="808" type="line"/>
      <point x="197" y="793"/>
      <point x="196" y="776"/>
      <point x="196" y="643" type="curve" smooth="yes"/>
      <point x="196" y="42" type="line" smooth="yes"/>
      <point x="196" y="-266"/>
      <point x="120" y="-344"/>
      <point x="46" y="-344" type="curve" smooth="yes"/>
      <point x="-2" y="-344"/>
      <point x="-52" y="-332"/>
      <point x="-95" y="-293" type="curve"/>
      <point x="-132" y="-311"/>
      <point x="-227" y="-386"/>
      <point x="-227" y="-411" type="curve" smooth="yes"/>
      <point x="-227" y="-433"/>
      <point x="-136" y="-482"/>
      <point x="-52" y="-482" type="curve" smooth="yes"/>
      <point x="1" y="-482"/>
      <point x="98" y="-439"/>
      <point x="168" y="-384" type="curve" smooth="yes"/>
      <point x="272" y="-301"/>
      <point x="359" y="-199"/>
      <point x="359" y="97" type="curve" smooth="yes"/>
    </contour>
  </outline>
</glyph>
<glyph name="l" format="2">
  <advance width="551"/>
  <unicode hex="006C"/>
  <outline>
    <contour>
      <point x="509" y="0" type="line"/>
      <point x="509" y="47" type="line"/>
      <point x="403" y="65"/>
      <point x="364" y="87"/>
      <point x="364" y="106" type="curve" smooth="yes"/>
      <point x="364" y="1464" type="line"/>
      <point x="328" y="1499" type="line"/>
      <point x="244" y="1457"/>
      <point x="167" y="1440"/>
      <point x="67" y="1421" type="curve"/>
      <point x="67" y="1377" type="line"/>
      <point x="175" y="1364"/>
      <point x="201" y="1364"/>
      <point x="201" y="1247" type="curve" smooth="yes"/>
      <point x="201" y="106" type="line" smooth="yes"/>
      <point x="201" y="85"/>
      <point x="168" y="67"/>
      <point x="57" y="47" type="curve"/>
      <point x="57" y="0" type="line"/>
    </contour>
  </outline>
</glyph>
<glyph name="n" format="2">
  <advance width="1110"/>
  <unicode hex="006E"/>
  <outline>
    <contour>
      <point x="1082" y="0" type="line"/>
      <point x="1082" y="47" type="line"/>
      <point x="980" y="73"/>
      <point x="947" y="89"/>
      <point x="947" y="106" type="curve" smooth="yes"/>
      <point x="947" y="709" type="line" smooth="yes"/>
      <point x="947" y="862"/>
      <point x="844" y="928"/>
      <point x="733" y="928" type="curve" smooth="yes"/>
      <point x="631" y="928"/>
      <point x="467" y="836"/>
      <point x="346" y="673" type="curve"/>
      <point x="335" y="893" type="line"/>
      <point x="300" y="928" type="line"/>
      <point x="223" y="893"/>
      <point x="146" y="865"/>
      <point x="52" y="852" type="curve"/>
      <point x="52" y="808" type="line"/>
      <point x="183" y="793"/>
      <point x="186" y="783"/>
      <point x="186" y="683" type="curve" smooth="yes"/>
      <point x="186" y="106" type="line" smooth="yes"/>
      <point x="186" y="85"/>
      <point x="137" y="69"/>
      <point x="52" y="47" type="curve"/>
      <point x="52" y="0" type="line"/>
      <point x="484" y="0" type="line"/>
      <point x="484" y="47" type="line"/>
      <point x="401" y="65"/>
      <point x="350" y="87"/>
      <point x="350" y="106" type="curve" smooth="yes"/>
      <point x="350" y="548" type="line"/>
      <point x="475" y="729"/>
      <point x="588" y="792"/>
      <point x="664" y="792" type="curve" smooth="yes"/>
      <point x="752" y="792"/>
      <point x="784" y="757"/>
      <point x="784" y="603" type="curve" smooth="yes"/>
      <point x="784" y="106" type="line" smooth="yes"/>
      <point x="784" y="89"/>
      <point x="743" y="71"/>
      <point x="650" y="47" type="curve"/>
      <point x="650" y="0" type="line"/>
    </contour>
  </outline>
</glyph>
<glyph name="p" format="2">
  <advance width="1067"/>
  <unicode hex="0070"/>
  <outline>
    <contour>
      <point x="991" y="477" type="curve" smooth="yes"/>
      <point x="991" y="764"/>
      <point x="858" y="928"/>
      <point x="681" y="928" type="curve" smooth="yes"/>
      <point x="607" y="928"/>
      <point x="476" y="865"/>
      <point x="344" y="716" type="curve"/>
      <point x="335" y="893" type="line"/>
      <point x="300" y="928" type="line"/>
      <point x="219" y="893"/>
      <point x="153" y="871"/>
      <point x="52" y="852" type="curve"/>
      <point x="52" y="808" type="line"/>
      <point x="175" y="802"/>
      <point x="186" y="779"/>
      <point x="186" y="683" type="curve" smooth="yes"/>
      <point x="186" y="-357" type="line" smooth="yes"/>
      <point x="186" y="-379"/>
      <point x="137" y="-396"/>
      <point x="52" y="-417" type="curve"/>
      <point x="52" y="-464" type="line"/>
      <point x="514" y="-464" type="line"/>
      <point x="514" y="-417" type="line"/>
      <point x="392" y="-398"/>
      <point x="350" y="-377"/>
      <point x="350" y="-357" type="curve" smooth="yes"/>
      <point x="350" y="92" type="line"/>
      <point x="445" y="12"/>
      <point x="543" y="-29"/>
      <point x="619" y="-29" type="curve" smooth="yes"/>
      <point x="803" y="-29"/>
      <point x="991" y="247"/>
    </contour>
    <contour>
      <point x="842" y="412" type="curve" smooth="yes"/>
      <point x="842" y="206"/>
      <point x="745" y="104"/>
      <point x="610" y="104" type="curve" smooth="yes"/>
      <point x="543" y="104"/>
      <point x="467" y="125"/>
      <point x="350" y="209" type="curve"/>
      <point x="350" y="603" type="line"/>
      <point x="463" y="754"/>
      <point x="558" y="798"/>
      <point x="605" y="798" type="curve" smooth="yes"/>
      <point x="728" y="798"/>
      <point x="842" y="641"/>
    </contour>
  </outline>
</glyph>
<glyph name="q" format="2">
  <advance width="1039"/>
  <unicode hex="0071"/>
  <outline>
    <contour>
      <point x="1019" y="-464" type="line"/>
      <point x="1019" y="-417" type="line"/>
      <point x="920" y="-398"/>
      <point x="886" y="-377"/>
      <point x="886" y="-357" type="curve" smooth="yes"/>
      <point x="886" y="689" type="line" smooth="yes"/>
      <point x="886" y="806"/>
      <point x="916" y="897"/>
      <point x="916" y="897" type="curve"/>
      <point x="884" y="928" type="line"/>
      <point x="860" y="904"/>
      <point x="806" y="861"/>
      <point x="762" y="835" type="curve"/>
      <point x="673" y="915"/>
      <point x="606" y="928"/>
      <point x="535" y="928" type="curve" smooth="yes"/>
      <point x="481" y="928"/>
      <point x="397" y="902"/>
      <point x="324" y="861" type="curve" smooth="yes"/>
      <point x="233" y="809"/>
      <point x="75" y="655"/>
      <point x="75" y="429" type="curve" smooth="yes"/>
      <point x="75" y="142"/>
      <point x="257" y="-29"/>
      <point x="403" y="-29" type="curve" smooth="yes"/>
      <point x="533" y="-29"/>
      <point x="621" y="38"/>
      <point x="722" y="155" type="curve"/>
      <point x="722" y="-357" type="line" smooth="yes"/>
      <point x="722" y="-379"/>
      <point x="679" y="-398"/>
      <point x="557" y="-417" type="curve"/>
      <point x="557" y="-464" type="line"/>
    </contour>
    <contour>
      <point x="480" y="108" type="curve" smooth="yes"/>
      <point x="373" y="108"/>
      <point x="238" y="245"/>
      <point x="238" y="465" type="curve" smooth="yes"/>
      <point x="238" y="702"/>
      <point x="366" y="817"/>
      <point x="507" y="817" type="curve" smooth="yes"/>
      <point x="595" y="817"/>
      <point x="680" y="773"/>
      <point x="722" y="700" type="curve"/>
      <point x="722" y="253" type="line"/>
      <point x="643" y="178"/>
      <point x="566" y="108"/>
    </contour>
  </outline>
</glyph>
<glyph name="r" format="2">
  <advance width="808"/>
  <unicode hex="0072"/>
  <outline>
    <contour>
      <point x="768" y="891" type="curve" smooth="yes"/>
      <point x="721" y="918"/>
      <point x="670" y="928"/>
      <point x="626" y="928" type="curve" smooth="yes"/>
      <point x="515" y="928"/>
      <point x="417" y="824"/>
      <point x="348" y="689" type="curve"/>
      <point x="335" y="893" type="line"/>
      <point x="300" y="928" type="line"/>
      <point x="227" y="893"/>
      <point x="147" y="873"/>
      <point x="52" y="852" type="curve"/>
      <point x="52" y="808" type="line"/>
      <point x="124" y="804"/>
      <point x="146" y="799"/>
      <point x="164" y="781" type="curve" smooth="yes"/>
      <point x="175" y="770"/>
      <point x="186" y="744"/>
      <point x="186" y="659" type="curve" smooth="yes"/>
      <point x="186" y="106" type="line" smooth="yes"/>
      <point x="186" y="85"/>
      <point x="137" y="67"/>
      <point x="52" y="47" type="curve"/>
      <point x="52" y="0" type="line"/>
      <point x="516" y="0" type="line"/>
      <point x="516" y="47" type="line"/>
      <point x="394" y="65"/>
      <point x="350" y="87"/>
      <point x="350" y="106" type="curve" smooth="yes"/>
      <point x="350" y="494" type="line"/>
      <point x="415" y="703"/>
      <point x="511" y="784"/>
      <point x="567" y="784" type="curve" smooth="yes"/>
      <point x="619" y="784"/>
      <point x="661" y="739"/>
      <point x="675" y="635" type="curve"/>
      <point x="722" y="635" type="line"/>
      <point x="747" y="688"/>
      <point x="776" y="803"/>
      <point x="776" y="860" type="curve" smooth="yes"/>
      <point x="776" y="876"/>
      <point x="774" y="887"/>
    </contour>
  </outline>
</glyph>
<glyph name="u" format="2">
  <advance width="1068"/>
  <unicode hex="0075"/>
  <outline>
    <contour>
      <point x="1054" y="85" type="curve"/>
      <point x="1049" y="101"/>
      <point x="1045" y="117"/>
      <point x="1041" y="134" type="curve"/>
      <point x="996" y="115"/>
      <point x="967" y="107"/>
      <point x="947" y="107" type="curve" smooth="yes"/>
      <point x="910" y="107"/>
      <point x="904" y="144"/>
      <point x="904" y="251" type="curve" smooth="yes"/>
      <point x="904" y="889" type="line"/>
      <point x="873" y="928" type="line"/>
      <point x="797" y="904"/>
      <point x="707" y="877"/>
      <point x="606" y="865" type="curve"/>
      <point x="606" y="821" type="line"/>
      <point x="725" y="815"/>
      <point x="741" y="799"/>
      <point x="741" y="683" type="curve" smooth="yes"/>
      <point x="741" y="253" type="line"/>
      <point x="629" y="138"/>
      <point x="545" y="97"/>
      <point x="467" y="97" type="curve" smooth="yes"/>
      <point x="378" y="97"/>
      <point x="326" y="148"/>
      <point x="326" y="324" type="curve" smooth="yes"/>
      <point x="326" y="889" type="line"/>
      <point x="297" y="928" type="line"/>
      <point x="207" y="894"/>
      <point x="138" y="877"/>
      <point x="38" y="865" type="curve"/>
      <point x="38" y="821" type="line"/>
      <point x="158" y="809"/>
      <point x="162" y="806"/>
      <point x="162" y="683" type="curve" smooth="yes"/>
      <point x="162" y="270" type="line" smooth="yes"/>
      <point x="162" y="28"/>
      <point x="276" y="-29"/>
      <point x="397" y="-29" type="curve" smooth="yes"/>
      <point x="479" y="-29"/>
      <point x="579" y="-1"/>
      <point x="741" y="155" type="curve"/>
      <point x="750" y="22"/>
      <point x="782" y="-29"/>
      <point x="828" y="-29" type="curve" smooth="yes"/>
      <point x="860" y="-29"/>
      <point x="958" y="23"/>
    </contour>
  </outline>
</glyph>
<glyph name="v" format="2">
  <advance width="988"/>
  <unicode hex="0076"/>
  <outline>
    <contour>
      <point x="969" y="852" type="curve"/>
      <point x="969" y="899" type="line"/>
      <point x="655" y="899" type="line"/>
      <point x="655" y="852" type="line"/>
      <point x="730" y="840"/>
      <point x="755" y="830"/>
      <point x="755" y="806" type="curve" smooth="yes"/>
      <point x="755" y="800"/>
      <point x="754" y="794"/>
      <point x="751" y="786" type="curve" smooth="yes"/>
      <point x="532" y="193" type="line"/>
      <point x="455" y="391"/>
      <point x="377" y="588"/>
      <point x="299" y="786" type="curve" smooth="yes"/>
      <point x="296" y="794"/>
      <point x="294" y="801"/>
      <point x="294" y="807" type="curve" smooth="yes"/>
      <point x="294" y="832"/>
      <point x="325" y="841"/>
      <point x="406" y="852" type="curve"/>
      <point x="406" y="899" type="line"/>
      <point x="18" y="899" type="line"/>
      <point x="18" y="852" type="line"/>
      <point x="82" y="837"/>
      <point x="112" y="822"/>
      <point x="124" y="786" type="curve"/>
      <point x="233" y="514"/>
      <point x="341" y="242"/>
      <point x="450" y="-29" type="curve"/>
      <point x="489" y="-19"/>
      <point x="566" y="4"/>
      <point x="588" y="61" type="curve" smooth="yes"/>
      <point x="862" y="786" type="line" smooth="yes"/>
      <point x="876" y="824"/>
      <point x="891" y="833"/>
    </contour>
  </outline>
</glyph>
<glyph name="braceleft" format="2">
  <advance width="675"/>
  <unicode hex="007B"/>
  <outline>
    <contour>
      <point x="639" y="1496" type="curve"/>
      <point x="611" y="1547" type="line"/>
      <point x="413" y="1460"/>
      <point x="283" y="1332"/>
      <point x="283" y="1158" type="curve" smooth="yes"/>
      <point x="283" y="1003"/>
      <point x="322" y="988"/>
      <point x="322" y="835" type="curve" smooth="yes"/>
      <point x="322" y="738"/>
      <point x="246" y="655"/>
      <point x="96" y="615" type="curve"/>
      <point x="112" y="558" type="line"/>
      <point x="150" y="564"/>
      <point x="139" y="564"/>
      <point x="175" y="564" type="curve" smooth="yes"/>
      <point x="269" y="564"/>
      <point x="322" y="513"/>
      <point x="322" y="408" type="curve" smooth="yes"/>
      <point x="322" y="250"/>
      <point x="283" y="215"/>
      <point x="283" y="67" type="curve" smooth="yes"/>
      <point x="283" y="-120"/>
      <point x="383" y="-218"/>
      <point x="604" y="-305" type="curve"/>
      <point x="629" y="-240" type="line"/>
      <point x="492" y="-164"/>
      <point x="462" y="-96"/>
      <point x="462" y="39" type="curve" smooth="yes"/>
      <point x="462" y="164"/>
      <point x="502" y="220"/>
      <point x="502" y="372" type="curve" smooth="yes"/>
      <point x="502" y="514"/>
      <point x="453" y="608"/>
      <point x="323" y="631" type="curve"/>
      <point x="432" y="679"/>
      <point x="502" y="785"/>
      <point x="502" y="893" type="curve" smooth="yes"/>
      <point x="502" y="1039"/>
      <point x="462" y="1066"/>
      <point x="462" y="1214" type="curve" smooth="yes"/>
      <point x="462" y="1339"/>
      <point x="538" y="1433"/>
    </contour>
  </outline>
</glyph>
<glyph name="bar" format="2">
  <advance width="468"/>
  <unicode hex="007C"/>
  <outline>
    <contour>
      <point x="314" y="-376" type="curve"/>
      <point x="314" y="1592" type="line"/>
      <point x="278" y="1615" type="line"/>
      <point x="240" y="1605"/>
      <point x="208" y="1587"/>
      <point x="171" y="1566" type="curve"/>
      <point x="171" y="-404" type="line"/>
      <point x="208" y="-428" type="line"/>
      <point x="240" y="-417"/>
      <point x="290" y="-397"/>
    </contour>
  </outline>
</glyph>
<glyph name="braceright" format="2">
  <advance width="675"/>
  <unicode hex="007D"/>
  <outline>
    <contour>
      <point x="580" y="627" type="curve"/>
      <point x="564" y="686" type="line"/>
      <point x="537" y="681"/>
      <point x="532" y="680"/>
      <point x="522" y="680" type="curve" smooth="yes"/>
      <point x="414" y="680"/>
      <point x="353" y="717"/>
      <point x="353" y="835" type="curve" smooth="yes"/>
      <point x="353" y="992"/>
      <point x="391" y="1028"/>
      <point x="391" y="1177" type="curve" smooth="yes"/>
      <point x="391" y="1362"/>
      <point x="292" y="1461"/>
      <point x="70" y="1547" type="curve"/>
      <point x="61" y="1525"/>
      <point x="53" y="1504"/>
      <point x="45" y="1482" type="curve"/>
      <point x="180" y="1408"/>
      <point x="213" y="1341"/>
      <point x="213" y="1204" type="curve" smooth="yes"/>
      <point x="213" y="1079"/>
      <point x="174" y="1022"/>
      <point x="174" y="871" type="curve" smooth="yes"/>
      <point x="174" y="728"/>
      <point x="221" y="635"/>
      <point x="353" y="610" type="curve"/>
      <point x="242" y="563"/>
      <point x="174" y="458"/>
      <point x="174" y="352" type="curve" smooth="yes"/>
      <point x="174" y="203"/>
      <point x="213" y="177"/>
      <point x="213" y="30" type="curve" smooth="yes"/>
      <point x="213" y="-96"/>
      <point x="135" y="-189"/>
      <point x="35" y="-252" type="curve"/>
      <point x="44" y="-270"/>
      <point x="54" y="-287"/>
      <point x="64" y="-305" type="curve"/>
      <point x="261" y="-218"/>
      <point x="391" y="-88"/>
      <point x="391" y="85" type="curve" smooth="yes"/>
      <point x="391" y="241"/>
      <point x="353" y="254"/>
      <point x="353" y="408" type="curve" smooth="yes"/>
      <point x="353" y="506"/>
      <point x="428" y="587"/>
    </contour>
  </outline>
</glyph>
<glyph name="asciitilde" format="2">
  <advance width="971"/>
  <unicode hex="007E"/>
  <outline>
    <contour>
      <point x="923" y="748" type="curve"/>
      <point x="871" y="773" type="line"/>
      <point x="818" y="667"/>
      <point x="762" y="618"/>
      <point x="701" y="618" type="curve" smooth="yes"/>
      <point x="597" y="618"/>
      <point x="461" y="773"/>
      <point x="342" y="773" type="curve" smooth="yes"/>
      <point x="218" y="773"/>
      <point x="103" y="612"/>
      <point x="47" y="485" type="curve"/>
      <point x="99" y="459" type="line"/>
      <point x="153" y="567"/>
      <point x="205" y="616"/>
      <point x="268" y="616" type="curve" smooth="yes"/>
      <point x="380" y="616"/>
      <point x="519" y="461"/>
      <point x="629" y="461" type="curve" smooth="yes"/>
      <point x="752" y="461"/>
      <point x="869" y="622"/>
    </contour>
  </outline>
</glyph>
<glyph name="exclamdown" format="2">
  <advance width="556"/>
  <unicode hex="00A1"/>
  <outline>
    <contour>
      <point x="396" y="815" type="curve" smooth="yes"/>
      <point x="396" y="890"/>
      <point x="361" y="929"/>
      <point x="291" y="929" type="curve" smooth="yes"/>
      <point x="210" y="929"/>
      <point x="148" y="861"/>
      <point x="148" y="771" type="curve" smooth="yes"/>
      <point x="148" y="695"/>
      <point x="186" y="655"/>
      <point x="253" y="655" type="curve" smooth="yes"/>
      <point x="330" y="655"/>
      <point x="396" y="725"/>
    </contour>
    <contour>
      <point x="377" y="-460" type="curve"/>
      <point x="323" y="528" type="line"/>
      <point x="297" y="545" type="line"/>
      <point x="263" y="536"/>
      <point x="244" y="528"/>
      <point x="218" y="508" type="curve"/>
      <point x="200" y="165"/>
      <point x="183" y="-179"/>
      <point x="166" y="-522" type="curve"/>
      <point x="209" y="-545" type="line"/>
      <point x="254" y="-529"/>
      <point x="325" y="-492"/>
    </contour>
  </outline>
</glyph>
<glyph name="cent" format="2">
  <advance width="949"/>
  <unicode hex="00A2"/>
  <outline>
    <contour>
      <point x="560" y="-5" type="curve"/>
      <point x="560" y="129" type="line"/>
      <point x="646" y="141"/>
      <point x="723" y="186"/>
      <point x="856" y="339" type="curve"/>
      <point x="842" y="355"/>
      <point x="827" y="370"/>
      <point x="813" y="385" type="curve"/>
      <point x="678" y="266"/>
      <point x="631" y="256"/>
      <point x="560" y="256" type="curve"/>
      <point x="560" y="931" type="line"/>
      <point x="665" y="917"/>
      <point x="722" y="851"/>
      <point x="744" y="811" type="curve"/>
      <point x="757" y="808"/>
      <point x="771" y="804"/>
      <point x="784" y="800" type="curve"/>
      <point x="805" y="831"/>
      <point x="843" y="924"/>
      <point x="843" y="959" type="curve" smooth="yes"/>
      <point x="843" y="962"/>
      <point x="843" y="964"/>
      <point x="843" y="966" type="curve"/>
      <point x="799" y="1014"/>
      <point x="689" y="1043"/>
      <point x="604" y="1043" type="curve" smooth="yes"/>
      <point x="589" y="1043"/>
      <point x="573" y="1042"/>
      <point x="560" y="1041" type="curve"/>
      <point x="560" y="1181" type="line"/>
      <point x="532" y="1204" type="line"/>
      <point x="492" y="1194"/>
      <point x="502" y="1193"/>
      <point x="466" y="1171" type="curve"/>
      <point x="466" y="1026" type="line"/>
      <point x="250" y="973"/>
      <point x="98" y="795"/>
      <point x="98" y="567" type="curve" smooth="yes"/>
      <point x="98" y="287"/>
      <point x="284" y="133"/>
      <point x="466" y="125" type="curve"/>
      <point x="466" y="-14" type="line"/>
      <point x="491" y="-40" type="line"/>
      <point x="522" y="-30"/>
      <point x="536" y="-25"/>
    </contour>
    <contour>
      <point x="259" y="596" type="curve" smooth="yes"/>
      <point x="259" y="804"/>
      <point x="354" y="906"/>
      <point x="466" y="929" type="curve"/>
      <point x="466" y="269" type="line"/>
      <point x="349" y="305"/>
      <point x="259" y="416"/>
    </contour>
  </outline>
</glyph>
<glyph name="sterling" format="2">
  <advance width="949"/>
  <unicode hex="00A3"/>
  <outline>
    <contour>
      <point x="645" y="585" type="line"/>
      <point x="619" y="609" type="line"/>
      <point x="370" y="609" type="line"/>
      <point x="363" y="677"/>
      <point x="360" y="736"/>
      <point x="360" y="787" type="curve" smooth="yes"/>
      <point x="360" y="1066"/>
      <point x="457" y="1094"/>
      <point x="541" y="1094" type="curve" smooth="yes"/>
      <point x="668" y="1094"/>
      <point x="746" y="1019"/>
      <point x="765" y="860" type="curve"/>
      <point x="816" y="860" type="line"/>
      <point x="831" y="909"/>
      <point x="852" y="1061"/>
      <point x="854" y="1127" type="curve"/>
      <point x="734" y="1187"/>
      <point x="672" y="1194"/>
      <point x="604" y="1194" type="curve" smooth="yes"/>
      <point x="323" y="1194"/>
      <point x="184" y="991"/>
      <point x="184" y="661" type="curve" smooth="yes"/>
      <point x="184" y="644"/>
      <point x="184" y="626"/>
      <point x="185" y="609" type="curve"/>
      <point x="82" y="609" type="line"/>
      <point x="74" y="589"/>
      <point x="64" y="560"/>
      <point x="58" y="541" type="curve"/>
      <point x="65" y="532"/>
      <point x="72" y="523"/>
      <point x="80" y="515" type="curve"/>
      <point x="191" y="515" type="line"/>
      <point x="196" y="446"/>
      <point x="198" y="389"/>
      <point x="198" y="341" type="curve" smooth="yes"/>
      <point x="198" y="140"/>
      <point x="155" y="101"/>
      <point x="59" y="22" type="curve"/>
      <point x="67" y="5"/>
      <point x="76" y="-11"/>
      <point x="84" y="-29" type="curve"/>
      <point x="134" y="2"/>
      <point x="198" y="13"/>
      <point x="269" y="13" type="curve" smooth="yes"/>
      <point x="409" y="13"/>
      <point x="575" y="-29"/>
      <point x="706" y="-29" type="curve" smooth="yes"/>
      <point x="762" y="-29"/>
      <point x="811" y="-21"/>
      <point x="849" y="0" type="curve"/>
      <point x="859" y="38"/>
      <point x="880" y="144"/>
      <point x="890" y="256" type="curve"/>
      <point x="842" y="274" type="line"/>
      <point x="781" y="109"/>
      <point x="733" y="104"/>
      <point x="581" y="104" type="curve" smooth="yes"/>
      <point x="505" y="104"/>
      <point x="461" y="110"/>
      <point x="391" y="110" type="curve" smooth="yes"/>
      <point x="358" y="110"/>
      <point x="319" y="109"/>
      <point x="268" y="105" type="curve"/>
      <point x="332" y="193"/>
      <point x="379" y="325"/>
      <point x="379" y="482" type="curve" smooth="yes"/>
      <point x="379" y="493"/>
      <point x="378" y="504"/>
      <point x="378" y="515" type="curve"/>
      <point x="618" y="515" type="line"/>
    </contour>
  </outline>
</glyph>
<glyph name="currency" format="2">
  <advance width="949"/>
  <unicode hex="00A4"/>
  <outline>
    <contour>
      <point x="807" y="283" type="curve"/>
      <point x="807" y="294"/>
      <point x="806" y="306"/>
      <point x="806" y="318" type="curve"/>
      <point x="697" y="425" type="line"/>
      <point x="730" y="472"/>
      <point x="746" y="525"/>
      <point x="746" y="580" type="curve" smooth="yes"/>
      <point x="746" y="634"/>
      <point x="729" y="690"/>
      <point x="696" y="736" type="curve"/>
      <point x="805" y="845" type="line"/>
      <point x="794" y="867"/>
      <point x="785" y="889"/>
      <point x="774" y="912" type="curve"/>
      <point x="762" y="912"/>
      <point x="750" y="911"/>
      <point x="739" y="911" type="curve"/>
      <point x="630" y="802" type="line"/>
      <point x="584" y="835"/>
      <point x="530" y="853"/>
      <point x="476" y="853" type="curve" smooth="yes"/>
      <point x="421" y="853"/>
      <point x="366" y="835"/>
      <point x="318" y="802" type="curve"/>
      <point x="209" y="912" type="line"/>
      <point x="187" y="903"/>
      <point x="164" y="890"/>
      <point x="145" y="880" type="curve"/>
      <point x="143" y="847" type="line"/>
      <point x="253" y="736" type="line"/>
      <point x="220" y="690"/>
      <point x="204" y="634"/>
      <point x="204" y="580" type="curve" smooth="yes"/>
      <point x="204" y="525"/>
      <point x="220" y="472"/>
      <point x="252" y="426" type="curve"/>
      <point x="142" y="317" type="line"/>
      <point x="151" y="294"/>
      <point x="164" y="271"/>
      <point x="174" y="253" type="curve"/>
      <point x="208" y="251" type="line"/>
      <point x="318" y="360" type="line"/>
      <point x="365" y="327"/>
      <point x="421" y="313"/>
      <point x="476" y="313" type="curve" smooth="yes"/>
      <point x="530" y="313"/>
      <point x="585" y="327"/>
      <point x="630" y="359" type="curve"/>
      <point x="739" y="252" type="line"/>
      <point x="761" y="263"/>
      <point x="784" y="272"/>
    </contour>
    <contour>
      <point x="353" y="704" type="curve" smooth="yes"/>
      <point x="387" y="738"/>
      <point x="431" y="754"/>
      <point x="476" y="754" type="curve" smooth="yes"/>
      <point x="567" y="754"/>
      <point x="649" y="674"/>
      <point x="649" y="582" type="curve" smooth="yes"/>
      <point x="649" y="489"/>
      <point x="569" y="409"/>
      <point x="476" y="409" type="curve" smooth="yes"/>
      <point x="383" y="409"/>
      <point x="302" y="487"/>
      <point x="302" y="581" type="curve" smooth="yes"/>
      <point x="302" y="625"/>
      <point x="319" y="670"/>
    </contour>
  </outline>
</glyph>
<glyph name="yen" format="2">
  <advance width="949"/>
  <unicode hex="00A5"/>
  <outline>
    <contour>
      <point x="718" y="0" type="line"/>
      <point x="718" y="47" type="line"/>
      <point x="597" y="71"/>
      <point x="559" y="100"/>
      <point x="559" y="117" type="curve" smooth="yes"/>
      <point x="559" y="412" type="line"/>
      <point x="819" y="412" type="line"/>
      <point x="846" y="484" type="line"/>
      <point x="821" y="506" type="line"/>
      <point x="559" y="506" type="line"/>
      <point x="559" y="548" type="line"/>
      <point x="650" y="717"/>
      <point x="741" y="884"/>
      <point x="833" y="1053" type="curve" smooth="yes"/>
      <point x="851" y="1087"/>
      <point x="895" y="1100"/>
      <point x="983" y="1117" type="curve"/>
      <point x="983" y="1164" type="line"/>
      <point x="594" y="1164" type="line"/>
      <point x="594" y="1117" type="line"/>
      <point x="674" y="1106"/>
      <point x="708" y="1093"/>
      <point x="708" y="1071" type="curve" smooth="yes"/>
      <point x="708" y="1065"/>
      <point x="706" y="1060"/>
      <point x="702" y="1053" type="curve" smooth="yes"/>
      <point x="498" y="689" type="line"/>
      <point x="408" y="874"/>
      <point x="332" y="1009"/>
      <point x="235" y="1134" type="curve" smooth="yes"/>
      <point x="215" y="1160"/>
      <point x="184" y="1174"/>
      <point x="155" y="1174" type="curve" smooth="yes"/>
      <point x="101" y="1174"/>
      <point x="8" y="1162"/>
      <point x="-68" y="1152" type="curve"/>
      <point x="-64" y="1104" type="line"/>
      <point x="43" y="1104"/>
      <point x="71" y="1082"/>
      <point x="94" y="1053" type="curve" smooth="yes"/>
      <point x="183" y="940"/>
      <point x="295" y="741"/>
      <point x="386" y="550" type="curve"/>
      <point x="386" y="506" type="line"/>
      <point x="120" y="506" type="line"/>
      <point x="113" y="485"/>
      <point x="103" y="456"/>
      <point x="97" y="436" type="curve"/>
      <point x="118" y="412" type="line"/>
      <point x="386" y="412" type="line"/>
      <point x="386" y="117" type="line" smooth="yes"/>
      <point x="386" y="99"/>
      <point x="345" y="71"/>
      <point x="228" y="47" type="curve"/>
      <point x="228" y="0" type="line"/>
    </contour>
  </outline>
</glyph>
<glyph name="brokenbar" format="2">
  <advance width="468"/>
  <unicode hex="00A6"/>
  <outline>
    <contour>
      <point x="317" y="732" type="curve"/>
      <point x="317" y="1592" type="line"/>
      <point x="280" y="1615" type="line"/>
      <point x="240" y="1605"/>
      <point x="206" y="1587"/>
      <point x="168" y="1566" type="curve"/>
      <point x="168" y="704" type="line"/>
      <point x="206" y="680" type="line"/>
      <point x="238" y="690"/>
      <point x="291" y="711"/>
    </contour>
    <contour>
      <point x="317" y="-377" type="curve"/>
      <point x="317" y="473" type="line"/>
      <point x="305" y="481"/>
      <point x="292" y="489"/>
      <point x="280" y="498" type="curve"/>
      <point x="240" y="486"/>
      <point x="206" y="469"/>
      <point x="168" y="447" type="curve"/>
      <point x="168" y="-405" type="line"/>
      <point x="206" y="-429" type="line"/>
      <point x="238" y="-418"/>
      <point x="291" y="-398"/>
    </contour>
  </outline>
</glyph>
<glyph name="section" format="2">
  <advance width="947"/>
  <unicode hex="00A7"/>
  <outline>
    <contour>
      <point x="833" y="636" type="curve" smooth="yes"/>
      <point x="833" y="816"/>
      <point x="706" y="887"/>
      <point x="542" y="980" type="curve" smooth="yes"/>
      <point x="399" y="1060"/>
      <point x="321" y="1110"/>
      <point x="321" y="1199" type="curve" smooth="yes"/>
      <point x="321" y="1264"/>
      <point x="372" y="1302"/>
      <point x="455" y="1302" type="curve" smooth="yes"/>
      <point x="523" y="1302"/>
      <point x="592" y="1255"/>
      <point x="647" y="1159" type="curve"/>
      <point x="690" y="1151" type="line"/>
      <point x="707" y="1172"/>
      <point x="744" y="1263"/>
      <point x="744" y="1297" type="curve" smooth="yes"/>
      <point x="744" y="1303"/>
      <point x="743" y="1307"/>
      <point x="741" y="1309" type="curve" smooth="yes"/>
      <point x="686" y="1355"/>
      <point x="565" y="1392"/>
      <point x="478" y="1392" type="curve" smooth="yes"/>
      <point x="325" y="1392"/>
      <point x="177" y="1316"/>
      <point x="177" y="1156" type="curve" smooth="yes"/>
      <point x="177" y="1086"/>
      <point x="204" y="1027"/>
      <point x="250" y="978" type="curve"/>
      <point x="176" y="931"/>
      <point x="112" y="845"/>
      <point x="112" y="749" type="curve" smooth="yes"/>
      <point x="112" y="583"/>
      <point x="225" y="494"/>
      <point x="388" y="406" type="curve" smooth="yes"/>
      <point x="506" y="342"/>
      <point x="632" y="302"/>
      <point x="632" y="198" type="curve" smooth="yes"/>
      <point x="632" y="110"/>
      <point x="570" y="70"/>
      <point x="477" y="70" type="curve" smooth="yes"/>
      <point x="347" y="70"/>
      <point x="245" y="167"/>
      <point x="235" y="281" type="curve"/>
      <point x="186" y="292" type="line"/>
      <point x="174" y="254"/>
      <point x="168" y="182"/>
      <point x="168" y="126" type="curve" smooth="yes"/>
      <point x="168" y="85"/>
      <point x="172" y="52"/>
      <point x="179" y="49" type="curve" smooth="yes"/>
      <point x="266" y="2"/>
      <point x="366" y="-29"/>
      <point x="431" y="-29" type="curve" smooth="yes"/>
      <point x="514" y="-29"/>
      <point x="776" y="-16"/>
      <point x="776" y="257" type="curve" smooth="yes"/>
      <point x="776" y="314"/>
      <point x="755" y="359"/>
      <point x="721" y="395" type="curve"/>
      <point x="780" y="441"/>
      <point x="833" y="523"/>
    </contour>
    <contour>
      <point x="532" y="517" type="curve"/>
      <point x="341" y="625"/>
      <point x="256" y="679"/>
      <point x="256" y="796" type="curve" smooth="yes"/>
      <point x="256" y="835"/>
      <point x="278" y="896"/>
      <point x="318" y="918" type="curve"/>
      <point x="343" y="900"/>
      <point x="370" y="884"/>
      <point x="398" y="869" type="curve" smooth="yes"/>
      <point x="598" y="762"/>
      <point x="691" y="697"/>
      <point x="691" y="575" type="curve" smooth="yes"/>
      <point x="691" y="531"/>
      <point x="668" y="490"/>
      <point x="632" y="463" type="curve"/>
      <point x="600" y="483"/>
      <point x="565" y="500"/>
    </contour>
  </outline>
</glyph>
<glyph name="dieresis" format="2">
  <advance width="779"/>
  <unicode hex="00A8"/>
  <outline>
    <contour>
      <point x="297" y="1220" type="curve" smooth="yes"/>
      <point x="297" y="1284"/>
      <point x="266" y="1317"/>
      <point x="208" y="1317" type="curve" smooth="yes"/>
      <point x="142" y="1317"/>
      <point x="87" y="1256"/>
      <point x="87" y="1178" type="curve" smooth="yes"/>
      <point x="87" y="1116"/>
      <point x="114" y="1080"/>
      <point x="175" y="1080" type="curve" smooth="yes"/>
      <point x="244" y="1080"/>
      <point x="297" y="1144"/>
    </contour>
    <contour>
      <point x="689" y="1220" type="curve" smooth="yes"/>
      <point x="689" y="1284"/>
      <point x="659" y="1317"/>
      <point x="601" y="1317" type="curve" smooth="yes"/>
      <point x="536" y="1317"/>
      <point x="481" y="1256"/>
      <point x="481" y="1178" type="curve" smooth="yes"/>
      <point x="481" y="1116"/>
      <point x="508" y="1080"/>
      <point x="569" y="1080" type="curve" smooth="yes"/>
      <point x="637" y="1080"/>
      <point x="689" y="1144"/>
    </contour>
  </outline>
</glyph>
<glyph name="copyright" format="2">
  <advance width="1426"/>
  <unicode hex="00A9"/>
  <outline>
    <contour>
      <point x="1332" y="617" type="curve" smooth="yes"/>
      <point x="1332" y="972"/>
      <point x="1070" y="1260"/>
      <point x="712" y="1260" type="curve" smooth="yes"/>
      <point x="355" y="1260"/>
      <point x="94" y="972"/>
      <point x="94" y="617" type="curve" smooth="yes"/>
      <point x="94" y="260"/>
      <point x="355" y="-29"/>
      <point x="712" y="-29" type="curve" smooth="yes"/>
      <point x="1070" y="-29"/>
      <point x="1332" y="260"/>
    </contour>
    <contour>
      <point x="1242" y="617" type="curve" smooth="yes"/>
      <point x="1242" y="309"/>
      <point x="1021" y="61"/>
      <point x="712" y="61" type="curve" smooth="yes"/>
      <point x="406" y="61"/>
      <point x="184" y="309"/>
      <point x="184" y="617" type="curve" smooth="yes"/>
      <point x="184" y="921"/>
      <point x="406" y="1171"/>
      <point x="712" y="1171" type="curve" smooth="yes"/>
      <point x="1021" y="1171"/>
      <point x="1242" y="921"/>
    </contour>
    <contour>
      <point x="999" y="364" type="curve"/>
      <point x="994" y="368"/>
      <point x="978" y="393"/>
      <point x="969" y="397" type="curve"/>
      <point x="868" y="323"/>
      <point x="819" y="307"/>
      <point x="762" y="307" type="curve" smooth="yes"/>
      <point x="653" y="307"/>
      <point x="489" y="414"/>
      <point x="489" y="614" type="curve" smooth="yes"/>
      <point x="489" y="859"/>
      <point x="629" y="935"/>
      <point x="717" y="935" type="curve" smooth="yes"/>
      <point x="800" y="935"/>
      <point x="852" y="889"/>
      <point x="895" y="843" type="curve"/>
      <point x="923" y="839" type="line"/>
      <point x="944" y="856"/>
      <point x="988" y="931"/>
      <point x="988" y="951" type="curve"/>
      <point x="988" y="953"/>
      <point x="988" y="954"/>
      <point x="987" y="955" type="curve"/>
      <point x="940" y="989"/>
      <point x="862" y="1019"/>
      <point x="767" y="1019" type="curve" smooth="yes"/>
      <point x="537" y="1019"/>
      <point x="348" y="844"/>
      <point x="348" y="589" type="curve" smooth="yes"/>
      <point x="348" y="354"/>
      <point x="520" y="213"/>
      <point x="690" y="213" type="curve" smooth="yes"/>
      <point x="785" y="213"/>
      <point x="879" y="247"/>
    </contour>
  </outline>
</glyph>
<glyph name="ordfeminine" format="2">
  <advance width="517"/>
  <unicode hex="00AA"/>
  <outline>
    <contour>
      <point x="507" y="749" type="curve"/>
      <point x="499" y="776" type="line"/>
      <point x="475" y="766"/>
      <point x="460" y="763"/>
      <point x="450" y="763" type="curve" smooth="yes"/>
      <point x="434" y="763"/>
      <point x="425" y="776"/>
      <point x="425" y="823" type="curve" smooth="yes"/>
      <point x="425" y="1012" type="line" smooth="yes"/>
      <point x="425" y="1154"/>
      <point x="388" y="1199"/>
      <point x="295" y="1199" type="curve" smooth="yes"/>
      <point x="220" y="1199"/>
      <point x="77" y="1128"/>
      <point x="62" y="1046" type="curve"/>
      <point x="70" y="1025" type="line"/>
      <point x="71" y="1025"/>
      <point x="73" y="1024"/>
      <point x="76" y="1024" type="curve" smooth="yes"/>
      <point x="105" y="1024"/>
      <point x="178" y="1044"/>
      <point x="178" y="1054" type="curve"/>
      <point x="175" y="1062"/>
      <point x="174" y="1069"/>
      <point x="174" y="1076" type="curve" smooth="yes"/>
      <point x="174" y="1116"/>
      <point x="215" y="1142"/>
      <point x="248" y="1142" type="curve" smooth="yes"/>
      <point x="316" y="1142"/>
      <point x="328" y="1098"/>
      <point x="328" y="1019" type="curve" smooth="yes"/>
      <point x="328" y="1003" type="line"/>
      <point x="236" y="980" type="line" smooth="yes"/>
      <point x="105" y="947"/>
      <point x="46" y="880"/>
      <point x="46" y="801" type="curve" smooth="yes"/>
      <point x="46" y="719"/>
      <point x="109" y="690"/>
      <point x="161" y="690" type="curve" smooth="yes"/>
      <point x="205" y="690"/>
      <point x="268" y="712"/>
      <point x="331" y="771" type="curve"/>
      <point x="339" y="714"/>
      <point x="360" y="690"/>
      <point x="378" y="690" type="curve" smooth="yes"/>
      <point x="403" y="690"/>
      <point x="447" y="709"/>
    </contour>
    <contour>
      <point x="479" y="567" type="line"/>
      <point x="479" y="640" type="line"/>
      <point x="48" y="640" type="line"/>
      <point x="48" y="567" type="line"/>
    </contour>
    <contour>
      <point x="328" y="818" type="line"/>
      <point x="279" y="778"/>
      <point x="236" y="761"/>
      <point x="198" y="761" type="curve" smooth="yes"/>
      <point x="180" y="761"/>
      <point x="149" y="774"/>
      <point x="149" y="826" type="curve" smooth="yes"/>
      <point x="149" y="881"/>
      <point x="181" y="921"/>
      <point x="284" y="950" type="curve"/>
      <point x="328" y="960" type="line"/>
      <point x="328" y="827" type="line"/>
    </contour>
  </outline>
</glyph>
<glyph name="guillemetleft" format="2">
  <advance width="978"/>
  <unicode hex="00AB"/>
  <outline>
    <contour>
      <point x="800" y="13" type="curve"/>
      <point x="815" y="24"/>
      <point x="830" y="34"/>
      <point x="844" y="45" type="curve"/>
      <point x="772" y="181"/>
      <point x="698" y="316"/>
      <point x="626" y="452" type="curve"/>
      <point x="623" y="450"/>
      <point x="844" y="854"/>
      <point x="843" y="854" type="curve"/>
      <point x="800" y="886" type="line"/>
      <point x="444" y="486" type="line" smooth="yes"/>
      <point x="442" y="483"/>
      <point x="442" y="416"/>
      <point x="442" y="416" type="curve"/>
      <point x="561" y="281"/>
      <point x="681" y="147"/>
    </contour>
    <contour>
      <point x="433" y="13" type="curve"/>
      <point x="478" y="45" type="line"/>
      <point x="259" y="452" type="line"/>
      <point x="256" y="450"/>
      <point x="478" y="854"/>
      <point x="477" y="854" type="curve"/>
      <point x="462" y="864"/>
      <point x="447" y="875"/>
      <point x="433" y="886" type="curve"/>
      <point x="76" y="486" type="line"/>
      <point x="75" y="483"/>
      <point x="75" y="416"/>
      <point x="75" y="416" type="curve"/>
      <point x="194" y="281"/>
      <point x="314" y="147"/>
    </contour>
  </outline>
</glyph>
<glyph name="logicalnot" format="2">
  <advance width="949"/>
  <unicode hex="00AC"/>
  <outline>
    <contour>
      <point x="877" y="225" type="curve"/>
      <point x="877" y="577" type="line"/>
      <point x="868" y="585"/>
      <point x="858" y="592"/>
      <point x="848" y="600" type="curve"/>
      <point x="95" y="600" type="line"/>
      <point x="83" y="575"/>
      <point x="69" y="537"/>
      <point x="62" y="511" type="curve"/>
      <point x="71" y="503"/>
      <point x="79" y="494"/>
      <point x="87" y="486" type="curve"/>
      <point x="762" y="486" type="line"/>
      <point x="762" y="198" type="line"/>
      <point x="788" y="173" type="line"/>
      <point x="820" y="184"/>
      <point x="851" y="206"/>
    </contour>
  </outline>
</glyph>
<glyph name="registered" format="2">
  <advance width="710"/>
  <unicode hex="00AE"/>
  <outline>
    <contour>
      <point x="679" y="1048" type="curve" smooth="yes"/>
      <point x="679" y="1234"/>
      <point x="542" y="1386"/>
      <point x="354" y="1386" type="curve" smooth="yes"/>
      <point x="167" y="1386"/>
      <point x="31" y="1234"/>
      <point x="31" y="1048" type="curve" smooth="yes"/>
      <point x="31" y="862"/>
      <point x="167" y="711"/>
      <point x="354" y="711" type="curve" smooth="yes"/>
      <point x="542" y="711"/>
      <point x="679" y="862"/>
    </contour>
    <contour>
      <point x="619" y="1048" type="curve" smooth="yes"/>
      <point x="619" y="894"/>
      <point x="508" y="771"/>
      <point x="354" y="771" type="curve" smooth="yes"/>
      <point x="201" y="771"/>
      <point x="90" y="894"/>
      <point x="90" y="1048" type="curve" smooth="yes"/>
      <point x="90" y="1201"/>
      <point x="201" y="1326"/>
      <point x="354" y="1326" type="curve" smooth="yes"/>
      <point x="508" y="1326"/>
      <point x="619" y="1201"/>
    </contour>
    <contour>
      <point x="346" y="857" type="line"/>
      <point x="346" y="875" type="line"/>
      <point x="316" y="881"/>
      <point x="305" y="889"/>
      <point x="305" y="894" type="curve" smooth="yes"/>
      <point x="305" y="1037" type="line"/>
      <point x="315" y="1035"/>
      <point x="325" y="1034"/>
      <point x="334" y="1034" type="curve" smooth="yes"/>
      <point x="337" y="1034" type="line"/>
      <point x="436" y="868" type="line" smooth="yes"/>
      <point x="441" y="861"/>
      <point x="455" y="852"/>
      <point x="466" y="852" type="curve" smooth="yes"/>
      <point x="481" y="852"/>
      <point x="515" y="861"/>
      <point x="541" y="868" type="curve"/>
      <point x="539" y="889" type="line"/>
      <point x="534" y="889"/>
      <point x="530" y="888"/>
      <point x="527" y="888" type="curve" smooth="yes"/>
      <point x="507" y="888"/>
      <point x="497" y="893"/>
      <point x="489" y="904" type="curve" smooth="yes"/>
      <point x="391" y="1040" type="line"/>
      <point x="449" y="1056"/>
      <point x="487" y="1097"/>
      <point x="487" y="1157" type="curve" smooth="yes"/>
      <point x="487" y="1209"/>
      <point x="438" y="1248"/>
      <point x="338" y="1248" type="curve" smooth="yes"/>
      <point x="284" y="1248"/>
      <point x="243" y="1241"/>
      <point x="205" y="1232" type="curve"/>
      <point x="207" y="1203" type="line"/>
      <point x="221" y="1205"/>
      <point x="234" y="1207"/>
      <point x="248" y="1208" type="curve"/>
      <point x="248" y="894" type="line" smooth="yes"/>
      <point x="248" y="888"/>
      <point x="234" y="881"/>
      <point x="207" y="875" type="curve"/>
      <point x="207" y="857" type="line"/>
    </contour>
    <contour>
      <point x="327" y="1215" type="curve" smooth="yes"/>
      <point x="399" y="1215"/>
      <point x="424" y="1186"/>
      <point x="424" y="1148" type="curve" smooth="yes"/>
      <point x="424" y="1099"/>
      <point x="396" y="1070"/>
      <point x="330" y="1070" type="curve" smooth="yes"/>
      <point x="321" y="1070"/>
      <point x="314" y="1070"/>
      <point x="305" y="1072" type="curve"/>
      <point x="305" y="1214" type="line"/>
      <point x="313" y="1215"/>
      <point x="319" y="1215"/>
    </contour>
  </outline>
</glyph>
<glyph name="degree" format="2">
  <advance width="713"/>
  <unicode hex="00B0"/>
  <outline>
    <contour>
      <point x="581" y="1011" type="curve" smooth="yes"/>
      <point x="581" y="1112"/>
      <point x="496" y="1199"/>
      <point x="394" y="1199" type="curve" smooth="yes"/>
      <point x="269" y="1199"/>
      <point x="131" y="1080"/>
      <point x="131" y="915" type="curve" smooth="yes"/>
      <point x="131" y="813"/>
      <point x="210" y="728"/>
      <point x="319" y="728" type="curve" smooth="yes"/>
      <point x="441" y="728"/>
      <point x="581" y="849"/>
    </contour>
    <contour>
      <point x="466" y="962" type="curve" smooth="yes"/>
      <point x="466" y="876"/>
      <point x="406" y="827"/>
      <point x="345" y="827" type="curve" smooth="yes"/>
      <point x="283" y="827"/>
      <point x="246" y="894"/>
      <point x="246" y="965" type="curve" smooth="yes"/>
      <point x="246" y="1047"/>
      <point x="305" y="1100"/>
      <point x="367" y="1100" type="curve" smooth="yes"/>
      <point x="428" y="1100"/>
      <point x="466" y="1035"/>
    </contour>
  </outline>
</glyph>
<glyph name="plusminus" format="2">
  <advance width="816"/>
  <unicode hex="00B1"/>
  <outline>
    <contour>
      <point x="469" y="342" type="curve"/>
      <point x="469" y="601" type="line"/>
      <point x="730" y="601" type="line"/>
      <point x="740" y="622"/>
      <point x="756" y="663"/>
      <point x="762" y="689" type="curve"/>
      <point x="737" y="714" type="line"/>
      <point x="469" y="714" type="line"/>
      <point x="469" y="981" type="line"/>
      <point x="444" y="1005" type="line"/>
      <point x="416" y="998"/>
      <point x="376" y="983"/>
      <point x="352" y="975" type="curve"/>
      <point x="352" y="714" type="line"/>
      <point x="90" y="714" type="line"/>
      <point x="78" y="689"/>
      <point x="64" y="652"/>
      <point x="57" y="625" type="curve"/>
      <point x="83" y="601" type="line"/>
      <point x="352" y="601" type="line"/>
      <point x="352" y="333" type="line"/>
      <point x="377" y="310" type="line"/>
      <point x="405" y="316"/>
      <point x="444" y="329"/>
    </contour>
    <contour>
      <point x="762" y="212" type="curve"/>
      <point x="754" y="220"/>
      <point x="746" y="229"/>
      <point x="737" y="237" type="curve"/>
      <point x="90" y="237" type="line"/>
      <point x="78" y="212"/>
      <point x="64" y="175"/>
      <point x="57" y="148" type="curve"/>
      <point x="83" y="124" type="line"/>
      <point x="730" y="124" type="line"/>
      <point x="740" y="145"/>
      <point x="756" y="186"/>
    </contour>
  </outline>
</glyph>
<glyph name="twosuperior" format="2">
  <advance width="662"/>
  <unicode hex="00B2"/>
  <outline>
    <contour>
      <point x="589" y="775" type="line"/>
      <point x="574" y="777"/>
      <point x="558" y="780"/>
      <point x="542" y="783" type="curve"/>
      <point x="542" y="783"/>
      <point x="535" y="686"/>
      <point x="473" y="686" type="curve" smooth="yes"/>
      <point x="212" y="686" type="line"/>
      <point x="493" y="963"/>
      <point x="579" y="1051"/>
      <point x="579" y="1155" type="curve" smooth="yes"/>
      <point x="579" y="1265"/>
      <point x="493" y="1316"/>
      <point x="369" y="1316" type="curve" smooth="yes"/>
      <point x="215" y="1316"/>
      <point x="74" y="1212"/>
      <point x="74" y="1131" type="curve"/>
      <point x="94" y="1109" type="line"/>
      <point x="117" y="1111"/>
      <point x="213" y="1127"/>
      <point x="213" y="1141" type="curve" smooth="yes"/>
      <point x="213" y="1195"/>
      <point x="255" y="1249"/>
      <point x="323" y="1249" type="curve" smooth="yes"/>
      <point x="410" y="1249"/>
      <point x="443" y="1205"/>
      <point x="443" y="1135" type="curve" smooth="yes"/>
      <point x="443" y="1048"/>
      <point x="378" y="962"/>
      <point x="56" y="642" type="curve"/>
      <point x="75" y="600" type="line"/>
      <point x="579" y="600" type="line"/>
    </contour>
  </outline>
</glyph>
<glyph name="threesuperior" format="2">
  <advance width="662"/>
  <unicode hex="00B3"/>
  <outline>
    <contour>
      <point x="581" y="821" type="curve" smooth="yes"/>
      <point x="581" y="915"/>
      <point x="505" y="994"/>
      <point x="400" y="1005" type="curve"/>
      <point x="487" y="1031"/>
      <point x="541" y="1098"/>
      <point x="541" y="1156" type="curve" smooth="yes"/>
      <point x="541" y="1234"/>
      <point x="478" y="1316"/>
      <point x="334" y="1316" type="curve" smooth="yes"/>
      <point x="186" y="1316"/>
      <point x="63" y="1221"/>
      <point x="63" y="1156" type="curve"/>
      <point x="81" y="1134" type="line"/>
      <point x="123" y="1137"/>
      <point x="172" y="1146"/>
      <point x="204" y="1161" type="curve"/>
      <point x="202" y="1168"/>
      <point x="201" y="1174"/>
      <point x="201" y="1180" type="curve" smooth="yes"/>
      <point x="201" y="1222"/>
      <point x="238" y="1249"/>
      <point x="295" y="1249" type="curve" smooth="yes"/>
      <point x="372" y="1249"/>
      <point x="402" y="1198"/>
      <point x="402" y="1145" type="curve" smooth="yes"/>
      <point x="402" y="1098"/>
      <point x="385" y="1035"/>
      <point x="225" y="997" type="curve"/>
      <point x="234" y="949" type="line"/>
      <point x="263" y="953"/>
      <point x="257" y="953"/>
      <point x="282" y="953" type="curve" smooth="yes"/>
      <point x="355" y="953"/>
      <point x="441" y="917"/>
      <point x="441" y="803" type="curve" smooth="yes"/>
      <point x="441" y="707"/>
      <point x="373" y="655"/>
      <point x="272" y="655" type="curve" smooth="yes"/>
      <point x="204" y="655"/>
      <point x="145" y="672"/>
      <point x="63" y="724" type="curve"/>
      <point x="39" y="678" type="line"/>
      <point x="121" y="611"/>
      <point x="212" y="582"/>
      <point x="291" y="582" type="curve" smooth="yes"/>
      <point x="469" y="582"/>
      <point x="581" y="690"/>
    </contour>
  </outline>
</glyph>
<glyph name="acute" format="2">
  <advance width="635"/>
  <unicode hex="00B4"/>
  <outline>
    <contour>
      <point x="612" y="1378" type="line"/>
      <point x="588" y="1419" type="line"/>
      <point x="559" y="1426"/>
      <point x="461" y="1442"/>
      <point x="431" y="1444" type="curve"/>
      <point x="208" y="1041" type="line"/>
      <point x="223" y="1029"/>
      <point x="246" y="1015"/>
      <point x="269" y="1011" type="curve"/>
    </contour>
  </outline>
</glyph>
<glyph name="micro" format="2">
  <advance width="1086"/>
  <unicode hex="00B5"/>
  <outline>
    <contour>
      <point x="1056" y="131" type="curve"/>
      <point x="1013" y="114"/>
      <point x="983" y="104"/>
      <point x="955" y="104" type="curve" smooth="yes"/>
      <point x="930" y="104"/>
      <point x="917" y="144"/>
      <point x="917" y="265" type="curve" smooth="yes"/>
      <point x="917" y="734" type="line"/>
      <point x="919" y="814"/>
      <point x="928" y="856"/>
      <point x="933" y="889" type="curve"/>
      <point x="923" y="902"/>
      <point x="913" y="915"/>
      <point x="904" y="928" type="curve"/>
      <point x="847" y="906"/>
      <point x="776" y="885"/>
      <point x="717" y="870" type="curve"/>
      <point x="734" y="846"/>
      <point x="753" y="765"/>
      <point x="753" y="723" type="curve" smooth="yes"/>
      <point x="753" y="281" type="line"/>
      <point x="653" y="151"/>
      <point x="580" y="134"/>
      <point x="516" y="134" type="curve" smooth="yes"/>
      <point x="416" y="134"/>
      <point x="343" y="262"/>
      <point x="343" y="357" type="curve" smooth="yes"/>
      <point x="343" y="885" type="line"/>
      <point x="332" y="898"/>
      <point x="306" y="928"/>
      <point x="305" y="928" type="curve"/>
      <point x="231" y="894"/>
      <point x="160" y="880"/>
      <point x="56" y="864" type="curve"/>
      <point x="56" y="820" type="line"/>
      <point x="178" y="807"/>
      <point x="180" y="799"/>
      <point x="180" y="699" type="curve" smooth="yes"/>
      <point x="180" y="-454" type="line"/>
      <point x="219" y="-484" type="line"/>
      <point x="251" y="-468"/>
      <point x="372" y="-421"/>
      <point x="410" y="-409" type="curve"/>
      <point x="338" y="-327"/>
      <point x="270" y="-170"/>
      <point x="270" y="106" type="curve" smooth="yes"/>
      <point x="270" y="113" type="line"/>
      <point x="328" y="23"/>
      <point x="407" y="-30"/>
      <point x="478" y="-30" type="curve" smooth="yes"/>
      <point x="554" y="-30"/>
      <point x="651" y="37"/>
      <point x="754" y="169" type="curve"/>
      <point x="759" y="61"/>
      <point x="785" y="-30"/>
      <point x="841" y="-30" type="curve" smooth="yes"/>
      <point x="890" y="-30"/>
      <point x="992" y="32"/>
      <point x="1069" y="82" type="curve"/>
      <point x="1064" y="98"/>
      <point x="1060" y="114"/>
    </contour>
  </outline>
</glyph>
<glyph name="paragraph" format="2">
  <advance width="1123"/>
  <unicode hex="00B6"/>
  <outline>
    <contour>
      <point x="1047" y="-242" type="line"/>
      <point x="1047" y="-194" type="line"/>
      <point x="953" y="-176"/>
      <point x="907" y="-151"/>
      <point x="907" y="-134" type="curve" smooth="yes"/>
      <point x="907" y="1111" type="line" smooth="yes"/>
      <point x="907" y="1129"/>
      <point x="960" y="1152"/>
      <point x="1047" y="1171" type="curve"/>
      <point x="1047" y="1218" type="line"/>
      <point x="978" y="1218" type="line"/>
      <point x="978" y="1218"/>
      <point x="613" y="1247"/>
      <point x="499" y="1247" type="curve" smooth="yes"/>
      <point x="230" y="1247"/>
      <point x="45" y="1093"/>
      <point x="45" y="873" type="curve" smooth="yes"/>
      <point x="45" y="631"/>
      <point x="248" y="507"/>
      <point x="495" y="507" type="curve" smooth="yes"/>
      <point x="530" y="507"/>
      <point x="557" y="509"/>
      <point x="580" y="513" type="curve"/>
      <point x="580" y="297"/>
      <point x="579" y="81"/>
      <point x="579" y="-134" type="curve" smooth="yes"/>
      <point x="579" y="-153"/>
      <point x="527" y="-176"/>
      <point x="439" y="-194" type="curve"/>
      <point x="439" y="-242" type="line"/>
    </contour>
    <contour>
      <point x="537" y="594" type="line" smooth="yes"/>
      <point x="317" y="594"/>
      <point x="225" y="767"/>
      <point x="225" y="907" type="curve" smooth="yes"/>
      <point x="225" y="1051"/>
      <point x="339" y="1160"/>
      <point x="488" y="1160" type="curve" smooth="yes"/>
      <point x="511" y="1160"/>
      <point x="544" y="1159"/>
      <point x="581" y="1155" type="curve"/>
      <point x="581" y="968"/>
      <point x="580" y="781"/>
      <point x="580" y="594" type="curve"/>
    </contour>
    <contour>
      <point x="783" y="-134" type="line" smooth="yes"/>
      <point x="783" y="-149"/>
      <point x="759" y="-160"/>
      <point x="743" y="-164" type="curve"/>
      <point x="731" y="-160"/>
      <point x="706" y="-149"/>
      <point x="706" y="-134" type="curve" smooth="yes"/>
      <point x="706" y="1137" type="line"/>
      <point x="731" y="1132"/>
      <point x="757" y="1126"/>
      <point x="783" y="1118" type="curve"/>
    </contour>
  </outline>
</glyph>
<glyph name="cedilla" format="2">
  <advance width="456"/>
  <unicode hex="00B8"/>
  <outline>
    <contour>
      <point x="405" y="-221" type="curve" smooth="yes"/>
      <point x="405" y="-149"/>
      <point x="339" y="-112"/>
      <point x="265" y="-98" type="curve"/>
      <point x="308" y="26" type="line"/>
      <point x="223" y="28" type="line"/>
      <point x="156" y="-182"/>
      <point x="146" y="-201"/>
      <point x="145" y="-200" type="curve"/>
      <point x="221" y="-208"/>
      <point x="253" y="-221"/>
      <point x="253" y="-265" type="curve" smooth="yes"/>
      <point x="253" y="-307"/>
      <point x="202" y="-356"/>
      <point x="71" y="-377" type="curve"/>
      <point x="80" y="-395"/>
      <point x="88" y="-411"/>
      <point x="96" y="-429" type="curve"/>
      <point x="307" y="-399"/>
      <point x="405" y="-317"/>
    </contour>
  </outline>
</glyph>
<glyph name="onesuperior" format="2">
  <advance width="662"/>
  <unicode hex="00B9"/>
  <outline>
    <contour>
      <point x="582" y="600" type="line"/>
      <point x="582" y="643" type="line"/>
      <point x="445" y="658"/>
      <point x="421" y="680"/>
      <point x="421" y="695" type="curve" smooth="yes"/>
      <point x="421" y="1301" type="line"/>
      <point x="395" y="1322" type="line"/>
      <point x="334" y="1294"/>
      <point x="168" y="1241"/>
      <point x="92" y="1223" type="curve"/>
      <point x="107" y="1180" type="line"/>
      <point x="172" y="1192"/>
      <point x="213" y="1196"/>
      <point x="238" y="1196" type="curve" smooth="yes"/>
      <point x="290" y="1196"/>
      <point x="287" y="1176"/>
      <point x="287" y="1131" type="curve" smooth="yes"/>
      <point x="287" y="695" type="line" smooth="yes"/>
      <point x="287" y="679"/>
      <point x="255" y="658"/>
      <point x="114" y="643" type="curve"/>
      <point x="114" y="600" type="line"/>
    </contour>
  </outline>
</glyph>
<glyph name="ordmasculine" format="2">
  <advance width="561"/>
  <unicode hex="00BA"/>
  <outline>
    <contour>
      <point x="515" y="954" type="curve" smooth="yes"/>
      <point x="515" y="1095"/>
      <point x="423" y="1199"/>
      <point x="295" y="1199" type="curve" smooth="yes"/>
      <point x="155" y="1199"/>
      <point x="45" y="1069"/>
      <point x="45" y="934" type="curve" smooth="yes"/>
      <point x="45" y="793"/>
      <point x="133" y="690"/>
      <point x="265" y="690" type="curve" smooth="yes"/>
      <point x="389" y="690"/>
      <point x="515" y="822"/>
    </contour>
    <contour>
      <point x="504" y="567" type="line"/>
      <point x="504" y="640" type="line"/>
      <point x="56" y="640" type="line"/>
      <point x="56" y="567" type="line"/>
    </contour>
    <contour>
      <point x="416" y="937" type="curve" smooth="yes"/>
      <point x="416" y="828"/>
      <point x="366" y="747"/>
      <point x="294" y="747" type="curve" smooth="yes"/>
      <point x="218" y="747"/>
      <point x="144" y="840"/>
      <point x="144" y="949" type="curve" smooth="yes"/>
      <point x="144" y="1059"/>
      <point x="189" y="1141"/>
      <point x="266" y="1141" type="curve" smooth="yes"/>
      <point x="350" y="1141"/>
      <point x="416" y="1045"/>
    </contour>
  </outline>
</glyph>
<glyph name="guillemetright" format="2">
  <advance width="978"/>
  <unicode hex="00BB"/>
  <outline>
    <contour>
      <point x="534" y="485" type="line"/>
      <point x="177" y="886" type="line"/>
      <point x="163" y="875"/>
      <point x="149" y="864"/>
      <point x="134" y="854" type="curve"/>
      <point x="352" y="451" type="line"/>
      <point x="133" y="45" type="line"/>
      <point x="148" y="34"/>
      <point x="163" y="24"/>
      <point x="177" y="13" type="curve"/>
      <point x="536" y="415" type="line"/>
    </contour>
    <contour>
      <point x="901" y="485" type="line"/>
      <point x="783" y="618"/>
      <point x="663" y="752"/>
      <point x="545" y="886" type="curve"/>
      <point x="501" y="854" type="line"/>
      <point x="719" y="451" type="line"/>
      <point x="500" y="45" type="line"/>
      <point x="545" y="13" type="line"/>
      <point x="903" y="415" type="line"/>
    </contour>
  </outline>
</glyph>
<glyph name="onequarter" format="2">
  <advance width="1181"/>
  <unicode hex="00BC"/>
  <outline>
    <contour>
      <point x="1071" y="1167" type="line"/>
      <point x="1047" y="1194" type="line"/>
      <point x="1018" y="1188"/>
      <point x="979" y="1174"/>
      <point x="953" y="1163" type="curve"/>
      <point x="187" y="0" type="line"/>
      <point x="211" y="-29" type="line"/>
      <point x="247" y="-20"/>
      <point x="280" y="-12"/>
      <point x="310" y="3" type="curve"/>
    </contour>
    <contour>
      <point x="1108" y="204" type="curve"/>
      <point x="1093" y="219" type="line"/>
      <point x="1032" y="219" type="line"/>
      <point x="1032" y="561" type="line"/>
      <point x="1025" y="567"/>
      <point x="1017" y="572"/>
      <point x="1011" y="578" type="curve"/>
      <point x="915" y="543" type="line"/>
      <point x="825" y="420"/>
      <point x="735" y="297"/>
      <point x="644" y="174" type="curve"/>
      <point x="664" y="158" type="line"/>
      <point x="932" y="158" type="line"/>
      <point x="932" y="62" type="line" smooth="yes"/>
      <point x="932" y="51"/>
      <point x="919" y="42"/>
      <point x="824" y="29" type="curve"/>
      <point x="824" y="0" type="line"/>
      <point x="1101" y="0" type="line"/>
      <point x="1101" y="29" type="line"/>
      <point x="1040" y="41"/>
      <point x="1032" y="47"/>
      <point x="1032" y="57" type="curve" smooth="yes"/>
      <point x="1032" y="158" type="line"/>
      <point x="1062" y="158" type="line"/>
      <point x="1078" y="168"/>
      <point x="1092" y="184"/>
    </contour>
    <contour>
      <point x="932" y="219" type="line"/>
      <point x="741" y="219" type="line"/>
      <point x="932" y="470" type="line"/>
    </contour>
    <contour>
      <point x="468" y="616" type="line"/>
      <point x="468" y="650" type="line"/>
      <point x="359" y="661"/>
      <point x="337" y="679"/>
      <point x="337" y="691" type="curve" smooth="yes"/>
      <point x="337" y="1177" type="line"/>
      <point x="318" y="1194" type="line"/>
      <point x="269" y="1171"/>
      <point x="136" y="1128"/>
      <point x="75" y="1115" type="curve"/>
      <point x="79" y="1103"/>
      <point x="84" y="1092"/>
      <point x="88" y="1081" type="curve"/>
      <point x="140" y="1091"/>
      <point x="173" y="1094"/>
      <point x="193" y="1094" type="curve" smooth="yes"/>
      <point x="236" y="1094"/>
      <point x="233" y="1079"/>
      <point x="233" y="1042" type="curve" smooth="yes"/>
      <point x="233" y="691" type="line" smooth="yes"/>
      <point x="233" y="678"/>
      <point x="207" y="661"/>
      <point x="92" y="650" type="curve"/>
      <point x="92" y="616" type="line"/>
    </contour>
  </outline>
</glyph>
<glyph name="onehalf" format="2">
  <advance width="1181"/>
  <unicode hex="00BD"/>
  <outline>
    <contour>
      <point x="1067" y="1167" type="line"/>
      <point x="1043" y="1194" type="line"/>
      <point x="1015" y="1188"/>
      <point x="975" y="1174"/>
      <point x="949" y="1163" type="curve"/>
      <point x="184" y="0" type="line"/>
      <point x="208" y="-29" type="line"/>
      <point x="243" y="-20"/>
      <point x="276" y="-12"/>
      <point x="306" y="3" type="curve"/>
    </contour>
    <contour>
      <point x="468" y="616" type="line"/>
      <point x="468" y="650" type="line"/>
      <point x="359" y="661"/>
      <point x="337" y="679"/>
      <point x="337" y="691" type="curve" smooth="yes"/>
      <point x="337" y="1177" type="line"/>
      <point x="318" y="1194" type="line"/>
      <point x="269" y="1171"/>
      <point x="136" y="1128"/>
      <point x="75" y="1115" type="curve"/>
      <point x="79" y="1103"/>
      <point x="84" y="1092"/>
      <point x="88" y="1081" type="curve"/>
      <point x="140" y="1091"/>
      <point x="173" y="1094"/>
      <point x="193" y="1094" type="curve" smooth="yes"/>
      <point x="236" y="1094"/>
      <point x="233" y="1079"/>
      <point x="233" y="1042" type="curve" smooth="yes"/>
      <point x="233" y="691" type="line" smooth="yes"/>
      <point x="233" y="678"/>
      <point x="207" y="661"/>
      <point x="92" y="650" type="curve"/>
      <point x="92" y="616" type="line"/>
    </contour>
    <contour>
      <point x="1105" y="139" type="line"/>
      <point x="1068" y="145" type="line"/>
      <point x="1068" y="145"/>
      <point x="1062" y="68"/>
      <point x="1012" y="68" type="curve" smooth="yes"/>
      <point x="800" y="68" type="line"/>
      <point x="1025" y="290"/>
      <point x="1097" y="362"/>
      <point x="1097" y="445" type="curve" smooth="yes"/>
      <point x="1097" y="532"/>
      <point x="1028" y="573"/>
      <point x="929" y="573" type="curve" smooth="yes"/>
      <point x="805" y="573"/>
      <point x="692" y="489"/>
      <point x="692" y="425" type="curve"/>
      <point x="708" y="408" type="line"/>
      <point x="727" y="410"/>
      <point x="802" y="422"/>
      <point x="802" y="433" type="curve" smooth="yes"/>
      <point x="802" y="477"/>
      <point x="837" y="520"/>
      <point x="892" y="520" type="curve" smooth="yes"/>
      <point x="963" y="520"/>
      <point x="990" y="484"/>
      <point x="990" y="428" type="curve" smooth="yes"/>
      <point x="990" y="359"/>
      <point x="936" y="290"/>
      <point x="678" y="34" type="curve"/>
      <point x="693" y="0" type="line"/>
      <point x="1097" y="0" type="line"/>
    </contour>
  </outline>
</glyph>
<glyph name="threequarters" format="2">
  <advance width="1181"/>
  <unicode hex="00BE"/>
  <outline>
    <contour>
      <point x="1067" y="1167" type="line"/>
      <point x="1043" y="1194" type="line"/>
      <point x="1015" y="1188"/>
      <point x="975" y="1174"/>
      <point x="949" y="1163" type="curve"/>
      <point x="183" y="0" type="line"/>
      <point x="208" y="-29" type="line"/>
      <point x="243" y="-20"/>
      <point x="276" y="-12"/>
      <point x="306" y="3" type="curve"/>
    </contour>
    <contour>
      <point x="508" y="795" type="curve" smooth="yes"/>
      <point x="508" y="870"/>
      <point x="445" y="933"/>
      <point x="361" y="942" type="curve"/>
      <point x="431" y="963"/>
      <point x="476" y="1016"/>
      <point x="476" y="1063" type="curve" smooth="yes"/>
      <point x="476" y="1126"/>
      <point x="425" y="1191"/>
      <point x="309" y="1191" type="curve" smooth="yes"/>
      <point x="191" y="1191"/>
      <point x="91" y="1116"/>
      <point x="91" y="1065" type="curve"/>
      <point x="107" y="1047" type="line"/>
      <point x="140" y="1049"/>
      <point x="179" y="1057"/>
      <point x="205" y="1069" type="curve"/>
      <point x="204" y="1074"/>
      <point x="203" y="1079"/>
      <point x="203" y="1084" type="curve" smooth="yes"/>
      <point x="203" y="1117"/>
      <point x="232" y="1139"/>
      <point x="277" y="1139" type="curve" smooth="yes"/>
      <point x="341" y="1139"/>
      <point x="366" y="1097"/>
      <point x="366" y="1054" type="curve" smooth="yes"/>
      <point x="366" y="1016"/>
      <point x="350" y="966"/>
      <point x="222" y="936" type="curve"/>
      <point x="228" y="898" type="line"/>
      <point x="252" y="902"/>
      <point x="248" y="902"/>
      <point x="268" y="902" type="curve" smooth="yes"/>
      <point x="326" y="902"/>
      <point x="397" y="872"/>
      <point x="397" y="780" type="curve" smooth="yes"/>
      <point x="397" y="702"/>
      <point x="341" y="661"/>
      <point x="260" y="661" type="curve" smooth="yes"/>
      <point x="205" y="661"/>
      <point x="158" y="673"/>
      <point x="91" y="715" type="curve"/>
      <point x="72" y="681" type="line"/>
      <point x="138" y="628"/>
      <point x="211" y="604"/>
      <point x="275" y="604" type="curve" smooth="yes"/>
      <point x="418" y="604"/>
      <point x="508" y="690"/>
    </contour>
    <contour>
      <point x="1108" y="204" type="curve"/>
      <point x="1093" y="219" type="line"/>
      <point x="1032" y="219" type="line"/>
      <point x="1032" y="561" type="line"/>
      <point x="1025" y="567"/>
      <point x="1017" y="572"/>
      <point x="1011" y="578" type="curve"/>
      <point x="915" y="543" type="line"/>
      <point x="825" y="420"/>
      <point x="735" y="297"/>
      <point x="644" y="174" type="curve"/>
      <point x="664" y="158" type="line"/>
      <point x="932" y="158" type="line"/>
      <point x="932" y="62" type="line" smooth="yes"/>
      <point x="932" y="51"/>
      <point x="919" y="42"/>
      <point x="824" y="29" type="curve"/>
      <point x="824" y="0" type="line"/>
      <point x="1101" y="0" type="line"/>
      <point x="1101" y="29" type="line"/>
      <point x="1040" y="41"/>
      <point x="1032" y="47"/>
      <point x="1032" y="57" type="curve" smooth="yes"/>
      <point x="1032" y="158" type="line"/>
      <point x="1062" y="158" type="line"/>
      <point x="1078" y="168"/>
      <point x="1092" y="184"/>
    </contour>
    <contour>
      <point x="932" y="219" type="line"/>
      <point x="741" y="219" type="line"/>
      <point x="932" y="470" type="line"/>
    </contour>
  </outline>
</glyph>
<glyph name="questiondown" format="2">
  <advance width="871"/>
  <unicode hex="00BF"/>
  <outline>
    <contour>
      <point x="582" y="815" type="curve" smooth="yes"/>
      <point x="582" y="890"/>
      <point x="545" y="928"/>
      <point x="475" y="928" type="curve" smooth="yes"/>
      <point x="397" y="928"/>
      <point x="333" y="861"/>
      <point x="333" y="771" type="curve" smooth="yes"/>
      <point x="333" y="695"/>
      <point x="371" y="655"/>
      <point x="437" y="655" type="curve" smooth="yes"/>
      <point x="516" y="655"/>
      <point x="582" y="725"/>
    </contour>
    <contour>
      <point x="414" y="508" type="curve"/>
      <point x="408" y="415" type="line"/>
      <point x="388" y="153"/>
      <point x="75" y="53"/>
      <point x="75" y="-238" type="curve" smooth="yes"/>
      <point x="75" y="-416"/>
      <point x="182" y="-541"/>
      <point x="378" y="-541" type="curve" smooth="yes"/>
      <point x="599" y="-541"/>
      <point x="796" y="-406"/>
      <point x="796" y="-223" type="curve" smooth="yes"/>
      <point x="796" y="-214"/>
      <point x="796" y="-199"/>
      <point x="794" y="-189" type="curve"/>
      <point x="785" y="-179"/>
      <point x="775" y="-169"/>
      <point x="766" y="-158" type="curve"/>
      <point x="709" y="-163"/>
      <point x="648" y="-176"/>
      <point x="604" y="-200" type="curve"/>
      <point x="612" y="-218"/>
      <point x="618" y="-238"/>
      <point x="618" y="-257" type="curve" smooth="yes"/>
      <point x="618" y="-359"/>
      <point x="540" y="-445"/>
      <point x="453" y="-445" type="curve" smooth="yes"/>
      <point x="327" y="-445"/>
      <point x="255" y="-353"/>
      <point x="255" y="-194" type="curve" smooth="yes"/>
      <point x="255" y="-15"/>
      <point x="522" y="182"/>
      <point x="522" y="398" type="curve" smooth="yes"/>
      <point x="522" y="403"/>
      <point x="522" y="409"/>
      <point x="522" y="415" type="curve"/>
      <point x="517" y="527" type="line"/>
      <point x="508" y="533"/>
      <point x="499" y="541"/>
      <point x="490" y="547" type="curve"/>
      <point x="455" y="538"/>
      <point x="435" y="528"/>
    </contour>
  </outline>
</glyph>
<glyph name="Iacute" format="2">
  <advance width="605"/>
  <unicode hex="00CD"/>
  <outline>
    <contour>
      <point x="519" y="0" type="line"/>
      <point x="519" y="47" type="line"/>
      <point x="425" y="65"/>
      <point x="379" y="91"/>
      <point x="379" y="106" type="curve" smooth="yes"/>
      <point x="379" y="1111" type="line" smooth="yes"/>
      <point x="379" y="1129"/>
      <point x="431" y="1152"/>
      <point x="519" y="1171" type="curve"/>
      <point x="519" y="1218" type="line"/>
      <point x="67" y="1218" type="line"/>
      <point x="67" y="1171" type="line"/>
      <point x="160" y="1152"/>
      <point x="206" y="1126"/>
      <point x="206" y="1111" type="curve" smooth="yes"/>
      <point x="206" y="106" type="line" smooth="yes"/>
      <point x="206" y="89"/>
      <point x="154" y="65"/>
      <point x="67" y="47" type="curve"/>
      <point x="67" y="0" type="line"/>
    </contour>
    <contour>
      <point x="623" y="1554" type="line"/>
      <point x="614" y="1600" type="line"/>
      <point x="595" y="1620"/>
      <point x="521" y="1660"/>
      <point x="488" y="1679" type="curve"/>
      <point x="364" y="1575"/>
      <point x="240" y="1471"/>
      <point x="116" y="1368" type="curve"/>
      <point x="133" y="1344"/>
      <point x="142" y="1329"/>
      <point x="164" y="1320" type="curve"/>
    </contour>
  </outline>
</glyph>
<glyph name="Odieresis" format="2">
  <advance width="1203"/>
  <unicode hex="00D6"/>
  <outline>
    <contour>
      <point x="1118" y="626" type="curve" smooth="yes"/>
      <point x="1118" y="941"/>
      <point x="946" y="1247"/>
      <point x="620" y="1247" type="curve" smooth="yes"/>
      <point x="308" y="1247"/>
      <point x="66" y="943"/>
      <point x="66" y="592" type="curve" smooth="yes"/>
      <point x="66" y="267"/>
      <point x="249" y="-29"/>
      <point x="564" y="-29" type="curve" smooth="yes"/>
      <point x="863" y="-29"/>
      <point x="1118" y="276"/>
    </contour>
    <contour>
      <point x="949" y="608" type="curve" smooth="yes"/>
      <point x="949" y="267"/>
      <point x="801" y="90"/>
      <point x="595" y="90" type="curve" smooth="yes"/>
      <point x="400" y="90"/>
      <point x="235" y="331"/>
      <point x="235" y="620" type="curve" smooth="yes"/>
      <point x="235" y="935"/>
      <point x="366" y="1133"/>
      <point x="588" y="1133" type="curve" smooth="yes"/>
      <point x="804" y="1133"/>
      <point x="949" y="875"/>
    </contour>
    <contour>
      <point x="511" y="1491" type="curve" smooth="yes"/>
      <point x="511" y="1554"/>
      <point x="480" y="1588"/>
      <point x="421" y="1588" type="curve" smooth="yes"/>
      <point x="356" y="1588"/>
      <point x="301" y="1526"/>
      <point x="301" y="1448" type="curve" smooth="yes"/>
      <point x="301" y="1386"/>
      <point x="329" y="1351"/>
      <point x="390" y="1351" type="curve" smooth="yes"/>
      <point x="458" y="1351"/>
      <point x="511" y="1414"/>
    </contour>
    <contour>
      <point x="904" y="1491" type="curve" smooth="yes"/>
      <point x="904" y="1554"/>
      <point x="874" y="1588"/>
      <point x="815" y="1588" type="curve" smooth="yes"/>
      <point x="750" y="1588"/>
      <point x="695" y="1526"/>
      <point x="695" y="1448" type="curve" smooth="yes"/>
      <point x="695" y="1386"/>
      <point x="723" y="1351"/>
      <point x="784" y="1351" type="curve" smooth="yes"/>
      <point x="851" y="1351"/>
      <point x="904" y="1414"/>
    </contour>
  </outline>
</glyph>
<glyph name="multiply" format="2">
  <advance width="821"/>
  <unicode hex="00D7"/>
  <outline>
    <contour>
      <point x="88" y="271" type="line"/>
      <point x="115" y="260"/>
      <point x="159" y="244"/>
      <point x="184" y="238" type="curve"/>
      <point x="410" y="462" type="line"/>
      <point x="636" y="238" type="line"/>
      <point x="659" y="244"/>
      <point x="705" y="260"/>
      <point x="731" y="271" type="curve"/>
      <point x="731" y="304" type="line"/>
      <point x="490" y="542" type="line"/>
      <point x="730" y="781" type="line"/>
      <point x="730" y="814" type="line"/>
      <point x="705" y="826"/>
      <point x="662" y="840"/>
      <point x="634" y="847" type="curve"/>
      <point x="409" y="623" type="line"/>
      <point x="335" y="698"/>
      <point x="260" y="773"/>
      <point x="185" y="847" type="curve"/>
      <point x="157" y="840"/>
      <point x="115" y="826"/>
      <point x="89" y="814" type="curve"/>
      <point x="89" y="803"/>
      <point x="90" y="792"/>
      <point x="90" y="781" type="curve"/>
      <point x="329" y="543" type="line"/>
      <point x="88" y="304" type="line"/>
    </contour>
  </outline>
</glyph>
<glyph name="Uacute" format="2">
  <advance width="1307"/>
  <unicode hex="00DA"/>
  <outline>
    <contour>
      <point x="1246" y="1171" type="curve"/>
      <point x="1246" y="1218" type="line"/>
      <point x="833" y="1218" type="line"/>
      <point x="833" y="1171" type="line"/>
      <point x="926" y="1152"/>
      <point x="972" y="1126"/>
      <point x="972" y="1111" type="curve" smooth="yes"/>
      <point x="972" y="470" type="line" smooth="yes"/>
      <point x="972" y="278"/>
      <point x="877" y="88"/>
      <point x="692" y="88" type="curve" smooth="yes"/>
      <point x="471" y="88"/>
      <point x="359" y="233"/>
      <point x="359" y="481" type="curve" smooth="yes"/>
      <point x="359" y="1111" type="line" smooth="yes"/>
      <point x="359" y="1129"/>
      <point x="412" y="1152"/>
      <point x="499" y="1171" type="curve"/>
      <point x="499" y="1218" type="line"/>
      <point x="47" y="1218" type="line"/>
      <point x="47" y="1171" type="line"/>
      <point x="140" y="1152"/>
      <point x="186" y="1126"/>
      <point x="186" y="1111" type="curve" smooth="yes"/>
      <point x="186" y="429" type="line" smooth="yes"/>
      <point x="186" y="115"/>
      <point x="383" y="-29"/>
      <point x="650" y="-29" type="curve" smooth="yes"/>
      <point x="930" y="-29"/>
      <point x="1107" y="168"/>
      <point x="1107" y="507" type="curve" smooth="yes"/>
      <point x="1107" y="1111" type="line" smooth="yes"/>
      <point x="1107" y="1129"/>
      <point x="1159" y="1152"/>
    </contour>
    <contour>
      <point x="992" y="1554" type="line"/>
      <point x="983" y="1600" type="line"/>
      <point x="964" y="1620"/>
      <point x="890" y="1660"/>
      <point x="857" y="1679" type="curve"/>
      <point x="733" y="1575"/>
      <point x="609" y="1471"/>
      <point x="485" y="1368" type="curve"/>
      <point x="502" y="1344"/>
      <point x="511" y="1329"/>
      <point x="533" y="1320" type="curve"/>
    </contour>
  </outline>
</glyph>
<glyph name="germandbls" format="2">
  <advance width="1150"/>
  <unicode hex="00DF"/>
  <outline>
    <contour>
      <point x="1070" y="274" type="curve" smooth="yes"/>
      <point x="1070" y="591"/>
      <point x="636" y="573"/>
      <point x="636" y="745" type="curve" smooth="yes"/>
      <point x="636" y="899"/>
      <point x="970" y="834"/>
      <point x="970" y="1151" type="curve" smooth="yes"/>
      <point x="970" y="1297"/>
      <point x="876" y="1499"/>
      <point x="648" y="1499" type="curve" smooth="yes"/>
      <point x="553" y="1499"/>
      <point x="458" y="1464"/>
      <point x="388" y="1410" type="curve" smooth="yes"/>
      <point x="286" y="1330"/>
      <point x="186" y="1236"/>
      <point x="186" y="926" type="curve" smooth="yes"/>
      <point x="186" y="104" type="line" smooth="yes"/>
      <point x="186" y="89"/>
      <point x="139" y="63"/>
      <point x="52" y="47" type="curve"/>
      <point x="52" y="0" type="line"/>
      <point x="350" y="0" type="line"/>
      <point x="350" y="979" type="line" smooth="yes"/>
      <point x="350" y="1299"/>
      <point x="438" y="1373"/>
      <point x="561" y="1373" type="curve" smooth="yes"/>
      <point x="731" y="1373"/>
      <point x="805" y="1221"/>
      <point x="805" y="1085" type="curve" smooth="yes"/>
      <point x="805" y="899"/>
      <point x="483" y="961"/>
      <point x="483" y="705" type="curve" smooth="yes"/>
      <point x="483" y="437"/>
      <point x="925" y="472"/>
      <point x="925" y="208" type="curve" smooth="yes"/>
      <point x="925" y="125"/>
      <point x="857" y="72"/>
      <point x="767" y="72" type="curve" smooth="yes"/>
      <point x="668" y="72"/>
      <point x="552" y="130"/>
      <point x="531" y="271" type="curve"/>
      <point x="515" y="275"/>
      <point x="501" y="280"/>
      <point x="485" y="284" type="curve"/>
      <point x="473" y="267"/>
      <point x="466" y="183"/>
      <point x="466" y="118" type="curve" smooth="yes"/>
      <point x="466" y="81"/>
      <point x="468" y="51"/>
      <point x="473" y="44" type="curve" smooth="yes"/>
      <point x="492" y="14"/>
      <point x="652" y="-29"/>
      <point x="730" y="-29" type="curve" smooth="yes"/>
      <point x="969" y="-29"/>
      <point x="1070" y="120"/>
    </contour>
  </outline>
</glyph>
<glyph name="adieresis" format="2">
  <advance width="930"/>
  <unicode hex="00E4"/>
  <outline>
    <contour>
      <point x="917" y="85" type="curve"/>
      <point x="902" y="134" type="line"/>
      <point x="850" y="113"/>
      <point x="826" y="108"/>
      <point x="807" y="108" type="curve" smooth="yes"/>
      <point x="784" y="108"/>
      <point x="769" y="129"/>
      <point x="769" y="183" type="curve" smooth="yes"/>
      <point x="769" y="713" type="line" smooth="yes"/>
      <point x="769" y="845"/>
      <point x="688" y="928"/>
      <point x="539" y="928" type="curve" smooth="yes"/>
      <point x="364" y="928"/>
      <point x="161" y="810"/>
      <point x="101" y="677" type="curve"/>
      <point x="106" y="661"/>
      <point x="109" y="635"/>
      <point x="125" y="635" type="curve" smooth="yes"/>
      <point x="174" y="635"/>
      <point x="298" y="673"/>
      <point x="298" y="695" type="curve" smooth="yes"/>
      <point x="298" y="699"/>
      <point x="297" y="702"/>
      <point x="297" y="706" type="curve" smooth="yes"/>
      <point x="297" y="781"/>
      <point x="379" y="826"/>
      <point x="457" y="826" type="curve" smooth="yes"/>
      <point x="572" y="826"/>
      <point x="605" y="759"/>
      <point x="605" y="676" type="curve" smooth="yes"/>
      <point x="605" y="543" type="line"/>
      <point x="304" y="499"/>
      <point x="223" y="450"/>
      <point x="162" y="388" type="curve" smooth="yes"/>
      <point x="114" y="339"/>
      <point x="75" y="278"/>
      <point x="75" y="183" type="curve" smooth="yes"/>
      <point x="75" y="33"/>
      <point x="188" y="-29"/>
      <point x="284" y="-29" type="curve" smooth="yes"/>
      <point x="367" y="-29"/>
      <point x="488" y="18"/>
      <point x="605" y="135" type="curve"/>
      <point x="609" y="33"/>
      <point x="641" y="-29"/>
      <point x="685" y="-29" type="curve" smooth="yes"/>
      <point x="723" y="-29"/>
      <point x="807" y="10"/>
    </contour>
    <contour>
      <point x="354" y="105" type="curve" smooth="yes"/>
      <point x="320" y="105"/>
      <point x="251" y="127"/>
      <point x="251" y="227" type="curve" smooth="yes"/>
      <point x="251" y="285"/>
      <point x="275" y="328"/>
      <point x="308" y="363" type="curve" smooth="yes"/>
      <point x="348" y="404"/>
      <point x="401" y="433"/>
      <point x="605" y="467" type="curve"/>
      <point x="605" y="224" type="line"/>
      <point x="507" y="140"/>
      <point x="424" y="105"/>
    </contour>
    <contour>
      <point x="382" y="1220" type="curve" smooth="yes"/>
      <point x="382" y="1284"/>
      <point x="351" y="1317"/>
      <point x="292" y="1317" type="curve" smooth="yes"/>
      <point x="227" y="1317"/>
      <point x="172" y="1256"/>
      <point x="172" y="1178" type="curve" smooth="yes"/>
      <point x="172" y="1116"/>
      <point x="200" y="1080"/>
      <point x="261" y="1080" type="curve" smooth="yes"/>
      <point x="329" y="1080"/>
      <point x="382" y="1144"/>
    </contour>
    <contour>
      <point x="775" y="1220" type="curve" smooth="yes"/>
      <point x="775" y="1284"/>
      <point x="745" y="1317"/>
      <point x="686" y="1317" type="curve" smooth="yes"/>
      <point x="621" y="1317"/>
      <point x="566" y="1256"/>
      <point x="566" y="1178" type="curve" smooth="yes"/>
      <point x="566" y="1116"/>
      <point x="594" y="1080"/>
      <point x="655" y="1080" type="curve" smooth="yes"/>
      <point x="722" y="1080"/>
      <point x="775" y="1144"/>
    </contour>
  </outline>
</glyph>
<glyph name="ae" format="2">
  <advance width="1394"/>
  <unicode hex="00E6"/>
  <outline>
    <contour>
      <point x="1319" y="537" type="curve"/>
      <point x="1319" y="717"/>
      <point x="1242" y="928"/>
      <point x="1006" y="928" type="curve" smooth="yes"/>
      <point x="930" y="928"/>
      <point x="823" y="895"/>
      <point x="739" y="796" type="curve"/>
      <point x="707" y="885"/>
      <point x="640" y="928"/>
      <point x="530" y="928" type="curve" smooth="yes"/>
      <point x="396" y="928"/>
      <point x="131" y="799"/>
      <point x="101" y="636" type="curve"/>
      <point x="115" y="599" type="line"/>
      <point x="118" y="598"/>
      <point x="122" y="598"/>
      <point x="127" y="598" type="curve" smooth="yes"/>
      <point x="174" y="598"/>
      <point x="298" y="633"/>
      <point x="298" y="655" type="curve" smooth="yes"/>
      <point x="298" y="667"/>
      <point x="292" y="679"/>
      <point x="292" y="690" type="curve" smooth="yes"/>
      <point x="292" y="767"/>
      <point x="392" y="826"/>
      <point x="461" y="826" type="curve" smooth="yes"/>
      <point x="580" y="826"/>
      <point x="607" y="742"/>
      <point x="607" y="638" type="curve" smooth="yes"/>
      <point x="607" y="557" type="line"/>
      <point x="239" y="532"/>
      <point x="75" y="352"/>
      <point x="75" y="183" type="curve" smooth="yes"/>
      <point x="75" y="30"/>
      <point x="191" y="-29"/>
      <point x="284" y="-29" type="curve" smooth="yes"/>
      <point x="373" y="-29"/>
      <point x="530" y="38"/>
      <point x="643" y="173" type="curve"/>
      <point x="701" y="45"/>
      <point x="815" y="-29"/>
      <point x="929" y="-29" type="curve" smooth="yes"/>
      <point x="1058" y="-29"/>
      <point x="1155" y="7"/>
      <point x="1311" y="189" type="curve"/>
      <point x="1305" y="198"/>
      <point x="1289" y="224"/>
      <point x="1272" y="232" type="curve"/>
      <point x="1138" y="119"/>
      <point x="1077" y="106"/>
      <point x="996" y="106" type="curve" smooth="yes"/>
      <point x="851" y="106"/>
      <point x="769" y="265"/>
      <point x="769" y="408" type="curve" smooth="yes"/>
      <point x="769" y="428"/>
      <point x="769" y="450"/>
      <point x="770" y="468" type="curve"/>
      <point x="1206" y="468" type="line"/>
      <point x="1247" y="485"/>
      <point x="1294" y="511"/>
    </contour>
    <contour>
      <point x="621" y="239" type="curve"/>
      <point x="527" y="147"/>
      <point x="422" y="105"/>
      <point x="354" y="105" type="curve" smooth="yes"/>
      <point x="318" y="105"/>
      <point x="250" y="129"/>
      <point x="250" y="227" type="curve" smooth="yes"/>
      <point x="250" y="334"/>
      <point x="346" y="446"/>
      <point x="607" y="464" type="curve"/>
      <point x="607" y="355" type="line" smooth="yes"/>
      <point x="607" y="312"/>
      <point x="611" y="275"/>
    </contour>
    <contour>
      <point x="978" y="829" type="curve" smooth="yes"/>
      <point x="1093" y="829"/>
      <point x="1146" y="721"/>
      <point x="1146" y="596" type="curve" smooth="yes"/>
      <point x="1146" y="569"/>
      <point x="1136" y="561"/>
      <point x="1108" y="561" type="curve" smooth="yes"/>
      <point x="778" y="561" type="line"/>
      <point x="812" y="786"/>
      <point x="919" y="829"/>
    </contour>
  </outline>
</glyph>
<glyph name="egrave" format="2">
  <advance width="928"/>
  <unicode hex="00E8"/>
  <outline>
    <contour>
      <point x="853" y="537" type="curve"/>
      <point x="853" y="710"/>
      <point x="768" y="928"/>
      <point x="514" y="928" type="curve" smooth="yes"/>
      <point x="439" y="928"/>
      <point x="346" y="891"/>
      <point x="286" y="849" type="curve" smooth="yes"/>
      <point x="152" y="756"/>
      <point x="75" y="595"/>
      <point x="75" y="421" type="curve" smooth="yes"/>
      <point x="75" y="148"/>
      <point x="251" y="-29"/>
      <point x="454" y="-29" type="curve" smooth="yes"/>
      <point x="593" y="-29"/>
      <point x="673" y="1"/>
      <point x="847" y="189" type="curve"/>
      <point x="841" y="198"/>
      <point x="825" y="224"/>
      <point x="808" y="232" type="curve"/>
      <point x="662" y="116"/>
      <point x="600" y="104"/>
      <point x="518" y="104" type="curve" smooth="yes"/>
      <point x="346" y="104"/>
      <point x="242" y="272"/>
      <point x="239" y="469" type="curve"/>
      <point x="741" y="469" type="line"/>
      <point x="782" y="485"/>
      <point x="830" y="511"/>
    </contour>
    <contour>
      <point x="484" y="824" type="curve" smooth="yes"/>
      <point x="647" y="824"/>
      <point x="679" y="666"/>
      <point x="679" y="596" type="curve" smooth="yes"/>
      <point x="679" y="569"/>
      <point x="671" y="561"/>
      <point x="642" y="561" type="curve" smooth="yes"/>
      <point x="244" y="561" type="line"/>
      <point x="267" y="717"/>
      <point x="354" y="824"/>
    </contour>
    <contour>
      <point x="621" y="1043" type="curve"/>
      <point x="392" y="1444" type="line"/>
      <point x="360" y="1442"/>
      <point x="261" y="1424"/>
      <point x="235" y="1418" type="curve"/>
      <point x="227" y="1404"/>
      <point x="220" y="1390"/>
      <point x="213" y="1375" type="curve"/>
      <point x="560" y="1011" type="line"/>
      <point x="583" y="1017"/>
      <point x="605" y="1028"/>
    </contour>
  </outline>
</glyph>
<glyph name="eacute" format="2">
  <advance width="928"/>
  <unicode hex="00E9"/>
  <outline>
    <contour>
      <point x="853" y="537" type="curve"/>
      <point x="853" y="710"/>
      <point x="768" y="928"/>
      <point x="514" y="928" type="curve" smooth="yes"/>
      <point x="439" y="928"/>
      <point x="346" y="891"/>
      <point x="286" y="849" type="curve" smooth="yes"/>
      <point x="152" y="756"/>
      <point x="75" y="595"/>
      <point x="75" y="421" type="curve" smooth="yes"/>
      <point x="75" y="148"/>
      <point x="251" y="-29"/>
      <point x="454" y="-29" type="curve" smooth="yes"/>
      <point x="593" y="-29"/>
      <point x="673" y="1"/>
      <point x="847" y="189" type="curve"/>
      <point x="841" y="198"/>
      <point x="825" y="224"/>
      <point x="808" y="232" type="curve"/>
      <point x="662" y="116"/>
      <point x="600" y="104"/>
      <point x="518" y="104" type="curve" smooth="yes"/>
      <point x="346" y="104"/>
      <point x="242" y="272"/>
      <point x="239" y="469" type="curve"/>
      <point x="741" y="469" type="line"/>
      <point x="782" y="485"/>
      <point x="830" y="511"/>
    </contour>
    <contour>
      <point x="484" y="824" type="curve" smooth="yes"/>
      <point x="647" y="824"/>
      <point x="679" y="666"/>
      <point x="679" y="596" type="curve" smooth="yes"/>
      <point x="679" y="569"/>
      <point x="671" y="561"/>
      <point x="642" y="561" type="curve" smooth="yes"/>
      <point x="244" y="561" type="line"/>
      <point x="267" y="717"/>
      <point x="354" y="824"/>
    </contour>
    <contour>
      <point x="798" y="1378" type="line"/>
      <point x="790" y="1392"/>
      <point x="783" y="1406"/>
      <point x="775" y="1419" type="curve"/>
      <point x="746" y="1427"/>
      <point x="648" y="1442"/>
      <point x="617" y="1444" type="curve"/>
      <point x="395" y="1041" type="line"/>
      <point x="409" y="1029"/>
      <point x="432" y="1014"/>
      <point x="456" y="1011" type="curve"/>
    </contour>
  </outline>
</glyph>
<glyph name="igrave" format="2">
  <advance width="551"/>
  <unicode hex="00EC"/>
  <outline>
    <contour>
      <point x="403" y="1043" type="curve"/>
      <point x="174" y="1444" type="line"/>
      <point x="142" y="1442"/>
      <point x="43" y="1424"/>
      <point x="17" y="1418" type="curve"/>
      <point x="9" y="1404"/>
      <point x="2" y="1390"/>
      <point x="-5" y="1375" type="curve"/>
      <point x="342" y="1011" type="line"/>
      <point x="365" y="1017"/>
      <point x="387" y="1028"/>
    </contour>
    <contour>
      <point x="499" y="0" type="line"/>
      <point x="499" y="47" type="line"/>
      <point x="405" y="65"/>
      <point x="364" y="91"/>
      <point x="364" y="106" type="curve" smooth="yes"/>
      <point x="364" y="928" type="line"/>
      <point x="325" y="928" type="line"/>
      <point x="255" y="896"/>
      <point x="154" y="867"/>
      <point x="67" y="852" type="curve"/>
      <point x="67" y="808" type="line"/>
      <point x="204" y="795"/>
      <point x="201" y="776"/>
      <point x="201" y="643" type="curve" smooth="yes"/>
      <point x="201" y="106" type="line" smooth="yes"/>
      <point x="201" y="89"/>
      <point x="154" y="65"/>
      <point x="67" y="47" type="curve"/>
      <point x="67" y="0" type="line"/>
    </contour>
  </outline>
</glyph>
<glyph name="iacute" format="2">
  <advance width="551"/>
  <unicode hex="00ED"/>
  <outline>
    <contour>
      <point x="579" y="1378" type="line"/>
      <point x="571" y="1392"/>
      <point x="564" y="1406"/>
      <point x="556" y="1419" type="curve"/>
      <point x="527" y="1427"/>
      <point x="429" y="1442"/>
      <point x="398" y="1444" type="curve"/>
      <point x="176" y="1041" type="line"/>
      <point x="190" y="1029"/>
      <point x="213" y="1014"/>
      <point x="237" y="1011" type="curve"/>
    </contour>
    <contour>
      <point x="499" y="0" type="line"/>
      <point x="499" y="47" type="line"/>
      <point x="405" y="65"/>
      <point x="364" y="91"/>
      <point x="364" y="106" type="curve" smooth="yes"/>
      <point x="364" y="928" type="line"/>
      <point x="325" y="928" type="line"/>
      <point x="255" y="896"/>
      <point x="154" y="867"/>
      <point x="67" y="852" type="curve"/>
      <point x="67" y="808" type="line"/>
      <point x="204" y="795"/>
      <point x="201" y="776"/>
      <point x="201" y="643" type="curve" smooth="yes"/>
      <point x="201" y="106" type="line" smooth="yes"/>
      <point x="201" y="89"/>
      <point x="154" y="65"/>
      <point x="67" y="47" type="curve"/>
      <point x="67" y="0" type="line"/>
    </contour>
  </outline>
</glyph>
<glyph name="idieresis" format="2">
  <advance width="551"/>
  <unicode hex="00EF"/>
  <outline>
    <contour>
      <point x="191" y="1220" type="curve" smooth="yes"/>
      <point x="191" y="1284"/>
      <point x="160" y="1317"/>
      <point x="101" y="1317" type="curve" smooth="yes"/>
      <point x="36" y="1317"/>
      <point x="-19" y="1256"/>
      <point x="-19" y="1178" type="curve" smooth="yes"/>
      <point x="-19" y="1116"/>
      <point x="9" y="1080"/>
      <point x="70" y="1080" type="curve" smooth="yes"/>
      <point x="138" y="1080"/>
      <point x="191" y="1144"/>
    </contour>
    <contour>
      <point x="584" y="1220" type="curve" smooth="yes"/>
      <point x="584" y="1284"/>
      <point x="554" y="1317"/>
      <point x="495" y="1317" type="curve" smooth="yes"/>
      <point x="430" y="1317"/>
      <point x="375" y="1256"/>
      <point x="375" y="1178" type="curve" smooth="yes"/>
      <point x="375" y="1116"/>
      <point x="403" y="1080"/>
      <point x="464" y="1080" type="curve" smooth="yes"/>
      <point x="531" y="1080"/>
      <point x="584" y="1144"/>
    </contour>
    <contour>
      <point x="499" y="0" type="line"/>
      <point x="499" y="47" type="line"/>
      <point x="405" y="65"/>
      <point x="364" y="91"/>
      <point x="364" y="106" type="curve" smooth="yes"/>
      <point x="364" y="928" type="line"/>
      <point x="325" y="928" type="line"/>
      <point x="255" y="896"/>
      <point x="154" y="867"/>
      <point x="67" y="852" type="curve"/>
      <point x="67" y="808" type="line"/>
      <point x="204" y="795"/>
      <point x="201" y="776"/>
      <point x="201" y="643" type="curve" smooth="yes"/>
      <point x="201" y="106" type="line" smooth="yes"/>
      <point x="201" y="89"/>
      <point x="154" y="65"/>
      <point x="67" y="47" type="curve"/>
      <point x="67" y="0" type="line"/>
    </contour>
  </outline>
</glyph>
<glyph name="eth" format="2">
  <advance width="997"/>
  <unicode hex="00F0"/>
  <outline>
    <contour>
      <point x="917" y="575" type="curve" smooth="yes"/>
      <point x="917" y="779"/>
      <point x="845" y="987"/>
      <point x="667" y="1179" type="curve"/>
      <point x="899" y="1277" type="line"/>
      <point x="893" y="1312" type="line"/>
      <point x="859" y="1324"/>
      <point x="857" y="1325"/>
      <point x="795" y="1334" type="curve"/>
      <point x="729" y="1305"/>
      <point x="663" y="1277"/>
      <point x="597" y="1249" type="curve"/>
      <point x="541" y="1300"/>
      <point x="474" y="1351"/>
      <point x="402" y="1398" type="curve"/>
      <point x="194" y="1324" type="line"/>
      <point x="197" y="1309"/>
      <point x="199" y="1294"/>
      <point x="201" y="1278" type="curve"/>
      <point x="217" y="1280"/>
      <point x="232" y="1281"/>
      <point x="246" y="1281" type="curve" smooth="yes"/>
      <point x="334" y="1281"/>
      <point x="404" y="1242"/>
      <point x="465" y="1192" type="curve"/>
      <point x="216" y="1085" type="line"/>
      <point x="225" y="1047" type="line"/>
      <point x="270" y="1034"/>
      <point x="272" y="1035"/>
      <point x="321" y="1030" type="curve"/>
      <point x="537" y="1123" type="line"/>
      <point x="626" y="1031"/>
      <point x="687" y="933"/>
      <point x="722" y="809" type="curve"/>
      <point x="659" y="876"/>
      <point x="569" y="928"/>
      <point x="491" y="928" type="curve" smooth="yes"/>
      <point x="274" y="928"/>
      <point x="75" y="686"/>
      <point x="75" y="429" type="curve" smooth="yes"/>
      <point x="75" y="166"/>
      <point x="229" y="-29"/>
      <point x="486" y="-29" type="curve" smooth="yes"/>
      <point x="637" y="-29"/>
      <point x="917" y="128"/>
    </contour>
    <contour>
      <point x="754" y="571" type="curve"/>
      <point x="754" y="568"/>
      <point x="754" y="564"/>
      <point x="754" y="560" type="curve" smooth="yes"/>
      <point x="754" y="225"/>
      <point x="646" y="80"/>
      <point x="496" y="80" type="curve" smooth="yes"/>
      <point x="384" y="80"/>
      <point x="242" y="256"/>
      <point x="242" y="460" type="curve" smooth="yes"/>
      <point x="242" y="666"/>
      <point x="318" y="817"/>
      <point x="464" y="817" type="curve" smooth="yes"/>
      <point x="571" y="817"/>
      <point x="706" y="717"/>
    </contour>
  </outline>
</glyph>
<glyph name="ntilde" format="2">
  <advance width="1110"/>
  <unicode hex="00F1"/>
  <outline>
    <contour>
      <point x="1082" y="0" type="line"/>
      <point x="1082" y="47" type="line"/>
      <point x="980" y="73"/>
      <point x="947" y="89"/>
      <point x="947" y="106" type="curve" smooth="yes"/>
      <point x="947" y="709" type="line" smooth="yes"/>
      <point x="947" y="862"/>
      <point x="844" y="928"/>
      <point x="733" y="928" type="curve" smooth="yes"/>
      <point x="631" y="928"/>
      <point x="467" y="836"/>
      <point x="346" y="673" type="curve"/>
      <point x="335" y="893" type="line"/>
      <point x="300" y="928" type="line"/>
      <point x="223" y="893"/>
      <point x="146" y="865"/>
      <point x="52" y="852" type="curve"/>
      <point x="52" y="808" type="line"/>
      <point x="183" y="793"/>
      <point x="186" y="783"/>
      <point x="186" y="683" type="curve" smooth="yes"/>
      <point x="186" y="106" type="line" smooth="yes"/>
      <point x="186" y="85"/>
      <point x="137" y="69"/>
      <point x="52" y="47" type="curve"/>
      <point x="52" y="0" type="line"/>
      <point x="484" y="0" type="line"/>
      <point x="484" y="47" type="line"/>
      <point x="401" y="65"/>
      <point x="350" y="87"/>
      <point x="350" y="106" type="curve" smooth="yes"/>
      <point x="350" y="548" type="line"/>
      <point x="475" y="729"/>
      <point x="588" y="792"/>
      <point x="664" y="792" type="curve" smooth="yes"/>
      <point x="752" y="792"/>
      <point x="784" y="757"/>
      <point x="784" y="603" type="curve" smooth="yes"/>
      <point x="784" y="106" type="line" smooth="yes"/>
      <point x="784" y="89"/>
      <point x="743" y="71"/>
      <point x="650" y="47" type="curve"/>
      <point x="650" y="0" type="line"/>
    </contour>
    <contour>
      <point x="908" y="1307" type="curve"/>
      <point x="851" y="1331" type="line"/>
      <point x="807" y="1255"/>
      <point x="761" y="1213"/>
      <point x="710" y="1213" type="curve" smooth="yes"/>
      <point x="644" y="1213"/>
      <point x="564" y="1321"/>
      <point x="461" y="1321" type="curve" smooth="yes"/>
      <point x="357" y="1321"/>
      <point x="271" y="1197"/>
      <point x="225" y="1092" type="curve"/>
      <point x="280" y="1071" type="line"/>
      <point x="328" y="1143"/>
      <point x="366" y="1187"/>
      <point x="419" y="1187" type="curve" smooth="yes"/>
      <point x="500" y="1187"/>
      <point x="577" y="1079"/>
      <point x="670" y="1079" type="curve" smooth="yes"/>
      <point x="775" y="1079"/>
      <point x="862" y="1203"/>
    </contour>
  </outline>
</glyph>
<glyph name="oacute" format="2">
  <advance width="1010"/>
  <unicode hex="00F3"/>
  <outline>
    <contour>
      <point x="935" y="469" type="curve" smooth="yes"/>
      <point x="935" y="733"/>
      <point x="773" y="928"/>
      <point x="524" y="928" type="curve" smooth="yes"/>
      <point x="274" y="928"/>
      <point x="75" y="686"/>
      <point x="75" y="429" type="curve" smooth="yes"/>
      <point x="75" y="166"/>
      <point x="237" y="-29"/>
      <point x="486" y="-29" type="curve" smooth="yes"/>
      <point x="727" y="-29"/>
      <point x="935" y="212"/>
    </contour>
    <contour>
      <point x="765" y="437" type="curve" smooth="yes"/>
      <point x="765" y="218"/>
      <point x="692" y="80"/>
      <point x="514" y="80" type="curve" smooth="yes"/>
      <point x="394" y="80"/>
      <point x="244" y="253"/>
      <point x="244" y="457" type="curve" smooth="yes"/>
      <point x="244" y="661"/>
      <point x="306" y="819"/>
      <point x="496" y="819" type="curve" smooth="yes"/>
      <point x="630" y="819"/>
      <point x="765" y="641"/>
    </contour>
    <contour>
      <point x="821" y="1378" type="line"/>
      <point x="813" y="1392"/>
      <point x="806" y="1406"/>
      <point x="798" y="1419" type="curve"/>
      <point x="769" y="1427"/>
      <point x="671" y="1442"/>
      <point x="640" y="1444" type="curve"/>
      <point x="418" y="1041" type="line"/>
      <point x="432" y="1029"/>
      <point x="455" y="1014"/>
      <point x="479" y="1011" type="curve"/>
    </contour>
  </outline>
</glyph>
<glyph name="otilde" format="2">
  <advance width="1010"/>
  <unicode hex="00F5"/>
  <outline>
    <contour>
      <point x="935" y="469" type="curve" smooth="yes"/>
      <point x="935" y="733"/>
      <point x="773" y="928"/>
      <point x="524" y="928" type="curve" smooth="yes"/>
      <point x="274" y="928"/>
      <point x="75" y="686"/>
      <point x="75" y="429" type="curve" smooth="yes"/>
      <point x="75" y="166"/>
      <point x="237" y="-29"/>
      <point x="486" y="-29" type="curve" smooth="yes"/>
      <point x="727" y="-29"/>
      <point x="935" y="212"/>
    </contour>
    <contour>
      <point x="765" y="437" type="curve" smooth="yes"/>
      <point x="765" y="218"/>
      <point x="692" y="80"/>
      <point x="514" y="80" type="curve" smooth="yes"/>
      <point x="394" y="80"/>
      <point x="244" y="253"/>
      <point x="244" y="457" type="curve" smooth="yes"/>
      <point x="244" y="661"/>
      <point x="306" y="819"/>
      <point x="496" y="819" type="curve" smooth="yes"/>
      <point x="630" y="819"/>
      <point x="765" y="641"/>
    </contour>
    <contour>
      <point x="867" y="1307" type="curve"/>
      <point x="810" y="1331" type="line"/>
      <point x="766" y="1255"/>
      <point x="720" y="1213"/>
      <point x="669" y="1213" type="curve" smooth="yes"/>
      <point x="603" y="1213"/>
      <point x="523" y="1321"/>
      <point x="420" y="1321" type="curve" smooth="yes"/>
      <point x="316" y="1321"/>
      <point x="230" y="1197"/>
      <point x="184" y="1092" type="curve"/>
      <point x="239" y="1071" type="line"/>
      <point x="287" y="1143"/>
      <point x="325" y="1187"/>
      <point x="378" y="1187" type="curve" smooth="yes"/>
      <point x="459" y="1187"/>
      <point x="536" y="1079"/>
      <point x="629" y="1079" type="curve" smooth="yes"/>
      <point x="734" y="1079"/>
      <point x="821" y="1203"/>
    </contour>
  </outline>
</glyph>
<glyph name="odieresis" format="2">
  <advance width="1010"/>
  <unicode hex="00F6"/>
  <outline>
    <contour>
      <point x="935" y="469" type="curve" smooth="yes"/>
      <point x="935" y="733"/>
      <point x="773" y="928"/>
      <point x="524" y="928" type="curve" smooth="yes"/>
      <point x="274" y="928"/>
      <point x="75" y="686"/>
      <point x="75" y="429" type="curve" smooth="yes"/>
      <point x="75" y="166"/>
      <point x="237" y="-29"/>
      <point x="486" y="-29" type="curve" smooth="yes"/>
      <point x="727" y="-29"/>
      <point x="935" y="212"/>
    </contour>
    <contour>
      <point x="765" y="437" type="curve" smooth="yes"/>
      <point x="765" y="218"/>
      <point x="692" y="80"/>
      <point x="514" y="80" type="curve" smooth="yes"/>
      <point x="394" y="80"/>
      <point x="244" y="253"/>
      <point x="244" y="457" type="curve" smooth="yes"/>
      <point x="244" y="661"/>
      <point x="306" y="819"/>
      <point x="496" y="819" type="curve" smooth="yes"/>
      <point x="630" y="819"/>
      <point x="765" y="641"/>
    </contour>
    <contour>
      <point x="433" y="1220" type="curve" smooth="yes"/>
      <point x="433" y="1284"/>
      <point x="402" y="1317"/>
      <point x="343" y="1317" type="curve" smooth="yes"/>
      <point x="278" y="1317"/>
      <point x="223" y="1256"/>
      <point x="223" y="1178" type="curve" smooth="yes"/>
      <point x="223" y="1116"/>
      <point x="251" y="1080"/>
      <point x="312" y="1080" type="curve" smooth="yes"/>
      <point x="380" y="1080"/>
      <point x="433" y="1144"/>
    </contour>
    <contour>
      <point x="826" y="1220" type="curve" smooth="yes"/>
      <point x="826" y="1284"/>
      <point x="796" y="1317"/>
      <point x="737" y="1317" type="curve" smooth="yes"/>
      <point x="672" y="1317"/>
      <point x="617" y="1256"/>
      <point x="617" y="1178" type="curve" smooth="yes"/>
      <point x="617" y="1116"/>
      <point x="645" y="1080"/>
      <point x="706" y="1080" type="curve" smooth="yes"/>
      <point x="773" y="1080"/>
      <point x="826" y="1144"/>
    </contour>
  </outline>
</glyph>
<glyph name="divide" format="2">
  <advance width="821"/>
  <unicode hex="00F7"/>
  <outline>
    <contour>
      <point x="762" y="574" type="curve"/>
      <point x="737" y="600" type="line"/>
      <point x="90" y="600" type="line"/>
      <point x="78" y="574"/>
      <point x="64" y="538"/>
      <point x="57" y="511" type="curve"/>
      <point x="83" y="487" type="line"/>
      <point x="730" y="487" type="line"/>
      <point x="740" y="509"/>
      <point x="756" y="548"/>
    </contour>
    <contour>
      <point x="492" y="797" type="curve" smooth="yes"/>
      <point x="492" y="848"/>
      <point x="470" y="875"/>
      <point x="423" y="875" type="curve" smooth="yes"/>
      <point x="370" y="875"/>
      <point x="328" y="826"/>
      <point x="328" y="765" type="curve" smooth="yes"/>
      <point x="328" y="715"/>
      <point x="349" y="686"/>
      <point x="397" y="686" type="curve" smooth="yes"/>
      <point x="451" y="686"/>
      <point x="492" y="737"/>
    </contour>
    <contour>
      <point x="492" y="326" type="curve" smooth="yes"/>
      <point x="492" y="377"/>
      <point x="470" y="403"/>
      <point x="423" y="403" type="curve" smooth="yes"/>
      <point x="370" y="403"/>
      <point x="328" y="354"/>
      <point x="328" y="293" type="curve" smooth="yes"/>
      <point x="328" y="242"/>
      <point x="349" y="214"/>
      <point x="397" y="214" type="curve" smooth="yes"/>
      <point x="451" y="214"/>
      <point x="492" y="265"/>
    </contour>
  </outline>
</glyph>
<glyph name="oslash" format="2">
  <advance width="1010"/>
  <unicode hex="00F8"/>
  <outline>
    <contour>
      <point x="899" y="951" type="line"/>
      <point x="861" y="941"/>
      <point x="809" y="905"/>
      <point x="774" y="883" type="curve"/>
      <point x="755" y="858" type="line"/>
      <point x="691" y="902"/>
      <point x="612" y="928"/>
      <point x="524" y="928" type="curve" smooth="yes"/>
      <point x="274" y="928"/>
      <point x="75" y="686"/>
      <point x="75" y="429" type="curve" smooth="yes"/>
      <point x="75" y="301"/>
      <point x="114" y="190"/>
      <point x="182" y="108" type="curve"/>
      <point x="84" y="-19" type="line"/>
      <point x="112" y="-51" type="line"/>
      <point x="145" y="-42"/>
      <point x="215" y="-2"/>
      <point x="239" y="16" type="curve"/>
      <point x="257" y="40" type="line"/>
      <point x="319" y="-3"/>
      <point x="398" y="-29"/>
      <point x="486" y="-29" type="curve" smooth="yes"/>
      <point x="727" y="-29"/>
      <point x="935" y="212"/>
      <point x="935" y="469" type="curve" smooth="yes"/>
      <point x="935" y="596"/>
      <point x="897" y="707"/>
      <point x="830" y="788" type="curve"/>
      <point x="929" y="919" type="line"/>
    </contour>
    <contour>
      <point x="242" y="457" type="curve" smooth="yes"/>
      <point x="242" y="661"/>
      <point x="306" y="819"/>
      <point x="496" y="819" type="curve" smooth="yes"/>
      <point x="552" y="819"/>
      <point x="611" y="785"/>
      <point x="659" y="733" type="curve"/>
      <point x="537" y="573"/>
      <point x="416" y="415"/>
      <point x="295" y="255" type="curve"/>
      <point x="263" y="313"/>
      <point x="242" y="384"/>
    </contour>
    <contour>
      <point x="767" y="437" type="curve" smooth="yes"/>
      <point x="767" y="218"/>
      <point x="692" y="80"/>
      <point x="514" y="80" type="curve" smooth="yes"/>
      <point x="462" y="80"/>
      <point x="403" y="114"/>
      <point x="354" y="166" type="curve"/>
      <point x="717" y="642" type="line"/>
      <point x="747" y="583"/>
      <point x="767" y="510"/>
    </contour>
  </outline>
</glyph>
<glyph name="uacute" format="2">
  <advance width="1068"/>
  <unicode hex="00FA"/>
  <outline>
    <contour>
      <point x="1054" y="85" type="curve"/>
      <point x="1049" y="101"/>
      <point x="1045" y="117"/>
      <point x="1041" y="134" type="curve"/>
      <point x="996" y="115"/>
      <point x="967" y="107"/>
      <point x="947" y="107" type="curve" smooth="yes"/>
      <point x="910" y="107"/>
      <point x="904" y="144"/>
      <point x="904" y="251" type="curve" smooth="yes"/>
      <point x="904" y="889" type="line"/>
      <point x="873" y="928" type="line"/>
      <point x="797" y="904"/>
      <point x="707" y="877"/>
      <point x="606" y="865" type="curve"/>
      <point x="606" y="821" type="line"/>
      <point x="725" y="815"/>
      <point x="741" y="799"/>
      <point x="741" y="683" type="curve" smooth="yes"/>
      <point x="741" y="253" type="line"/>
      <point x="629" y="138"/>
      <point x="545" y="97"/>
      <point x="467" y="97" type="curve" smooth="yes"/>
      <point x="378" y="97"/>
      <point x="326" y="148"/>
      <point x="326" y="324" type="curve" smooth="yes"/>
      <point x="326" y="889" type="line"/>
      <point x="297" y="928" type="line"/>
      <point x="207" y="894"/>
      <point x="138" y="877"/>
      <point x="38" y="865" type="curve"/>
      <point x="38" y="821" type="line"/>
      <point x="158" y="809"/>
      <point x="162" y="806"/>
      <point x="162" y="683" type="curve" smooth="yes"/>
      <point x="162" y="270" type="line" smooth="yes"/>
      <point x="162" y="28"/>
      <point x="276" y="-29"/>
      <point x="397" y="-29" type="curve" smooth="yes"/>
      <point x="479" y="-29"/>
      <point x="579" y="-1"/>
      <point x="741" y="155" type="curve"/>
      <point x="750" y="22"/>
      <point x="782" y="-29"/>
      <point x="828" y="-29" type="curve" smooth="yes"/>
      <point x="860" y="-29"/>
      <point x="958" y="23"/>
    </contour>
    <contour>
      <point x="833" y="1378" type="line"/>
      <point x="825" y="1392"/>
      <point x="818" y="1406"/>
      <point x="810" y="1419" type="curve"/>
      <point x="781" y="1427"/>
      <point x="683" y="1442"/>
      <point x="652" y="1444" type="curve"/>
      <point x="430" y="1041" type="line"/>
      <point x="444" y="1029"/>
      <point x="467" y="1014"/>
      <point x="491" y="1011" type="curve"/>
    </contour>
  </outline>
</glyph>
<glyph name="ucircumflex" format="2">
  <advance width="1068"/>
  <unicode hex="00FB"/>
  <outline>
    <contour>
      <point x="1054" y="85" type="curve"/>
      <point x="1049" y="101"/>
      <point x="1045" y="117"/>
      <point x="1041" y="134" type="curve"/>
      <point x="996" y="115"/>
      <point x="967" y="107"/>
      <point x="947" y="107" type="curve" smooth="yes"/>
      <point x="910" y="107"/>
      <point x="904" y="144"/>
      <point x="904" y="251" type="curve" smooth="yes"/>
      <point x="904" y="889" type="line"/>
      <point x="873" y="928" type="line"/>
      <point x="797" y="904"/>
      <point x="707" y="877"/>
      <point x="606" y="865" type="curve"/>
      <point x="606" y="821" type="line"/>
      <point x="725" y="815"/>
      <point x="741" y="799"/>
      <point x="741" y="683" type="curve" smooth="yes"/>
      <point x="741" y="253" type="line"/>
      <point x="629" y="138"/>
      <point x="545" y="97"/>
      <point x="467" y="97" type="curve" smooth="yes"/>
      <point x="378" y="97"/>
      <point x="326" y="148"/>
      <point x="326" y="324" type="curve" smooth="yes"/>
      <point x="326" y="889" type="line"/>
      <point x="297" y="928" type="line"/>
      <point x="207" y="894"/>
      <point x="138" y="877"/>
      <point x="38" y="865" type="curve"/>
      <point x="38" y="821" type="line"/>
      <point x="158" y="809"/>
      <point x="162" y="806"/>
      <point x="162" y="683" type="curve" smooth="yes"/>
      <point x="162" y="270" type="line" smooth="yes"/>
      <point x="162" y="28"/>
      <point x="276" y="-29"/>
      <point x="397" y="-29" type="curve" smooth="yes"/>
      <point x="479" y="-29"/>
      <point x="579" y="-1"/>
      <point x="741" y="155" type="curve"/>
      <point x="750" y="22"/>
      <point x="782" y="-29"/>
      <point x="828" y="-29" type="curve" smooth="yes"/>
      <point x="860" y="-29"/>
      <point x="958" y="23"/>
    </contour>
    <contour>
      <point x="848" y="1059" type="curve"/>
      <point x="762" y="1181"/>
      <point x="677" y="1304"/>
      <point x="592" y="1426" type="curve"/>
      <point x="482" y="1426" type="line"/>
      <point x="396" y="1304"/>
      <point x="310" y="1181"/>
      <point x="223" y="1059" type="curve"/>
      <point x="241" y="1035"/>
      <point x="249" y="1020"/>
      <point x="271" y="1011" type="curve"/>
      <point x="536" y="1261" type="line"/>
      <point x="803" y="1011" type="line"/>
      <point x="825" y="1020"/>
      <point x="832" y="1035"/>
    </contour>
  </outline>
</glyph>
<glyph name="thorn" format="2">
  <advance width="1067"/>
  <unicode hex="00FE"/>
  <outline>
    <contour>
      <point x="991" y="479" type="curve" smooth="yes"/>
      <point x="991" y="761"/>
      <point x="859" y="928"/>
      <point x="682" y="928" type="curve" smooth="yes"/>
      <point x="608" y="928"/>
      <point x="485" y="871"/>
      <point x="350" y="721" type="curve"/>
      <point x="350" y="1464" type="line"/>
      <point x="337" y="1475"/>
      <point x="325" y="1487"/>
      <point x="312" y="1499" type="curve"/>
      <point x="230" y="1458"/>
      <point x="155" y="1440"/>
      <point x="52" y="1421" type="curve"/>
      <point x="52" y="1377" type="line"/>
      <point x="162" y="1364"/>
      <point x="186" y="1364"/>
      <point x="186" y="1248" type="curve" smooth="yes"/>
      <point x="186" y="-357" type="line" smooth="yes"/>
      <point x="186" y="-379"/>
      <point x="137" y="-396"/>
      <point x="52" y="-417" type="curve"/>
      <point x="52" y="-464" type="line"/>
      <point x="515" y="-464" type="line"/>
      <point x="515" y="-417" type="line"/>
      <point x="393" y="-398"/>
      <point x="350" y="-377"/>
      <point x="350" y="-357" type="curve" smooth="yes"/>
      <point x="350" y="72" type="line"/>
      <point x="445" y="-2"/>
      <point x="532" y="-29"/>
      <point x="579" y="-29" type="curve" smooth="yes"/>
      <point x="800" y="-29"/>
      <point x="991" y="248"/>
    </contour>
    <contour>
      <point x="842" y="398" type="curve" smooth="yes"/>
      <point x="842" y="241"/>
      <point x="763" y="96"/>
      <point x="625" y="96" type="curve" smooth="yes"/>
      <point x="540" y="96"/>
      <point x="456" y="131"/>
      <point x="350" y="209" type="curve"/>
      <point x="350" y="603" type="line"/>
      <point x="463" y="754"/>
      <point x="560" y="798"/>
      <point x="607" y="798" type="curve" smooth="yes"/>
      <point x="730" y="798"/>
      <point x="842" y="650"/>
    </contour>
  </outline>
</glyph>
<glyph name="ydieresis" format="2">
  <advance width="988"/>
  <unicode hex="00FF"/>
  <outline>
    <contour>
      <point x="969" y="852" type="curve"/>
      <point x="969" y="899" type="line"/>
      <point x="645" y="899" type="line"/>
      <point x="645" y="852" type="line"/>
      <point x="724" y="839"/>
      <point x="753" y="830"/>
      <point x="753" y="804" type="curve" smooth="yes"/>
      <point x="753" y="798"/>
      <point x="752" y="793"/>
      <point x="750" y="786" type="curve" smooth="yes"/>
      <point x="532" y="196" type="line"/>
      <point x="300" y="786" type="line" smooth="yes"/>
      <point x="297" y="794"/>
      <point x="295" y="801"/>
      <point x="295" y="807" type="curve" smooth="yes"/>
      <point x="295" y="832"/>
      <point x="325" y="841"/>
      <point x="406" y="852" type="curve"/>
      <point x="406" y="899" type="line"/>
      <point x="18" y="899" type="line"/>
      <point x="18" y="852" type="line"/>
      <point x="82" y="837"/>
      <point x="114" y="822"/>
      <point x="126" y="786" type="curve"/>
      <point x="232" y="516"/>
      <point x="340" y="247"/>
      <point x="446" y="-22" type="curve"/>
      <point x="418" y="-89" type="line" smooth="yes"/>
      <point x="372" y="-200"/>
      <point x="295" y="-293"/>
      <point x="247" y="-309" type="curve" smooth="yes"/>
      <point x="228" y="-315"/>
      <point x="206" y="-320"/>
      <point x="183" y="-320" type="curve" smooth="yes"/>
      <point x="147" y="-320"/>
      <point x="108" y="-311"/>
      <point x="71" y="-288" type="curve"/>
      <point x="29" y="-314"/>
      <point x="-48" y="-411"/>
      <point x="-48" y="-427" type="curve" smooth="yes"/>
      <point x="-48" y="-452"/>
      <point x="27" y="-482"/>
      <point x="126" y="-482" type="curve" smooth="yes"/>
      <point x="263" y="-482"/>
      <point x="428" y="-363"/>
      <point x="537" y="-77" type="curve" smooth="yes"/>
      <point x="646" y="209"/>
      <point x="754" y="497"/>
      <point x="862" y="786" type="curve" smooth="yes"/>
      <point x="876" y="823"/>
      <point x="890" y="833"/>
    </contour>
    <contour>
      <point x="426" y="1220" type="curve" smooth="yes"/>
      <point x="426" y="1284"/>
      <point x="395" y="1317"/>
      <point x="336" y="1317" type="curve" smooth="yes"/>
      <point x="271" y="1317"/>
      <point x="216" y="1256"/>
      <point x="216" y="1178" type="curve" smooth="yes"/>
      <point x="216" y="1116"/>
      <point x="244" y="1080"/>
      <point x="305" y="1080" type="curve" smooth="yes"/>
      <point x="373" y="1080"/>
      <point x="426" y="1144"/>
    </contour>
    <contour>
      <point x="819" y="1220" type="curve" smooth="yes"/>
      <point x="819" y="1284"/>
      <point x="789" y="1317"/>
      <point x="730" y="1317" type="curve" smooth="yes"/>
      <point x="665" y="1317"/>
      <point x="610" y="1256"/>
      <point x="610" y="1178" type="curve" smooth="yes"/>
      <point x="610" y="1116"/>
      <point x="638" y="1080"/>
      <point x="699" y="1080" type="curve" smooth="yes"/>
      <point x="766" y="1080"/>
      <point x="819" y="1144"/>
    </contour>
  </outline>
</glyph>
<glyph name="Amacron" format="2">
  <advance width="1199"/>
  <unicode hex="0100"/>
  <outline>
    <contour>
      <point x="767" y="427" type="line"/>
      <point x="802" y="322"/>
      <point x="839" y="218"/>
      <point x="875" y="113" type="curve" smooth="yes"/>
      <point x="877" y="107"/>
      <point x="878" y="101"/>
      <point x="878" y="96" type="curve" smooth="yes"/>
      <point x="878" y="65"/>
      <point x="839" y="52"/>
      <point x="752" y="47" type="curve"/>
      <point x="752" y="0" type="line"/>
      <point x="1178" y="0" type="line"/>
      <point x="1178" y="47" type="line"/>
      <point x="1093" y="57"/>
      <point x="1064" y="77"/>
      <point x="1052" y="113" type="curve" smooth="yes"/>
      <point x="916" y="500"/>
      <point x="778" y="886"/>
      <point x="643" y="1274" type="curve"/>
      <point x="603" y="1255"/>
      <point x="545" y="1226"/>
      <point x="509" y="1190" type="curve"/>
      <point x="152" y="113" type="line" smooth="yes"/>
      <point x="139" y="74"/>
      <point x="87" y="63"/>
      <point x="0" y="47" type="curve"/>
      <point x="0" y="0" type="line"/>
      <point x="408" y="0" type="line"/>
      <point x="408" y="47" type="line"/>
      <point x="313" y="58"/>
      <point x="266" y="70"/>
      <point x="266" y="101" type="curve" smooth="yes"/>
      <point x="266" y="104"/>
      <point x="266" y="109"/>
      <point x="268" y="113" type="curve"/>
      <point x="302" y="218"/>
      <point x="337" y="322"/>
      <point x="372" y="427" type="curve"/>
    </contour>
    <contour>
      <point x="403" y="520" type="line"/>
      <point x="565" y="1008" type="line"/>
      <point x="622" y="845"/>
      <point x="678" y="683"/>
      <point x="734" y="520" type="curve"/>
    </contour>
    <contour>
      <point x="944" y="1514" type="curve"/>
      <point x="921" y="1538" type="line"/>
      <point x="296" y="1538" type="line"/>
      <point x="283" y="1513"/>
      <point x="259" y="1460"/>
      <point x="253" y="1432" type="curve"/>
      <point x="276" y="1407" type="line"/>
      <point x="903" y="1407" type="line"/>
      <point x="913" y="1430"/>
      <point x="938" y="1486"/>
    </contour>
  </outline>
</glyph>
<glyph name="amacron" format="2">
  <advance width="930"/>
  <unicode hex="0101"/>
  <outline>
    <contour>
      <point x="917" y="85" type="curve"/>
      <point x="902" y="134" type="line"/>
      <point x="850" y="113"/>
      <point x="826" y="108"/>
      <point x="807" y="108" type="curve" smooth="yes"/>
      <point x="784" y="108"/>
      <point x="769" y="129"/>
      <point x="769" y="183" type="curve" smooth="yes"/>
      <point x="769" y="713" type="line" smooth="yes"/>
      <point x="769" y="845"/>
      <point x="688" y="928"/>
      <point x="539" y="928" type="curve" smooth="yes"/>
      <point x="364" y="928"/>
      <point x="161" y="810"/>
      <point x="101" y="677" type="curve"/>
      <point x="106" y="661"/>
      <point x="109" y="635"/>
      <point x="125" y="635" type="curve" smooth="yes"/>
      <point x="174" y="635"/>
      <point x="298" y="673"/>
      <point x="298" y="695" type="curve" smooth="yes"/>
      <point x="298" y="699"/>
      <point x="297" y="702"/>
      <point x="297" y="706" type="curve" smooth="yes"/>
      <point x="297" y="781"/>
      <point x="379" y="826"/>
      <point x="457" y="826" type="curve" smooth="yes"/>
      <point x="572" y="826"/>
      <point x="605" y="759"/>
      <point x="605" y="676" type="curve" smooth="yes"/>
      <point x="605" y="543" type="line"/>
      <point x="304" y="499"/>
      <point x="223" y="450"/>
      <point x="162" y="388" type="curve" smooth="yes"/>
      <point x="114" y="339"/>
      <point x="75" y="278"/>
      <point x="75" y="183" type="curve" smooth="yes"/>
      <point x="75" y="33"/>
      <point x="188" y="-29"/>
      <point x="284" y="-29" type="curve" smooth="yes"/>
      <point x="367" y="-29"/>
      <point x="488" y="18"/>
      <point x="605" y="135" type="curve"/>
      <point x="609" y="33"/>
      <point x="641" y="-29"/>
      <point x="685" y="-29" type="curve" smooth="yes"/>
      <point x="723" y="-29"/>
      <point x="807" y="10"/>
    </contour>
    <contour>
      <point x="354" y="105" type="curve" smooth="yes"/>
      <point x="320" y="105"/>
      <point x="251" y="127"/>
      <point x="251" y="227" type="curve" smooth="yes"/>
      <point x="251" y="285"/>
      <point x="275" y="328"/>
      <point x="308" y="363" type="curve" smooth="yes"/>
      <point x="348" y="404"/>
      <point x="401" y="433"/>
      <point x="605" y="467" type="curve"/>
      <point x="605" y="224" type="line"/>
      <point x="507" y="140"/>
      <point x="424" y="105"/>
    </contour>
    <contour>
      <point x="828" y="1243" type="curve"/>
      <point x="821" y="1252"/>
      <point x="813" y="1260"/>
      <point x="805" y="1268" type="curve"/>
      <point x="180" y="1268" type="line"/>
      <point x="167" y="1243"/>
      <point x="143" y="1189"/>
      <point x="137" y="1161" type="curve"/>
      <point x="160" y="1136" type="line"/>
      <point x="787" y="1136" type="line"/>
      <point x="797" y="1159"/>
      <point x="822" y="1215"/>
    </contour>
  </outline>
</glyph>
<glyph name="cacute" format="2">
  <advance width="878"/>
  <unicode hex="0107"/>
  <outline>
    <contour>
      <point x="827" y="184" type="curve"/>
      <point x="786" y="227" type="line"/>
      <point x="643" y="109"/>
      <point x="600" y="104"/>
      <point x="527" y="104" type="curve" smooth="yes"/>
      <point x="375" y="104"/>
      <point x="238" y="243"/>
      <point x="238" y="459" type="curve" smooth="yes"/>
      <point x="238" y="702"/>
      <point x="360" y="819"/>
      <point x="491" y="819" type="curve" smooth="yes"/>
      <point x="619" y="819"/>
      <point x="686" y="746"/>
      <point x="712" y="684" type="curve"/>
      <point x="754" y="674" type="line"/>
      <point x="776" y="707"/>
      <point x="813" y="805"/>
      <point x="813" y="844" type="curve" smooth="yes"/>
      <point x="813" y="847"/>
      <point x="813" y="850"/>
      <point x="813" y="852" type="curve"/>
      <point x="770" y="897"/>
      <point x="661" y="928"/>
      <point x="576" y="928" type="curve" smooth="yes"/>
      <point x="291" y="928"/>
      <point x="75" y="707"/>
      <point x="75" y="429" type="curve" smooth="yes"/>
      <point x="75" y="142"/>
      <point x="261" y="-29"/>
      <point x="454" y="-29" type="curve" smooth="yes"/>
      <point x="576" y="-29"/>
      <point x="657" y="-12"/>
    </contour>
    <contour>
      <point x="777" y="1378" type="line"/>
      <point x="769" y="1392"/>
      <point x="762" y="1406"/>
      <point x="754" y="1419" type="curve"/>
      <point x="725" y="1427"/>
      <point x="627" y="1442"/>
      <point x="596" y="1444" type="curve"/>
      <point x="374" y="1041" type="line"/>
      <point x="388" y="1029"/>
      <point x="411" y="1014"/>
      <point x="435" y="1011" type="curve"/>
    </contour>
  </outline>
</glyph>
<glyph name="ccircumflex" format="2">
  <advance width="878"/>
  <unicode hex="0109"/>
  <outline>
    <contour>
      <point x="827" y="184" type="curve"/>
      <point x="786" y="227" type="line"/>
      <point x="643" y="109"/>
      <point x="600" y="104"/>
      <point x="527" y="104" type="curve" smooth="yes"/>
      <point x="375" y="104"/>
      <point x="238" y="243"/>
      <point x="238" y="459" type="curve" smooth="yes"/>
      <point x="238" y="702"/>
      <point x="360" y="819"/>
      <point x="491" y="819" type="curve" smooth="yes"/>
      <point x="619" y="819"/>
      <point x="686" y="746"/>
      <point x="712" y="684" type="curve"/>
      <point x="754" y="674" type="line"/>
      <point x="776" y="707"/>
      <point x="813" y="805"/>
      <point x="813" y="844" type="curve" smooth="yes"/>
      <point x="813" y="847"/>
      <point x="813" y="850"/>
      <point x="813" y="852" type="curve"/>
      <point x="770" y="897"/>
      <point x="661" y="928"/>
      <point x="576" y="928" type="curve" smooth="yes"/>
      <point x="291" y="928"/>
      <point x="75" y="707"/>
      <point x="75" y="429" type="curve" smooth="yes"/>
      <point x="75" y="142"/>
      <point x="261" y="-29"/>
      <point x="454" y="-29" type="curve" smooth="yes"/>
      <point x="576" y="-29"/>
      <point x="657" y="-12"/>
    </contour>
    <contour>
      <point x="792" y="1059" type="curve"/>
      <point x="706" y="1181"/>
      <point x="621" y="1304"/>
      <point x="536" y="1426" type="curve"/>
      <point x="426" y="1426" type="line"/>
      <point x="340" y="1304"/>
      <point x="254" y="1181"/>
      <point x="167" y="1059" type="curve"/>
      <point x="185" y="1035"/>
      <point x="193" y="1020"/>
      <point x="215" y="1011" type="curve"/>
      <point x="480" y="1261" type="line"/>
      <point x="747" y="1011" type="line"/>
      <point x="769" y="1020"/>
      <point x="776" y="1035"/>
    </contour>
  </outline>
</glyph>
